<svg xmlns="http://www.w3.org/2000/svg" width="505" height="537.291" viewBox="0 0 505 537.291">
  <g id="Grupo_874275" data-name="Grupo 874275" transform="translate(-810 -2019)">
    <path id="Trazado_274119" data-name="Trazado 274119" d="M0,0H505V537.291H0Z" transform="translate(810 2019)" fill="#fee5df"/>
    <g id="Grupo_146185" data-name="Grupo 146185" transform="translate(-180 -60.999)">
      <g id="Grupo_146184" data-name="Grupo 146184" transform="translate(1022 2210)">
        <path id="Trazado_254444" data-name="Trazado 254444" d="M259.5,472.8s3.2,11.637,13.637,13.637,26.071,3.613,45.325,12.444,16.438,8.821,31.679,5.207,15.646-4.811,33.293-1.6,14.439-2.807,24.873-2,5.08,2.132,18.448,3.208,9.891,2.934,5.344,2.137-6.146,1.6-12.566,0-10.429-4.547-18.717-1.071-15.778,2.669-24.6,1.608-9.358-2.41-19.524.8-16.844,6.415-25.4,3.467-8.019-3.467-1.873,2.679,16.849,13.1,20.858,27.547,7.486,15.24,18.448,20.858,7.76,11.221,16.311,24.32,12.571,14.713,15.245,27.283,4.278,16.306,9.358,23.264-2.938.8-7.491-7.755-3.741-10.429-5.08-17.651-8.552-12.3-13.9-21.391-9.891-21.924-16.311-24.6-11.764-7.486-12.033-1.878,2.674,7.76,5.613,14.982,6.42,14.971,2.406,21.924-3.472,8.557-.264,21.924,0,4.283-3.745-5.882.269-13.906,1.6-19.788,1.34-8.821-4.009-18.453-5.882-17.641-7.222-25.127-16.306-32.363-31.014-42.519c0,0-1.878,6.679,1.868,12.566s10.7,14.444,13.911,21.122-.807,9.9,3.74,17.92,6.684,17.113,1.071,6.948-5.349-11.5-6.151-18.184S330.485,541.4,322.2,531.23,315.245,520,313.91,515.985s-1.609-8.283-8.825-14.17-23-9.09-31.821-10.16c0,0,8.288,9.094,10.7,18.722s5.08,20.047,13.1,25.665,17.113,8.561,27.269,25.142-2.939-1.868-9.891-9.632-17.646-13.1-15.773-9.628,3.2,11.774,8.821,19.26,6.42,10.424,8.288,20.057a64.689,64.689,0,0,0,6.953,20.321c3.476,6.953,1.34,11.764.269,19.25s-2.948,16.042-1.071,20.59.264,5.08-2.406-.533-1.335-13.637-.269-19.519,3.212-13.373-1.066-23-6.689-24.868-11.231-31.283-7.222-9.359-9.627-16.58-3.207-10.693-4.811-11.495-1.071,8.821,0,13.368,7.217,10.429,2.67,16.042-8.288,10.16-8.288,17.113,1.335,17.646-1.066,9.095-1.609-13.368,2.4-20.59,6.151-8.562,3.208-16.844-1.868-12.038-2.675-16.581-3.74-7.759-6.415-12.575-3.207,2.415-5.08,7.491-1.34,9.094-1.066,16.042-2.142,14.443-2.142,7.764.269-14.444.269-19.26,1.6-8.825,3.208-15.245,2.943-14.433,0-20.32-11.5-14.977-14.972-18.448S259.891,478.018,259.5,472.8Z" transform="translate(-40.37 -426.278)" fill="#a67c52"/>
        <g id="Grupo_146177" data-name="Grupo 146177" transform="translate(0 44.083)">
          <path id="Trazado_254445" data-name="Trazado 254445" d="M269.953,486.159s-2.856,3.9-6.2,7.637-6.694,6.679-15.461,8.146-13.128.064-18.712,4.963-9.774,5.417-8.718,6.293,7.285-4.352,11.7-6.405,6.655-2.415,11.651-2.146,5.247.347,2.21,2.313-5.608,3.286-9.583,8.165-5.774,9.647-11.148,12.2-10.493,5.188-10.952,7.456,1.8-2.489,9.314-5.241c8.943-3.281,8.664-6.171,14.478-12.6s14.047-12.077,21.1-15.7a40.152,40.152,0,0,0,7.535-6.606c4.3-4.64,8.3-8.972,8.3-8.972Z" transform="translate(-214.679 -420.366)" fill="#a67c52"/>
          <path id="Trazado_254446" data-name="Trazado 254446" d="M282.786,482.589s-8.019-4.816-14.708-2.943-9.089,6.42-18.986,5.618-17.382,1.066-18.712,5.882-.807-5.08,16.306-4.278,14.977-2.141,20.057-4.014,10.693,1.076,10.693,1.076Z" transform="translate(-155.403 -445.42)" fill="#a67c52"/>
          <path id="Trazado_254447" data-name="Trazado 254447" d="M286.372,480.379s-4.816.533-9.622,8.288-5.354,14.708-13.373,18.184-9.9,6.415-14.175,11.226-10.429,2.411-15.241,4.816-3.74-1.066,2.944-2.406,8.288-1.071,13.9-7.486,9.207-7.3,12.307-9.363c4.806-3.208,10.693-21.924,16.042-22.721C287.184,479.71,286.372,480.379,286.372,480.379Z" transform="translate(-151.234 -441.606)" fill="#a67c52"/>
          <path id="Trazado_254448" data-name="Trazado 254448" d="M404.939,472.3s2.674,9.358-12.835,16.844-16.585,4.547-20.062,9.9-12.3,11.769-24.33,10.16-14.972-2.406-22.731,3.476S315.359,521.769,306,523.1s-12.566.269-17.377,5.887-7.755,9.09-20.325,8.024-13.363-5.085-25.4.533-10.693-.807-17.113,2.943-12.033,8.552-7.755,5.882,7.755-6.42,13.637-4.816,7.755,1.6,14.443-1.868,6.679-2.675,16.844-.269,16.844,2.675,25.934-4.278,9.094-7.222,19.793-8.557,12.566-9.627,21.924-13.1,10.429-.274,21.391.264,14.439-2.675,20.326-8.825,8.024-3.745,19.788-9.891S412.962,489.146,404.939,472.3Z" transform="translate(-207.494 -472.302)" fill="#a67c52"/>
        </g>
        <g id="Grupo_146178" data-name="Grupo 146178" transform="translate(22.148 67.957)">
          <path id="Trazado_254449" data-name="Trazado 254449" d="M395.728,481.029a20.243,20.243,0,0,1-5.046,12.815c-4.029,4.738-10.346,3.916-15.94,4.034-9.319.186-16.434,4.572-23.225,10.542-3.784,3.33-7.168,6-12.268,6.924-5.232.939-10.473.988-15.592,2.635-8.082,2.606-15.617,7.6-22.487,12.483a155.371,155.371,0,0,0-20.629,17.7c-6.146,6.239-10.948,13.133-16.081,20.174a32.023,32.023,0,0,1-8.674,8.537c-4.268,2.679-8.9,4.493-13.026,7.476a102.751,102.751,0,0,0-9.706,8.439q-2.8,2.626-5.706,5.1c-1.677,1.423-3.432,3.74-5.3,4.831-.763.45-3.437,2.068-2.719,3.354s3.516-.108,4.278-.557c3.643-2.127,6.44-5.329,9.637-8.038,3.731-3.164,7.143-6.674,10.855-9.857,4.019-3.452,8.742-5.31,13.241-7.955a44.383,44.383,0,0,0,9.755-7.916c6.126-6.464,10.37-14.541,16.433-21.142a138.531,138.531,0,0,1,23-19.9,83.525,83.525,0,0,1,11.774-6.948c5.075-2.42,10.283-2.812,15.773-3.491,9.862-1.232,16.805-6.635,24.066-12.933,4.7-4.078,9.412-4.728,15.544-4.714,5.075.015,10.092-.553,14.639-3,8.1-4.356,14.263-12.214,14.575-21.631.073-2.279-7.095.685-7.178,3.027Z" transform="translate(-219.209 -477.185)" fill="#a67c52"/>
        </g>
        <path id="Trazado_254450" data-name="Trazado 254450" d="M272.305,498.347s-4,5.819-9.422,6.219-10.028.2-12.835,5.814-5.418,5.618-11.632,9.828-8.826,6.42-3.208,3.814,13.436-6.219,16.644-11.035,3.007-5.814,9.427-6.415S270.907,508.776,272.305,498.347Z" transform="translate(-146.863 -326.917)" fill="#a67c52"/>
        <path id="Trazado_254451" data-name="Trazado 254451" d="M282.523,496.638s-1.609,4.816-3.745,9.627-4.547,8.825-12.84,13.1-13.1,4.278-17.113,10.962-8.019,8.562-6.679,9.095,5.877-6.684,9.622-10.165,5.882-4.543,10.962-5.877,5.349-1.34,2.943,1.6-4.547,5.08-6.953,11.226-2.674,11.5-7.222,15.778-8.821,8.556-8.557,10.967,1-3.066,7.623-8.224c7.887-6.151,6.689-8.958,10.429-17.245s10.16-16.58,16.047-22.462A42.244,42.244,0,0,0,282.449,506c2.811-6.019,5.418-11.632,5.418-11.632Z" transform="translate(-108.875 -342.39)" fill="#a67c52"/>
        <path id="Trazado_254452" data-name="Trazado 254452" d="M307.757,494.98s1.6,8.625-4.621,14.639S288.9,522.253,286.693,531.48s-5.618,21.861-19.45,26.873S253.6,569.784,250.594,575s-5.413,8.224-6.816,9.427-1.071,2.406,2.543-1.066,6.415-8.83,8.283-12.307,3.745-6.278,11.231-8.958,14.972-5.344,20.057-16.443,4.679-17.646,7.755-20.991-.665,2.675,0,12.17.934,11.627-5.217,21.788-4.273,8.693-2.538,6.156,3.877-6.958,7.222-11.363,3.608-9.231,3.476-17.113,1.6-14.311,4.679-18.052,9.49-6.821,10.434-15.915S307.688,491.9,307.757,494.98Z" transform="translate(-104.493 -345.807)" fill="#a67c52"/>
        <path id="Trazado_254453" data-name="Trazado 254453" d="M413.936,677.065c-3.613-2.406-9.627-5.212-13.847-18.849s-3-17.045-15.436-26.877-12.84-17.441-15.641-28.476-16.453-14.038-18.047-25.665-1.208-12.038,4.405-42.92c4.44-24.408,7.872-45.184,6.938-63.412,1.545,7.388-22.521,9-27.308.5-.7,17.529,5.33,36.084,5.8,55.559.538,22.193-6.958,32.892-10.16,39.839s-7.755,14.708-16.311,13.373-10.165-2.406-23,1.868-21.656-.533-20.858,1.071,10.16,4.816,23.538.538,13.632.8,19.245.8-3.2,4.01-13.9,6.415-34.5,4.014-41.981,28.882-3.208,27.009-13.1,38.5-11.764,23.528-9.627,20.052,2.943-9.09,13.1-21.122,9.627-49.741,32.354-57.226,41.448-2.137,59.363-36.1c0,0,.538,14.174,6.953,38.778s1.6,45.457,1.6,71.655,3.74,40.118,3.74,36.109-3.74-24.6,1.6-49.741,3.212-45.99-2.4-66.585c0,0-3.207-8.821.792-4.009s13.109,12.571,12.307,23.264,1.066,9.9,4.278,18.986-1.609,14.708,2.67,21.924c0,0,2.205,3.212,1.007-.6s-2.406-4.816-.6-14.835S365.4,623.921,367.8,615.7s-.4,7.217,12.84,17.25,12.434,9.828,16.238,22.457,6.215,17.451,17.455,23.068C414.337,678.473,417.54,679.475,413.936,677.065Z" transform="translate(-140.118 -433.804)" fill="#a67c52"/>
        <g id="Grupo_146179" data-name="Grupo 146179" transform="translate(141.729 90.832)">
          <path id="Trazado_254454" data-name="Trazado 254454" d="M277.281,481.863c-9.53,1.266-11.016,11.089-12.776,19.1-2.924,13.3-10.6,24.692-20.839,33.537.548-.465,1.77-.147,2.327-.621,8.288-7.158,15.857-16.585,19.26-27.166,1.482-4.63,2.142-9.5,3.457-14.179.743-2.621,2.762-9.583,6.244-10.043.787-.107,1.54-.513,2.327-.626Z" transform="translate(-243.666 -481.863)" fill="#a67c52"/>
        </g>
        <g id="Grupo_146180" data-name="Grupo 146180" transform="translate(115.522 100.992)">
          <path id="Trazado_254455" data-name="Trazado 254455" d="M275.745,484.567c-3.7,3.183-7.769,5.867-11.549,8.938-4.21,3.408-6.835,7.505-9.236,12.282-4,7.94-8.239,13.48-16.654,17.02.733-.3,1.594-.313,2.332-.626,8.41-3.54,12.634-9.075,16.639-17.011a36.71,36.71,0,0,1,8.346-11.524c3.912-3.515,8.459-6.264,12.449-9.706-.543.469-1.775.151-2.327.626Z" transform="translate(-238.306 -483.941)" fill="#a67c52"/>
        </g>
        <g id="Grupo_146181" data-name="Grupo 146181" transform="translate(161.072 86.263)">
          <path id="Trazado_254456" data-name="Trazado 254456" d="M288.341,481.146c-4.542,2.89-6.087,6.733-6.581,11.955-.249,2.591-.513,4.816-1.917,7.085-1.946,3.169-5.383,2.988-8.547,3.809-5.364,1.4-8.791,5.021-11.172,9.857-1.213,2.445-2.147,5-3.56,7.33-1.77,2.914-4.9,3.882-8.038,4.64-1.418.342-1.066,1.6.342,1.271,4.283-1.037,7.892-2.542,10.248-6.43,3.951-6.508,4.875-13.407,13.407-15.632,4.748-1.242,8.092-1.555,10.478-6.479.973-1.985.968-4.425,1.168-6.576.411-4.312,1.853-7.637,5.633-10.053,1.33-.85-.675-1.286-1.462-.777Z" transform="translate(-247.622 -480.929)" fill="#a67c52"/>
        </g>
        <g id="Grupo_146182" data-name="Grupo 146182" transform="translate(29.167 29.121)">
          <path id="Trazado_254457" data-name="Trazado 254457" d="M388.2,470.871c-.474,11.05-17.563,13.353-26.076,13.118-7.755-.21-14.747-2.068-22.565-.821-7.554,1.2-14.2,4.777-21.181,7.672-16.14,6.689-33.185,3.868-49.941,2.015-6.874-.758-14.067-.508-20.6,1.941-7.931,2.973-15.27,9.461-24.061,9.388-1.687-.014-4.963,2.538-1.819,2.562,7.662.064,14.341-3.521,20.956-7a37.814,37.814,0,0,1,13.886-4.587c5.344-.582,10.767.411,16.057,1.081,16.121,2.034,31.967,2.425,47.34-3.569,8.879-3.462,16.526-7.784,26.4-7.6,4.112.078,8.219,1,12.312,1.394a42.423,42.423,0,0,0,10.258-.563c8.547-1.271,23.22-4.826,23.68-15.637.078-1.863-4.577-.89-4.64.607Z" transform="translate(-220.645 -469.242)" fill="#a67c52"/>
        </g>
        <g id="Grupo_146183" data-name="Grupo 146183" transform="translate(219.791 27.948)">
          <path id="Trazado_254458" data-name="Trazado 254458" d="M295.727,474.048s3.814,2.978,8.043,5.667,8.263,4.606,17.094,3.643,12.654-3.515,19.362-.318,10.874,2.562,10.092,3.691-8.19-2.205-12.991-2.992-7.06-.509-11.8,1.11-4.948,1.755-1.486,2.826,6.283,1.633,11.437,5.246,8.175,7.71,14.043,8.718c5.867.992,11.51,2.136,12.566,4.19s-2.406-1.9-10.38-2.513c-9.5-.719-10.023-3.584-17.367-8.195s-16.8-7.8-24.57-9.373a39.829,39.829,0,0,1-9.05-4.308c-5.4-3.3-10.424-6.381-10.424-6.381Z" transform="translate(-140.385 -449.376)" fill="#a67c52"/>
          <path id="Trazado_254459" data-name="Trazado 254459" d="M275.618,479.739s6.415-6.811,13.353-6.831,10.5,3.706,19.8.254c9.3-3.472,17.011-3.7,19.612.567s-.611-5.114-16.864.313-14.986,2.015-20.389,1.589-10,3.941-10,3.941Z" transform="translate(-197.451 -463.012)" fill="#a67c52"/>
          <path id="Trazado_254460" data-name="Trazado 254460" d="M274.211,474.342s4.777-.792,11.52,5.359,9.138,12.708,17.8,13.867,11.27,3.491,16.693,6.958,10.693-.518,15.974.489,3.31-2.049-3.481-1.521-8.268,1.223-15.417-3.423-10.84-4.518-14.385-5.662c-5.5-1.78-16.248-18.2-21.617-17.519C273.243,473.916,274.211,474.342,274.211,474.342Z" transform="translate(-203.066 -453.962)" fill="#a67c52"/>
          <path id="Trazado_254461" data-name="Trazado 254461" d="M260.275,469s-.024,9.735,16.932,12.722,17.186-.132,21.988,4.073,15.035,7.975,26.183,3.163,13.754-6.39,22.814-2.831,11.74,6.126,21.108,4.875,12.165-3.163,18.326.934,9.93,6.645,21.734,2.2,11.49-8.523,24.594-6.391,10.077-3.677,17.274-1.819,13.9,4.963,9.055,3.555-9.207-4.068-14.434-.924-7.026,3.652-14.4,2.122-7.158-.753-16.282,4.322-15.49,7.153-26.124,2.929-10.713-4.474-21.367-2.851-14.717-5.852-24.663-6.65S332.9,491,322.489,494.5s-14.619,1.355-21.954-2.968-8.738-1.418-21.729-4.141S257.136,487.4,260.275,469Z" transform="translate(-259.631 -469.002)" fill="#a67c52"/>
        </g>
        <path id="Trazado_254462" data-name="Trazado 254462" d="M413.936,706.552c-3.613-2.41-9.627-5.217-13.847-18.854s-3-17.045-15.436-26.877-12.84-17.441-15.641-28.476-16.453-14.038-18.047-25.665-1.208-12.038,4.405-42.92c.626-3.442,1.222-6.791,1.8-10.092.181-1.046.357-2.073.533-3.109.391-2.3.768-4.587,1.129-6.826.191-1.2.381-2.406.562-3.594.327-2.147.626-4.254.909-6.342.142-1.061.3-2.142.43-3.193.377-2.973.709-5.9.968-8.757.064-.65.088-1.276.142-1.917.181-2.234.332-4.44.435-6.606.049-1.027.064-2.039.093-3.051q.066-2.692.039-5.31c-.015-1.012-.029-2.019-.069-3.017-.02-.528-.01-1.076-.034-1.6a3.036,3.036,0,0,1,0,1.071,94.658,94.658,0,0,0-1.726-15.074c-1.775-8.64-2.9-15.407-3.765-23.059H338.952c-.914,11.984-2.044,23-3.232,30.28a59.541,59.541,0,0,0-.714,7.29l0-.01a.522.522,0,0,0,0,.088c-.015.318.01.641,0,.958-.054,2.059-.034,4.127.073,6.215.044.88.137,1.77.2,2.65.122,1.555.244,3.115.425,4.684.117,1.022.249,2.054.386,3.085.2,1.511.406,3.031.636,4.562.176,1.169.352,2.352.543,3.535.313,1.985.626,3.99.944,6,.244,1.535.474,3.08.7,4.625.176,1.164.347,2.327.508,3.5.22,1.633.4,3.286.587,4.934.1.958.225,1.917.313,2.88.24,2.6.416,5.212.479,7.843.538,22.193-6.958,32.892-10.16,39.839s-7.755,14.708-16.311,13.373-10.165-2.406-23,1.868-21.656-.533-20.858,1.071,10.16,4.816,23.538.538,13.632.8,19.245.8-3.2,4.01-13.9,6.415-34.5,4.014-41.981,28.882-3.208,27.009-13.1,38.5S232.5,711.226,234.64,707.75s2.943-9.09,13.1-21.122,9.627-49.741,32.354-57.226,41.448-2.137,59.363-36.1c0,0,.538,14.174,6.953,38.778s1.6,45.457,1.6,71.655,3.74,40.118,3.74,36.109-3.74-24.6,1.6-49.741,3.212-45.99-2.4-66.585c0,0-3.207-8.821.792-4.009s13.109,12.571,12.307,23.264,1.066,9.9,4.278,18.986-1.609,14.708,2.67,21.924c0,0,2.21,3.212,1.007-.6s-2.406-4.816-.6-14.835S365.4,653.4,367.8,645.179s-.4,7.217,12.84,17.25,12.434,9.828,16.238,22.457,6.215,17.451,17.455,23.068C414.337,707.955,417.54,708.958,413.936,706.552Z" transform="translate(-140.118 -463.286)" fill="#a67c52"/>
      </g>
    </g>
    <g id="Grupo_146131" data-name="Grupo 146131" transform="translate(788.955 2131.193)">
      <path id="Trazado_254399" data-name="Trazado 254399" d="M0,0H24.08" transform="translate(180.545 89.307)" fill="none" stroke="#fdb32b" stroke-width="2.627"/>
      <g id="Grupo_146114" data-name="Grupo 146114" transform="translate(-27.15 95.086) rotate(-30)">
        <path id="Trazado_254388" data-name="Trazado 254388" d="M219.125,119.338,191.1,115.856l10.637-6.277-.181-12.349Z" fill="#fdb32b"/>
      </g>
    </g>
    <path id="Trazado_274121" data-name="Trazado 274121" d="M5.722,14.474H4.052V19H.967V6.2H6a5.621,5.621,0,0,1,3.56,1.01,3.421,3.421,0,0,1,1.283,2.853,4.155,4.155,0,0,1-.541,2.213A3.837,3.837,0,0,1,8.613,13.7l2.672,5.167V19H7.98ZM4.052,12.1H6a1.751,1.751,0,0,0,1.323-.463,1.788,1.788,0,0,0,.444-1.291,1.809,1.809,0,0,0-.448-1.3A1.735,1.735,0,0,0,6,8.576H4.052ZM17.93,19a3.344,3.344,0,0,1-.281-.853,2.754,2.754,0,0,1-2.285,1.028,3.374,3.374,0,0,1-2.285-.813,2.588,2.588,0,0,1-.94-2.043,2.66,2.66,0,0,1,1.143-2.338A5.821,5.821,0,0,1,16.6,13.19h.914v-.5q0-1.316-1.134-1.316a.927.927,0,0,0-1.055,1.042H12.366a2.655,2.655,0,0,1,1.173-2.239,4.931,4.931,0,0,1,2.993-.86,4.323,4.323,0,0,1,2.874.888,3.086,3.086,0,0,1,1.081,2.435v4.21a4.311,4.311,0,0,0,.4,2V19Zm-1.854-1.934a1.652,1.652,0,0,0,.918-.237,1.487,1.487,0,0,0,.523-.536V14.772h-.861q-1.547,0-1.547,1.389a.848.848,0,0,0,.272.655A.986.986,0,0,0,16.075,17.066ZM25.356,19H22.377V9.49h2.979ZM24.249,5.676h3.129l-2.443,2.76-2.417,0Zm6.5,11.039h4.333V19H27.009V17.348l4.219-5.572H27.193V9.49h7.8v1.6Zm15.231-.387a.684.684,0,0,0-.4-.606,6.016,6.016,0,0,0-1.5-.475,6.853,6.853,0,0,1-1.828-.646,3.062,3.062,0,0,1-1.1-.971,2.319,2.319,0,0,1-.378-1.31,2.628,2.628,0,0,1,1.081-2.158,4.453,4.453,0,0,1,2.83-.848,4.934,4.934,0,0,1,3.023.853,2.666,2.666,0,0,1,1.143,2.241H45.888q0-1.143-1.2-1.143a1.194,1.194,0,0,0-.782.259.8.8,0,0,0-.316.646.737.737,0,0,0,.387.642,3.654,3.654,0,0,0,1.235.4,10.671,10.671,0,0,1,1.49.378,2.706,2.706,0,0,1,2.145,2.646,2.491,2.491,0,0,1-1.156,2.118,5.068,5.068,0,0,1-2.993.817,5.172,5.172,0,0,1-2.18-.439,3.645,3.645,0,0,1-1.494-1.2,2.707,2.707,0,0,1-.536-1.591h2.769a1.145,1.145,0,0,0,.439.962,1.808,1.808,0,0,0,1.081.3,1.422,1.422,0,0,0,.91-.246A.787.787,0,0,0,45.984,16.328Zm8.842,2.848a4.889,4.889,0,0,1-3.542-1.305,4.507,4.507,0,0,1-1.354-3.4v-.246a5.84,5.84,0,0,1,.541-2.575,3.955,3.955,0,0,1,1.578-1.727,4.763,4.763,0,0,1,2.461-.611,4.117,4.117,0,0,1,3.164,1.244,4.887,4.887,0,0,1,1.16,3.467v1.151H52.945a2.135,2.135,0,0,0,.694,1.257,2.066,2.066,0,0,0,1.389.457,2.662,2.662,0,0,0,2.2-.984l1.354,1.6a3.784,3.784,0,0,1-1.569,1.217A5.3,5.3,0,0,1,54.826,19.176ZM54.492,11.6q-1.3,0-1.547,1.723h2.988v-.229a1.467,1.467,0,0,0-.36-1.1A1.434,1.434,0,0,0,54.492,11.6Zm9.554,5.291a1.317,1.317,0,0,0,.967-.338,1.241,1.241,0,0,0,.334-.945h2.777A3.288,3.288,0,0,1,67,18.174a4.168,4.168,0,0,1-2.887,1,4.22,4.22,0,0,1-3.27-1.3,5.125,5.125,0,0,1-1.2-3.6v-.123a5.792,5.792,0,0,1,.532-2.544,3.872,3.872,0,0,1,1.534-1.7,4.573,4.573,0,0,1,2.373-.593,4.116,4.116,0,0,1,2.944,1.028,3.647,3.647,0,0,1,1.09,2.786H65.347A1.626,1.626,0,0,0,64.986,12a1.244,1.244,0,0,0-.967-.4q-1.151,0-1.345,1.468a10.357,10.357,0,0,0-.062,1.283,4.068,4.068,0,0,0,.343,1.986A1.187,1.187,0,0,0,64.046,16.891Zm11,1.081a3.054,3.054,0,0,1-2.54,1.2,3,3,0,0,1-2.369-.91,3.826,3.826,0,0,1-.8-2.615V9.49H72.29v6.179a1.065,1.065,0,0,0,1.187,1.222,1.548,1.548,0,0,0,1.45-.729V9.49h2.979V19H75.129ZM82.248,9.49l.1,1.116a3.225,3.225,0,0,1,2.716-1.292,2.713,2.713,0,0,1,2.219.888,4.226,4.226,0,0,1,.76,2.672V19H85.069V13a1.6,1.6,0,0,0-.29-1.059,1.342,1.342,0,0,0-1.055-.338,1.413,1.413,0,0,0-1.292.686V19H79.471V9.49Zm7.058,4.685a5.809,5.809,0,0,1,.976-3.56,3.211,3.211,0,0,1,2.725-1.3,2.731,2.731,0,0,1,2.145,1V5.5h2.971V19H95.458l-.149-1.02a2.8,2.8,0,0,1-2.32,1.2,3.205,3.205,0,0,1-2.689-1.3A5.993,5.993,0,0,1,89.306,14.175Zm2.962.185q0,2.531,1.477,2.531a1.458,1.458,0,0,0,1.406-.826V12.443a1.419,1.419,0,0,0-1.389-.844q-1.371,0-1.485,2.215ZM105.161,19a3.344,3.344,0,0,1-.281-.853,2.754,2.754,0,0,1-2.285,1.028,3.374,3.374,0,0,1-2.285-.813,2.588,2.588,0,0,1-.94-2.043,2.66,2.66,0,0,1,1.143-2.338,5.821,5.821,0,0,1,3.322-.791h.914v-.5q0-1.316-1.134-1.316a.927.927,0,0,0-1.055,1.042H99.6a2.655,2.655,0,0,1,1.173-2.239,4.931,4.931,0,0,1,2.993-.86,4.323,4.323,0,0,1,2.874.888,3.086,3.086,0,0,1,1.081,2.435v4.21a4.311,4.311,0,0,0,.4,2V19Zm-1.854-1.934a1.652,1.652,0,0,0,.918-.237,1.487,1.487,0,0,0,.523-.536V14.772h-.861q-1.547,0-1.547,1.389a.848.848,0,0,0,.272.655A.986.986,0,0,0,103.307,17.066Zm11.8-4.9-.976-.07a1.752,1.752,0,0,0-1.793.879V19H109.38V9.49h2.777l.1,1.222a2.294,2.294,0,0,1,2.083-1.4,2.888,2.888,0,0,1,.826.105ZM119.3,19h-2.971V9.49H119.3ZM116.156,7.038A1.322,1.322,0,0,1,116.613,6a1.943,1.943,0,0,1,2.373,0,1.322,1.322,0,0,1,.457,1.037,1.322,1.322,0,0,1-.457,1.037,1.943,1.943,0,0,1-2.373,0A1.322,1.322,0,0,1,116.156,7.038ZM126.483,19a3.344,3.344,0,0,1-.281-.853,2.754,2.754,0,0,1-2.285,1.028,3.374,3.374,0,0,1-2.285-.813,2.588,2.588,0,0,1-.94-2.043,2.66,2.66,0,0,1,1.143-2.338,5.821,5.821,0,0,1,3.322-.791h.914v-.5q0-1.316-1.134-1.316a.927.927,0,0,0-1.055,1.042H120.92a2.655,2.655,0,0,1,1.173-2.239,4.931,4.931,0,0,1,2.993-.86,4.323,4.323,0,0,1,2.874.888,3.086,3.086,0,0,1,1.081,2.435v4.21a4.311,4.311,0,0,0,.4,2V19Zm-1.854-1.934a1.652,1.652,0,0,0,.918-.237,1.487,1.487,0,0,0,.523-.536V14.772h-.861q-1.547,0-1.547,1.389a.848.848,0,0,0,.272.655A.986.986,0,0,0,124.629,17.066Z" transform="translate(835 2205.5)" fill="#12263f"/>
    <g id="Grupo_146132" data-name="Grupo 146132" transform="translate(1116 2283.5)">
      <path id="Trazado_254400" data-name="Trazado 254400" d="M24.08,0H0" transform="translate(17.662 19.579)" fill="none" stroke="#fdb32b" stroke-width="2.627"/>
      <g id="Grupo_146114-2" data-name="Grupo 146114" transform="translate(24.269 33.158) rotate(-150)">
        <path id="Trazado_254388-2" data-name="Trazado 254388" d="M28.023,0,0,3.482,10.637,9.76l-.181,12.349Z" fill="#fdb32b"/>
      </g>
    </g>
    <path id="Trazado_274120" data-name="Trazado 274120" d="M5.722,14.474H4.052V19H.967V6.2H6a5.621,5.621,0,0,1,3.56,1.01,3.421,3.421,0,0,1,1.283,2.853,4.155,4.155,0,0,1-.541,2.213A3.837,3.837,0,0,1,8.613,13.7l2.672,5.167V19H7.98ZM4.052,12.1H6a1.751,1.751,0,0,0,1.323-.463,1.788,1.788,0,0,0,.444-1.291,1.809,1.809,0,0,0-.448-1.3A1.735,1.735,0,0,0,6,8.576H4.052ZM17.93,19a3.344,3.344,0,0,1-.281-.853,2.754,2.754,0,0,1-2.285,1.028,3.374,3.374,0,0,1-2.285-.813,2.588,2.588,0,0,1-.94-2.043,2.66,2.66,0,0,1,1.143-2.338A5.821,5.821,0,0,1,16.6,13.19h.914v-.5q0-1.316-1.134-1.316a.927.927,0,0,0-1.055,1.042H12.366a2.655,2.655,0,0,1,1.173-2.239,4.931,4.931,0,0,1,2.993-.86,4.323,4.323,0,0,1,2.874.888,3.086,3.086,0,0,1,1.081,2.435v4.21a4.311,4.311,0,0,0,.4,2V19Zm-1.854-1.934a1.652,1.652,0,0,0,.918-.237,1.487,1.487,0,0,0,.523-.536V14.772h-.861q-1.547,0-1.547,1.389a.848.848,0,0,0,.272.655A.986.986,0,0,0,16.075,17.066ZM25.356,19H22.377V9.49h2.979ZM24.249,5.676h3.129l-2.443,2.76-2.417,0Zm6.5,11.039h4.333V19H27.009V17.348l4.219-5.572H27.193V9.49h7.8v1.6Zm13.7-9.589V9.49H46.02v2.057H44.455V15.9a1.111,1.111,0,0,0,.193.747,1.037,1.037,0,0,0,.765.211,4.345,4.345,0,0,0,.738-.053v2.118a5.466,5.466,0,0,1-1.67.255,3.1,3.1,0,0,1-2.259-.721,2.954,2.954,0,0,1-.729-2.188v-4.72H40.28V9.49h1.213V7.126Zm7.33,12.05a4.889,4.889,0,0,1-3.542-1.305,4.507,4.507,0,0,1-1.354-3.4v-.246a5.84,5.84,0,0,1,.541-2.575,3.955,3.955,0,0,1,1.578-1.727,4.763,4.763,0,0,1,2.461-.611,4.117,4.117,0,0,1,3.164,1.244,4.887,4.887,0,0,1,1.16,3.467v1.151H49.9a2.135,2.135,0,0,0,.694,1.257,2.066,2.066,0,0,0,1.389.457,2.662,2.662,0,0,0,2.2-.984l1.354,1.6a3.784,3.784,0,0,1-1.569,1.217A5.3,5.3,0,0,1,51.785,19.176ZM51.451,11.6q-1.3,0-1.547,1.723h2.988v-.229a1.467,1.467,0,0,0-.36-1.1A1.434,1.434,0,0,0,51.451,11.6Zm11.285.571-.976-.07a1.752,1.752,0,0,0-1.793.879V19H57.006V9.49h2.777l.1,1.222a2.294,2.294,0,0,1,2.083-1.4,2.888,2.888,0,0,1,.826.105Zm4.922,4.72a1.317,1.317,0,0,0,.967-.338,1.241,1.241,0,0,0,.334-.945h2.777a3.288,3.288,0,0,1-1.121,2.566,4.168,4.168,0,0,1-2.887,1,4.22,4.22,0,0,1-3.27-1.3,5.125,5.125,0,0,1-1.2-3.6v-.123A5.792,5.792,0,0,1,63.8,11.6a3.872,3.872,0,0,1,1.534-1.7A4.573,4.573,0,0,1,67.7,9.314a4.116,4.116,0,0,1,2.944,1.028,3.647,3.647,0,0,1,1.09,2.786H68.959A1.626,1.626,0,0,0,68.6,12a1.244,1.244,0,0,0-.967-.4q-1.151,0-1.345,1.468a10.357,10.357,0,0,0-.062,1.283,4.068,4.068,0,0,0,.343,1.986A1.187,1.187,0,0,0,67.658,16.891ZM76.113,19H73.143V9.49h2.971ZM72.967,7.038A1.322,1.322,0,0,1,73.424,6,1.943,1.943,0,0,1,75.8,6a1.322,1.322,0,0,1,.457,1.037A1.322,1.322,0,0,1,75.8,8.075a1.943,1.943,0,0,1-2.373,0A1.322,1.322,0,0,1,72.967,7.038ZM83.294,19a3.344,3.344,0,0,1-.281-.853,2.754,2.754,0,0,1-2.285,1.028,3.374,3.374,0,0,1-2.285-.813,2.588,2.588,0,0,1-.94-2.043,2.66,2.66,0,0,1,1.143-2.338,5.821,5.821,0,0,1,3.322-.791h.914v-.5q0-1.316-1.134-1.316a.927.927,0,0,0-1.055,1.042H77.73A2.655,2.655,0,0,1,78.9,10.175a4.931,4.931,0,0,1,2.993-.86,4.323,4.323,0,0,1,2.874.888,3.086,3.086,0,0,1,1.081,2.435v4.21a4.311,4.311,0,0,0,.4,2V19Zm-1.854-1.934a1.652,1.652,0,0,0,.918-.237,1.487,1.487,0,0,0,.523-.536V14.772H82.02q-1.547,0-1.547,1.389a.848.848,0,0,0,.272.655A.986.986,0,0,0,81.439,17.066Zm11.8-4.9-.976-.07a1.752,1.752,0,0,0-1.793.879V19H87.513V9.49H90.29l.1,1.222a2.294,2.294,0,0,1,2.083-1.4,2.888,2.888,0,0,1,.826.105ZM97.436,19H94.465V9.49h2.971ZM94.289,7.038A1.322,1.322,0,0,1,94.746,6a1.943,1.943,0,0,1,2.373,0,1.322,1.322,0,0,1,.457,1.037,1.322,1.322,0,0,1-.457,1.037,1.943,1.943,0,0,1-2.373,0A1.322,1.322,0,0,1,94.289,7.038ZM104.616,19a3.344,3.344,0,0,1-.281-.853,2.754,2.754,0,0,1-2.285,1.028,3.374,3.374,0,0,1-2.285-.813,2.588,2.588,0,0,1-.94-2.043,2.66,2.66,0,0,1,1.143-2.338,5.821,5.821,0,0,1,3.322-.791h.914v-.5q0-1.316-1.134-1.316a.927.927,0,0,0-1.055,1.042H99.053a2.655,2.655,0,0,1,1.173-2.239,4.931,4.931,0,0,1,2.993-.86,4.323,4.323,0,0,1,2.874.888,3.086,3.086,0,0,1,1.081,2.435v4.21a4.311,4.311,0,0,0,.4,2V19Zm-1.854-1.934a1.652,1.652,0,0,0,.918-.237,1.487,1.487,0,0,0,.523-.536V14.772h-.861q-1.547,0-1.547,1.389a.848.848,0,0,0,.272.655A.986.986,0,0,0,102.762,17.066Z" transform="translate(1159.999 2290.646)" fill="#12263f"/>
    <g id="Grupo_146126" data-name="Grupo 146126" transform="translate(825.455 2070.772)">
      <path id="Trazado_254398" data-name="Trazado 254398" d="M0,0H78.58" transform="translate(126.045 89.307)" fill="none" stroke="#fda929" stroke-width="2.627"/>
      <g id="Grupo_146114-3" data-name="Grupo 146114" transform="translate(-27.15 95.086) rotate(-30)">
        <path id="Trazado_254388-3" data-name="Trazado 254388" d="M219.125,119.338,191.1,115.856l10.637-6.277-.181-12.349Z" fill="#fdb32b"/>
      </g>
    </g>
    <path id="Trazado_274122" data-name="Trazado 274122" d="M5.722,14.474H4.052V19H.967V6.2H6a5.621,5.621,0,0,1,3.56,1.01,3.421,3.421,0,0,1,1.283,2.853,4.155,4.155,0,0,1-.541,2.213A3.837,3.837,0,0,1,8.613,13.7l2.672,5.167V19H7.98ZM4.052,12.1H6a1.751,1.751,0,0,0,1.323-.463,1.788,1.788,0,0,0,.444-1.291,1.809,1.809,0,0,0-.448-1.3A1.735,1.735,0,0,0,6,8.576H4.052ZM17.93,19a3.344,3.344,0,0,1-.281-.853,2.754,2.754,0,0,1-2.285,1.028,3.374,3.374,0,0,1-2.285-.813,2.588,2.588,0,0,1-.94-2.043,2.66,2.66,0,0,1,1.143-2.338A5.821,5.821,0,0,1,16.6,13.19h.914v-.5q0-1.316-1.134-1.316a.927.927,0,0,0-1.055,1.042H12.366a2.655,2.655,0,0,1,1.173-2.239,4.931,4.931,0,0,1,2.993-.86,4.323,4.323,0,0,1,2.874.888,3.086,3.086,0,0,1,1.081,2.435v4.21a4.311,4.311,0,0,0,.4,2V19Zm-1.854-1.934a1.652,1.652,0,0,0,.918-.237,1.487,1.487,0,0,0,.523-.536V14.772h-.861q-1.547,0-1.547,1.389a.848.848,0,0,0,.272.655A.986.986,0,0,0,16.075,17.066ZM25.356,19H22.377V9.49h2.979ZM24.249,5.676h3.129l-2.443,2.76-2.417,0Zm6.5,11.039h4.333V19H27.009V17.348l4.219-5.572H27.193V9.49h7.8v1.6Zm19.081-2.4a5.735,5.735,0,0,1-1,3.538,3.2,3.2,0,0,1-2.694,1.323,2.742,2.742,0,0,1-2.153-.958v4.438H41.027V9.49H43.8l.088.879a2.742,2.742,0,0,1,2.241-1.055,3.224,3.224,0,0,1,2.733,1.3,5.805,5.805,0,0,1,.976,3.564Zm-2.962-.185q0-2.531-1.477-2.531a1.394,1.394,0,0,0-1.406.756V16.1a1.439,1.439,0,0,0,1.424.791q1.415,0,1.459-2.443Zm10.02-1.96-.976-.07a1.752,1.752,0,0,0-1.793.879V19H51.161V9.49h2.777l.1,1.222a2.294,2.294,0,0,1,2.083-1.4,2.888,2.888,0,0,1,.826.105ZM61.084,19H58.113V9.49h2.971ZM57.938,7.038A1.322,1.322,0,0,1,58.395,6a1.943,1.943,0,0,1,2.373,0,1.322,1.322,0,0,1,.457,1.037,1.322,1.322,0,0,1-.457,1.037,1.943,1.943,0,0,1-2.373,0A1.322,1.322,0,0,1,57.938,7.038Zm7.69,2.452.1,1.116A3.225,3.225,0,0,1,68.44,9.314a2.713,2.713,0,0,1,2.219.888,4.226,4.226,0,0,1,.76,2.672V19H68.449V13a1.6,1.6,0,0,0-.29-1.059A1.342,1.342,0,0,0,67.1,11.6a1.413,1.413,0,0,0-1.292.686V19H62.851V9.49Zm11.452,7.4a1.317,1.317,0,0,0,.967-.338,1.241,1.241,0,0,0,.334-.945h2.777a3.288,3.288,0,0,1-1.121,2.566,4.168,4.168,0,0,1-2.887,1,4.22,4.22,0,0,1-3.27-1.3,5.125,5.125,0,0,1-1.2-3.6v-.123a5.792,5.792,0,0,1,.532-2.544,3.872,3.872,0,0,1,1.534-1.7,4.573,4.573,0,0,1,2.373-.593,4.116,4.116,0,0,1,2.944,1.028,3.647,3.647,0,0,1,1.09,2.786H78.381A1.626,1.626,0,0,0,78.021,12a1.244,1.244,0,0,0-.967-.4q-1.151,0-1.345,1.468a10.357,10.357,0,0,0-.062,1.283,4.068,4.068,0,0,0,.343,1.986A1.187,1.187,0,0,0,77.08,16.891ZM85.535,19H82.564V9.49h2.971ZM82.389,7.038A1.322,1.322,0,0,1,82.846,6a1.943,1.943,0,0,1,2.373,0,1.322,1.322,0,0,1,.457,1.037,1.322,1.322,0,0,1-.457,1.037,1.943,1.943,0,0,1-2.373,0A1.322,1.322,0,0,1,82.389,7.038Zm13.8,7.277a5.735,5.735,0,0,1-1,3.538A3.2,3.2,0,0,1,92.5,19.176a2.742,2.742,0,0,1-2.153-.958v4.438H87.381V9.49h2.769l.088.879a2.742,2.742,0,0,1,2.241-1.055,3.224,3.224,0,0,1,2.733,1.3,5.805,5.805,0,0,1,.976,3.564Zm-2.962-.185q0-2.531-1.477-2.531a1.394,1.394,0,0,0-1.406.756V16.1a1.439,1.439,0,0,0,1.424.791q1.415,0,1.459-2.443ZM102.85,19a3.344,3.344,0,0,1-.281-.853,2.754,2.754,0,0,1-2.285,1.028A3.374,3.374,0,0,1,98,18.363a2.588,2.588,0,0,1-.94-2.043A2.66,2.66,0,0,1,98.2,13.981a5.821,5.821,0,0,1,3.322-.791h.914v-.5q0-1.316-1.134-1.316a.927.927,0,0,0-1.055,1.042H97.286a2.655,2.655,0,0,1,1.173-2.239,4.931,4.931,0,0,1,2.993-.86,4.323,4.323,0,0,1,2.874.888,3.086,3.086,0,0,1,1.081,2.435v4.21a4.311,4.311,0,0,0,.4,2V19ZM101,17.066a1.652,1.652,0,0,0,.918-.237,1.487,1.487,0,0,0,.523-.536V14.772h-.861q-1.547,0-1.547,1.389a.848.848,0,0,0,.272.655A.986.986,0,0,0,101,17.066ZM110.171,19H107.2V5.5h2.971Z" transform="translate(835 2145.079)" fill="#12263f"/>
  </g>
</svg>
