<svg xmlns="http://www.w3.org/2000/svg" width="200" height="183.602" viewBox="0 0 200 183.602">
  <g id="Grupo_80089" data-name="Grupo 80089" transform="translate(-223.875 -391)">
    <g id="Grupo_27" data-name="Grupo 27" transform="translate(223.875 391)">
      <path id="blob_2_" data-name="blob(2)" d="M125.5.542c13.429,36.388-.144,86.639-29.457,105.555C66.726,125.158,21.818,112.74-13.993,86.892S-76.517,21.913-67.564-8.266c8.953-30.324,53.572-51.55,96.314-50.828C71.347-58.372,112.067-35.846,125.5.542Z" transform="translate(69.306 64.866)" fill="#addbd5"/>
      <g id="Grupo_3" data-name="Grupo 3" transform="translate(12.125 0)">
        <text id="_" data-name="+" transform="translate(97.811 121.222)" fill="#ff6b00" font-size="29" font-family="Montserrat-Bold, Montserrat" font-weight="700"><tspan x="-8.686" y="0">+</tspan></text>
        <text id="_2" data-name="+" transform="translate(16.001 143.374)" fill="#81b722" font-size="29" font-family="Montserrat-Bold, Montserrat" font-weight="700"><tspan x="-8.686" y="0">+</tspan></text>
        <text id="_3" data-name="+" transform="translate(125.565 28)" fill="#81b722" font-size="29" font-family="Montserrat-Bold, Montserrat" font-weight="700"><tspan x="-8.686" y="0">+</tspan></text>
        <ellipse id="Elipse_1" data-name="Elipse 1" cx="6" cy="5.5" rx="6" ry="5.5" transform="translate(1 30.788)" fill="#81b722"/>
        <circle id="Elipse_2" data-name="Elipse 2" cx="6" cy="6" r="6" transform="translate(38.028 158.602)" fill="#81b722"/>
        <ellipse id="Elipse_5" data-name="Elipse 5" cx="5.5" cy="6" rx="5.5" ry="6" transform="translate(143.824 152.602)" fill="#81b722"/>
        <ellipse id="Elipse_6" data-name="Elipse 6" cx="15" cy="14.5" rx="15" ry="14.5" transform="translate(56.107 15)" fill="#fdb32b" opacity="0.1"/>
        <ellipse id="Elipse_7" data-name="Elipse 7" cx="14.5" cy="15" rx="14.5" ry="15" transform="translate(141.445 104.56)" fill="#fdb32b" opacity="0.1"/>
        <circle id="Elipse_11" data-name="Elipse 11" cx="10.5" cy="10.5" r="10.5" transform="translate(164.445 3)" fill="#fdb32b" opacity="0.1"/>
        <circle id="Elipse_12" data-name="Elipse 12" cx="10.5" cy="10.5" r="10.5" transform="translate(0 162.602)" fill="#fdb32b" opacity="0.1"/>
        <circle id="Elipse_8" data-name="Elipse 8" cx="15" cy="15" r="15" transform="translate(51.508 143.602)" fill="#fdb32b" opacity="0.1"/>
        <g id="Trazado_267750" data-name="Trazado 267750" transform="translate(138.257 99.79)" fill="none">
          <path d="M5.5,0A5.766,5.766,0,0,1,11,6a5.766,5.766,0,0,1-5.5,6A5.766,5.766,0,0,1,0,6,5.766,5.766,0,0,1,5.5,0Z" stroke="none"/>
          <path d="M 5.5 2 C 3.570089817047119 2 2 3.794389724731445 2 6 C 2 8.205610275268555 3.570089817047119 10 5.5 10 C 7.429909706115723 10 9 8.205610275268555 9 6 C 9 3.794389724731445 7.429909706115723 2 5.5 2 M 5.5 0 C 8.537569999694824 0 11 2.68628978729248 11 6 C 11 9.31371021270752 8.537569999694824 12 5.5 12 C 2.462430000305176 12 0 9.31371021270752 0 6 C 0 2.68628978729248 2.462430000305176 0 5.5 0 Z" stroke="none" fill="#fdb32b"/>
        </g>
        <g id="Elipse_4" data-name="Elipse 4" transform="translate(10 71.812)" fill="none" stroke="#fdb32b" stroke-width="2">
          <circle cx="6" cy="6" r="6" stroke="none"/>
          <circle cx="6" cy="6" r="5" fill="none"/>
        </g>
      </g>
      <g id="Grupo_4" data-name="Grupo 4" transform="translate(75.638 66.484)">
        <path id="Icon_awesome-hand-point-right" data-name="Icon awesome-hand-point-right" d="M91.4,23.54a7.825,7.825,0,0,1-7.774,7.605H66.3a8.536,8.536,0,0,1-1.093,12.311,7.949,7.949,0,0,1-2.855,10.814c1.557,8.528-3.808,12.367-12.6,12.367-.477,0-2.3-.035-2.777-.034-10.754.029-13.344-5.391-21.472-6.649a4.16,4.16,0,0,1-3.517-4.113V26.076h0a8.33,8.33,0,0,1,4.939-7.609c5.013-2.255,16.557-8.51,18.661-13.418C46.941,1.891,49.3,0,52.529,0a8.335,8.335,0,0,1,7.656,11.611,23.586,23.586,0,0,1-2.456,4.324h25.9A7.951,7.951,0,0,1,91.4,23.54Zm-74.741.06V56.919a4.165,4.165,0,0,1-4.165,4.165H4.165A4.165,4.165,0,0,1,0,56.919V23.6a4.165,4.165,0,0,1,4.165-4.165h8.33A4.165,4.165,0,0,1,16.659,23.6ZM11.8,52.755A3.471,3.471,0,1,0,8.33,56.225,3.471,3.471,0,0,0,11.8,52.755Z" transform="translate(0 92.038) rotate(-90)" fill="#fff"/>
        <path id="Icon_awesome-hand-point-right-2" data-name="Icon awesome-hand-point-right" d="M91.4,23.54a7.825,7.825,0,0,1-7.774,7.605H66.3a8.536,8.536,0,0,1-1.093,12.311,7.949,7.949,0,0,1-2.855,10.814c1.557,8.528-3.808,12.367-12.6,12.367-.477,0-2.3-.035-2.777-.034-10.754.029-13.344-5.391-21.472-6.649a4.16,4.16,0,0,1-3.517-4.113V26.076h0a8.33,8.33,0,0,1,4.939-7.609c5.013-2.255,16.557-8.51,18.661-13.418C46.941,1.891,49.3,0,52.529,0a8.335,8.335,0,0,1,7.656,11.611,23.586,23.586,0,0,1-2.456,4.324h25.9A7.951,7.951,0,0,1,91.4,23.54Zm-74.741.06V56.919a4.165,4.165,0,0,1-4.165,4.165H4.165A4.165,4.165,0,0,1,0,56.919V23.6a4.165,4.165,0,0,1,4.165-4.165h8.33A4.165,4.165,0,0,1,16.659,23.6ZM11.8,52.755A3.471,3.471,0,1,0,8.33,56.225,3.471,3.471,0,0,0,11.8,52.755Z" transform="translate(0.638 91.401) rotate(-90)" fill="none" stroke="#404040" stroke-width="3"/>
      </g>
      <g id="Grupo_7" data-name="Grupo 7" transform="translate(36.351 31.093)">
        <g id="Grupo_5" data-name="Grupo 5" transform="translate(77)">
          <g id="Trazado_267751" data-name="Trazado 267751" fill="#fff">
            <path d="M 25.5 49.5 C 22.25935935974121 49.5 19.1164493560791 48.86565017700195 16.1585807800293 47.61457824707031 C 13.30084991455078 46.40586090087891 10.73404026031494 44.6751594543457 8.529439926147461 42.47055816650391 C 6.324840068817139 40.26596069335938 4.59414005279541 37.69915008544922 3.385420083999634 34.8414192199707 C 2.134350061416626 31.8835506439209 1.5 28.74064064025879 1.5 25.5 C 1.5 22.25935935974121 2.134350061416626 19.1164493560791 3.385420083999634 16.1585807800293 C 4.59414005279541 13.30084991455078 6.324840068817139 10.73404026031494 8.529439926147461 8.529439926147461 C 10.73404026031494 6.324840068817139 13.30084991455078 4.59414005279541 16.1585807800293 3.385420083999634 C 19.1164493560791 2.134350061416626 22.25935935974121 1.5 25.5 1.5 C 28.74064064025879 1.5 31.8835506439209 2.134350061416626 34.8414192199707 3.385420083999634 C 37.69915008544922 4.59414005279541 40.26596069335938 6.324840068817139 42.47055816650391 8.529439926147461 C 44.6751594543457 10.73404026031494 46.40586090087891 13.30084991455078 47.61457824707031 16.1585807800293 C 48.86565017700195 19.1164493560791 49.5 22.25935935974121 49.5 25.5 C 49.5 28.74064064025879 48.86565017700195 31.8835506439209 47.61457824707031 34.8414192199707 C 46.40586090087891 37.69915008544922 44.6751594543457 40.26596069335938 42.47055816650391 42.47055816650391 C 40.26596069335938 44.6751594543457 37.69915008544922 46.40586090087891 34.8414192199707 47.61457824707031 C 31.8835506439209 48.86565017700195 28.74064064025879 49.5 25.5 49.5 Z" stroke="none"/>
            <path d="M 25.5 3 C 22.46120071411133 3 19.51489067077637 3.594478607177734 16.7429084777832 4.766929626464844 C 14.06398010253906 5.900020599365234 11.65742874145508 7.522769927978516 9.590099334716797 9.590099334716797 C 7.522769927978516 11.65742874145508 5.900020599365234 14.06398010253906 4.766929626464844 16.7429084777832 C 3.594478607177734 19.51489067077637 3 22.46120071411133 3 25.5 C 3 28.53879928588867 3.594478607177734 31.48510932922363 4.766929626464844 34.25708770751953 C 5.900020599365234 36.93601989746094 7.522769927978516 39.34257125854492 9.590099334716797 41.4099006652832 C 11.65742874145508 43.47723007202148 14.06398010253906 45.09997940063477 16.7429084777832 46.23307037353516 C 19.51489067077637 47.40552139282227 22.46120071411133 48 25.5 48 C 28.53879928588867 48 31.48510932922363 47.40552139282227 34.25708770751953 46.23307037353516 C 36.93601989746094 45.09997940063477 39.34257125854492 43.47723007202148 41.4099006652832 41.4099006652832 C 43.47723007202148 39.34257125854492 45.09997940063477 36.93601989746094 46.23307037353516 34.25708770751953 C 47.40552139282227 31.48510932922363 48 28.53879928588867 48 25.5 C 48 22.46120071411133 47.40552139282227 19.51489067077637 46.23307037353516 16.7429084777832 C 45.09997940063477 14.06398010253906 43.47723007202148 11.65742874145508 41.4099006652832 9.590099334716797 C 39.34257125854492 7.522769927978516 36.93601989746094 5.900020599365234 34.25708770751953 4.766929626464844 C 31.48510932922363 3.594478607177734 28.53879928588867 3 25.5 3 M 25.5 0 C 39.58325958251953 0 51 11.41674041748047 51 25.5 C 51 39.58325958251953 39.58325958251953 51 25.5 51 C 11.41674041748047 51 0 39.58325958251953 0 25.5 C 0 11.41674041748047 11.41674041748047 0 25.5 0 Z" stroke="none" fill="#f4522b"/>
          </g>
          <path id="Trazado_23" data-name="Trazado 23" d="M14.137-14,5.8,5.463H.374L-7.94-14h5.95L3.293-1.321,8.687-14Z" transform="translate(22.745 29.585)" fill="#f4522b"/>
        </g>
        <g id="Grupo_6" data-name="Grupo 6">
          <g id="Elipse_9" data-name="Elipse 9" fill="#fff" stroke="#169788" stroke-width="3">
            <circle cx="25.5" cy="25.5" r="25.5" stroke="none"/>
            <circle cx="25.5" cy="25.5" r="24" fill="none"/>
          </g>
          <path id="Trazado_22" data-name="Trazado 22" d="M.485-9.746v4.282H9.077V-1.21H.485V5.463H-5.02V-14H10.245v4.254Z" transform="translate(23.142 29.585)" fill="#169788"/>
        </g>
      </g>
    </g>
  </g>
</svg>
