<svg xmlns="http://www.w3.org/2000/svg" width="505" height="537.291" viewBox="0 0 505 537.291">
  <g id="Grupo_874276" data-name="Grupo 874276" transform="translate(-810 -2782)">
    <rect id="Rectángulo_44257" data-name="Rectángulo 44257" width="505" height="537.291" transform="translate(810 2782)" fill="#fee5df"/>
    <g id="Grupo_146172" data-name="Grupo 146172" transform="translate(802.036 2730.945)">
      <g id="Grupo_146171" data-name="Grupo 146171" transform="translate(129.964 144.055)">
        <g id="Grupo_146140" data-name="Grupo 146140">
          <path id="Trazado_254402" data-name="Trazado 254402" d="M203.819,402.3s4.436-4.889,21.367,1.777c11.566,3.35,19.507,1.729,26.124-6.7s7.524-13.843,5.127-22.261c-2.432-8.43-2.933-14.737-4.317-61.752-1.347-47.014,1.312-71.481-13.462-81.819-14.737-10.314-48.362-11.816-73.64-16.872s-45.834-32.36-28.652-54.92c17.194-22.583,53.227-17.587,75.845-4.483,22.607,13.08,29.022,33.076,32.361,46.657-.727-16.908,2.122-27.853,4.984-27.853s4.77,22.607,11.184,31.395c13.33-25.445,47.146-71.112,110.352-57.567,19.543,7.834,26.768,22.869,9.026,44.546-17.778,21.665-38.525,26.792-68.31,27.973-29.809,1.216-43.354,7.238-44.546,13.259s-4.078,41.232-3.172,72.364.775,53.119,8.573,75.691c4.114,11.458,6.546,14.225,15.31,14.225s18.386,1.812,22.953,6.26,10.648,20.735,10.779,28.438c-2.933-10.064-5.974-21.892-15.226-26.446s-10.755-5.258-18.124-5.6-9.587,0-13.342-6.9c.119,14.737,4.829,26.291,9.694,36.379,4.424,9.169,4.984,10.433,5.89,14.833.739,2.373,17.885,5.091,21.534,22.082-3.827-7.845-12.949-16.621-19.709-17.9,2,13.152-.727,17.158-.727,17.158s-.191-17.516-8.215-28.461c-8.025-10.97-10.052-17.337-10.052-17.337a54.917,54.917,0,0,1-7.285,18.422c-5.664,8.764-6.57,10.767-2.564,20.079s6.57,13.14,6.76,21.534c-2.552-8.025-4.757-17.694-10.946-24.646-2.754-1.991-8.943,7.13-8.764,11.888.191,4.734,1.646,14.4,4.758,19.507-6.594-4.925-10.791-12.031-8.227-24.264s3.47-12.961,8.037-21.534,12.77-19.9,5.652-49.1c-5.115,11.494-17.325,18.982-28.64,19.161-4.578,1.1-4.209,3.291-3.482,6.749.727,3.482,1.455,11.876-2.385,18.088,2.563-8.954,1.836-21.355-.906-21.355s-16.049,6.749-21.355,17.695c4.567-12.77,13.319-17.885,24.646-21.915,4.185-1.455-1.824-3.816-8.2-4.734C214.121,403.126,211.76,399.847,203.819,402.3Z" transform="translate(-129.15 -143.241)" fill="#ebd9b3"/>
          <path id="Trazado_254403" data-name="Trazado 254403" d="M256.2,486.976a.926.926,0,0,1-.56-.179c-8.132-6.117-10.85-14.118-8.549-25.182,2.277-10.958,3.3-12.866,6.689-19.137l1.419-2.659c.37-.668.739-1.359,1.133-2.075,4.471-8.1,10.54-19.09,5.008-43.926-5.58,10.159-16.884,17.23-28.318,17.42-3.6.87-3.315,2.266-2.587,5.64.227,1.133,2.17,11.184-2.5,18.756a.876.876,0,0,1-1.121.334.9.9,0,0,1-.513-1.073c2.075-7.226,1.9-17.1.322-19.781-.227-.37-.37-.417-.37-.417-2.444,0-15.441,6.653-20.544,17.182a.891.891,0,0,1-1.646-.68c4.579-12.842,13.39-18.279,25.171-22.452a5.557,5.557,0,0,0,.727-.322c-.668-.668-3.78-1.979-8.764-2.683a30.679,30.679,0,0,1-5.485-1.407,17.32,17.32,0,0,0-5.795-1.2,17.067,17.067,0,0,0-5.02.847.9.9,0,0,1-.93-1.467c.179-.2,1.979-2.027,7.071-2.027,4.125,0,9.276,1.216,15.3,3.577,11.494,3.3,18.839,1.526,25.075-6.427,6.26-7.929,7.393-12.937,4.972-21.462-2.516-8.74-3-15.7-4.328-61.955-.227-8.1-.346-15.536-.465-22.333-.513-32.551-.775-50.484-12.627-58.783-10.266-7.178-30.3-10.087-49.673-12.9-7.989-1.145-16.228-2.337-23.632-3.827-15.155-3.029-28.664-13.927-33.66-27.1-3.816-10.075-2.218-20.461,4.471-29.249,10.052-13.211,25.29-15.966,36.3-15.966A83.894,83.894,0,0,1,213.468,155.3c18.744,10.85,26.673,26.506,30.918,40.373.191-10.159,1.753-18.279,4.173-20.795a2.518,2.518,0,0,1,1.812-.894c1.932,0,2.778,3.184,4.638,11.041,1.574,6.558,3.505,14.583,6.462,19.507,27.543-51.438,66.939-59.165,88.115-59.165a108.417,108.417,0,0,1,22.5,2.456c10.731,4.269,17.337,10.481,19.268,17.993,2.075,8.156-1.18,17.575-9.729,28.008-18.1,22.094-39,27.114-68.978,28.318-30.644,1.24-42.686,7.512-43.688,12.52-1.133,5.7-4.078,40.373-3.148,72.173l.239,8.37c.715,27.114,1.228,46.693,8.287,67.046,4.09,11.447,6.391,13.629,14.451,13.629,10.576,0,19.388,2.444,23.585,6.522C317,406.909,323.3,423.471,323.4,431.46a.895.895,0,0,1-1.753.274l-.405-1.4c-2.754-9.515-5.866-20.33-14.332-24.5-9.1-4.483-10.493-5.175-17.79-5.521l-1.3-.072c-5.33-.215-8.048-.334-10.982-4.376.751,12.842,4.96,23.251,9.491,32.623,4.424,9.145,5.02,10.481,5.962,15.047a24.6,24.6,0,0,0,3.04,1.622c5.509,2.647,15.727,7.571,18.505,20.449a.915.915,0,0,1-.584,1.049.9.9,0,0,1-1.109-.453c-3.637-7.428-11.792-15.143-17.826-17.074,1.657,12.281-.954,16.287-1.061,16.466a.93.93,0,0,1-1.013.346.967.967,0,0,1-.656-.87c0-.155-.262-17.361-8.025-27.937a86.362,86.362,0,0,1-9.05-14.845,56.237,56.237,0,0,1-6.785,15.894c-5.556,8.573-6.367,10.254-2.5,19.233.751,1.717,1.443,3.267,2.075,4.674,2.778,6.141,4.591,10.195,4.757,17.206a.9.9,0,0,1-.751.906.91.91,0,0,1-1.013-.62c-.381-1.216-.763-2.468-1.145-3.732-2.11-6.963-4.483-14.833-9.622-20.58l-.215.012a4.369,4.369,0,0,0-2.421,1.574c-2.528,2.623-4.65,7.118-4.555,9.646.2,5.079,1.765,14.4,4.614,19.1a.86.86,0,0,1-.155,1.121A.811.811,0,0,1,256.2,486.976Zm5.461-96.724.083.012a.875.875,0,0,1,.8.68c6.654,27.257.131,39.049-4.626,47.682-.382.692-.763,1.4-1.109,2.051l-1.455,2.659c-3.35,6.26-4.257,7.917-6.5,18.648-1.812,8.68-.322,15.334,4.71,20.592a59.339,59.339,0,0,1-3.029-16.013c-.143-3.386,2.516-8.334,5.056-10.946,1.979-2.075,3.851-2.635,5.151-1.669a31.607,31.607,0,0,1,2.277,2.9c-3.541-8.68-2.218-11.292,3.172-19.626a55.024,55.024,0,0,0,7.19-18.112.912.912,0,0,1,.811-.751.953.953,0,0,1,.93.632c.024.072,2.075,6.415,9.9,17.086,5.258,7.166,7.226,16.907,7.953,23.072a50.749,50.749,0,0,0-.632-11.1.962.962,0,0,1,.25-.775.927.927,0,0,1,.811-.238c5,.942,10.874,5.556,15.286,10.791-4.078-6.188-10.314-9.193-14.129-11.053-2.385-1.145-3.708-1.776-4.006-2.778-.942-4.436-1.514-5.747-5.855-14.7-5.008-10.385-9.658-22-9.765-36.772a.883.883,0,0,1,.668-.882.905.905,0,0,1,1.026.441c3.255,6.021,4.96,6.093,11.268,6.379l1.324.06c7.667.37,9.324,1.18,18.493,5.711a21.253,21.253,0,0,1,8.776,8.573c-1.741-4.042-3.7-7.488-5.377-9.109-4.543-4.436-14.523-6.021-22.321-6.021-9.432,0-12.055-3.327-16.145-14.809-7.154-20.628-7.667-40.337-8.394-67.594l-.25-8.382c-.906-31.931,2.051-66.831,3.2-72.578,1.526-7.667,18.481-12.877,45.381-13.962,29.463-1.192,49.983-6.093,67.654-27.663,8.156-9.944,11.315-18.839,9.36-26.4-1.777-6.928-8.013-12.711-18.016-16.717a106.7,106.7,0,0,0-21.987-2.408c-20.938,0-60.106,7.75-87.232,59.558a.826.826,0,0,1-.715.489.915.915,0,0,1-.811-.37c-3.637-5.008-5.819-14.07-7.56-21.379-.978-4.078-2.194-9.169-3.029-9.694l-.381.346c-2.182,2.289-4.161,12.377-3.577,26.59a.9.9,0,0,1-.775.93.924.924,0,0,1-1-.68c-3.673-14.976-10.612-33.744-31.931-46.073a82.006,82.006,0,0,0-39.813-11.029c-10.6,0-25.254,2.647-34.864,15.25-8.06,10.624-6.761,20.83-4.221,27.531,4.781,12.639,17.778,23.072,32.325,25.981,7.357,1.467,15.584,2.659,23.549,3.816,19.578,2.826,39.837,5.771,50.448,13.2,12.591,8.823,12.877,27.078,13.39,60.226.107,6.808.226,14.225.465,22.3,1.4,48.064,1.908,53.358,4.257,61.525,2.6,9.086,1.312,14.7-5.282,23.084-5.711,7.273-12.377,9.8-21.832,8.227a2.225,2.225,0,0,1,.847,1.335c.083.918-.584,1.633-2,2.134-7.273,2.563-13.164,5.485-17.611,10.314,5.616-4.972,11.828-7.869,14.022-7.869a2.052,2.052,0,0,1,1.681.93c.083.119.179.262.262.406-.06-2.1.811-3.875,4.6-4.781,11.614-.215,23.334-8.048,28.056-18.66A.863.863,0,0,1,261.663,390.252Z" transform="translate(-129.964 -144.055)" fill="#bd7a43"/>
        </g>
        <g id="Grupo_146141" data-name="Grupo 146141">
          <path id="Trazado_254404" data-name="Trazado 254404" d="M203.819,402.3s4.436-4.889,21.367,1.777c11.566,3.35,19.507,1.729,26.124-6.7s7.524-13.843,5.127-22.261c-2.432-8.43-2.933-14.737-4.317-61.752-1.347-47.014,1.312-71.481-13.462-81.819-14.737-10.314-48.362-11.816-73.64-16.872s-45.834-32.36-28.652-54.92c17.194-22.583,53.227-17.587,75.845-4.483,22.607,13.08,29.022,33.076,32.361,46.657-.727-16.908,2.122-27.853,4.984-27.853s4.77,22.607,11.184,31.395c13.33-25.445,47.146-71.112,110.352-57.567,19.543,7.834,26.768,22.869,9.026,44.546-17.778,21.665-38.525,26.792-68.31,27.973-29.809,1.216-43.354,7.238-44.546,13.259s-4.078,41.232-3.172,72.364.775,53.119,8.573,75.691c4.114,11.458,6.546,14.225,15.31,14.225s18.386,1.812,22.953,6.26,10.648,20.735,10.779,28.438c-2.933-10.064-5.974-21.892-15.226-26.446s-10.755-5.258-18.124-5.6-9.587,0-13.342-6.9c.119,14.737,4.829,26.291,9.694,36.379,4.424,9.169,4.984,10.433,5.89,14.833.739,2.373,17.885,5.091,21.534,22.082-3.827-7.845-12.949-16.621-19.709-17.9,2,13.152-.727,17.158-.727,17.158s-.191-17.516-8.215-28.461c-8.025-10.97-10.052-17.337-10.052-17.337a54.917,54.917,0,0,1-7.285,18.422c-5.664,8.764-6.57,10.767-2.564,20.079s6.57,13.14,6.76,21.534c-2.552-8.025-4.757-17.694-10.946-24.646-2.754-1.991-8.943,7.13-8.764,11.888.191,4.734,1.646,14.4,4.758,19.507-6.594-4.925-10.791-12.031-8.227-24.264s3.47-12.961,8.037-21.534,12.77-19.9,5.652-49.1c-5.115,11.494-17.325,18.982-28.64,19.161-4.578,1.1-4.209,3.291-3.482,6.749.727,3.482,1.455,11.876-2.385,18.088,2.563-8.954,1.836-21.355-.906-21.355s-16.049,6.749-21.355,17.695c4.567-12.77,13.319-17.885,24.646-21.915,4.185-1.455-1.824-3.816-8.2-4.734C214.121,403.126,211.76,399.847,203.819,402.3Z" transform="translate(-129.15 -143.241)" fill="#ebd9b3"/>
          <path id="Trazado_254405" data-name="Trazado 254405" d="M256.2,486.976a.926.926,0,0,1-.56-.179c-8.132-6.117-10.85-14.118-8.549-25.182,2.277-10.958,3.3-12.866,6.689-19.137l1.419-2.659c.37-.668.739-1.359,1.133-2.075,4.471-8.1,10.54-19.09,5.008-43.926-5.58,10.159-16.884,17.23-28.318,17.42-3.6.87-3.315,2.266-2.587,5.64.227,1.133,2.17,11.184-2.5,18.756a.876.876,0,0,1-1.121.334.9.9,0,0,1-.513-1.073c2.075-7.226,1.9-17.1.322-19.781-.227-.37-.37-.417-.37-.417-2.444,0-15.441,6.653-20.544,17.182a.891.891,0,0,1-1.646-.68c4.579-12.842,13.39-18.279,25.171-22.452a5.557,5.557,0,0,0,.727-.322c-.668-.668-3.78-1.979-8.764-2.683a30.679,30.679,0,0,1-5.485-1.407,17.32,17.32,0,0,0-5.795-1.2,17.067,17.067,0,0,0-5.02.847.9.9,0,0,1-.93-1.467c.179-.2,1.979-2.027,7.071-2.027,4.125,0,9.276,1.216,15.3,3.577,11.494,3.3,18.839,1.526,25.075-6.427,6.26-7.929,7.393-12.937,4.972-21.462-2.516-8.74-3-15.7-4.328-61.955-.227-8.1-.346-15.536-.465-22.333-.513-32.551-.775-50.484-12.627-58.783-10.266-7.178-30.3-10.087-49.673-12.9-7.989-1.145-16.228-2.337-23.632-3.827-15.155-3.029-28.664-13.927-33.66-27.1-3.816-10.075-2.218-20.461,4.471-29.249,10.052-13.211,25.29-15.966,36.3-15.966A83.894,83.894,0,0,1,213.468,155.3c18.744,10.85,26.673,26.506,30.918,40.373.191-10.159,1.753-18.279,4.173-20.795a2.518,2.518,0,0,1,1.812-.894c1.932,0,2.778,3.184,4.638,11.041,1.574,6.558,3.505,14.583,6.462,19.507,27.543-51.438,66.939-59.165,88.115-59.165a108.417,108.417,0,0,1,22.5,2.456c10.731,4.269,17.337,10.481,19.268,17.993,2.075,8.156-1.18,17.575-9.729,28.008-18.1,22.094-39,27.114-68.978,28.318-30.644,1.24-42.686,7.512-43.688,12.52-1.133,5.7-4.078,40.373-3.148,72.173l.239,8.37c.715,27.114,1.228,46.693,8.287,67.046,4.09,11.447,6.391,13.629,14.451,13.629,10.576,0,19.388,2.444,23.585,6.522C317,406.909,323.3,423.471,323.4,431.46a.895.895,0,0,1-1.753.274l-.405-1.4c-2.754-9.515-5.866-20.33-14.332-24.5-9.1-4.483-10.493-5.175-17.79-5.521l-1.3-.072c-5.33-.215-8.048-.334-10.982-4.376.751,12.842,4.96,23.251,9.491,32.623,4.424,9.145,5.02,10.481,5.962,15.047a24.6,24.6,0,0,0,3.04,1.622c5.509,2.647,15.727,7.571,18.505,20.449a.915.915,0,0,1-.584,1.049.9.9,0,0,1-1.109-.453c-3.637-7.428-11.792-15.143-17.826-17.074,1.657,12.281-.954,16.287-1.061,16.466a.93.93,0,0,1-1.013.346.967.967,0,0,1-.656-.87c0-.155-.262-17.361-8.025-27.937a86.362,86.362,0,0,1-9.05-14.845,56.237,56.237,0,0,1-6.785,15.894c-5.556,8.573-6.367,10.254-2.5,19.233.751,1.717,1.443,3.267,2.075,4.674,2.778,6.141,4.591,10.195,4.757,17.206a.9.9,0,0,1-.751.906.91.91,0,0,1-1.013-.62c-.381-1.216-.763-2.468-1.145-3.732-2.11-6.963-4.483-14.833-9.622-20.58l-.215.012a4.369,4.369,0,0,0-2.421,1.574c-2.528,2.623-4.65,7.118-4.555,9.646.2,5.079,1.765,14.4,4.614,19.1a.86.86,0,0,1-.155,1.121A.811.811,0,0,1,256.2,486.976Zm5.461-96.724.083.012a.875.875,0,0,1,.8.68c6.654,27.257.131,39.049-4.626,47.682-.382.692-.763,1.4-1.109,2.051l-1.455,2.659c-3.35,6.26-4.257,7.917-6.5,18.648-1.812,8.68-.322,15.334,4.71,20.592a59.339,59.339,0,0,1-3.029-16.013c-.143-3.386,2.516-8.334,5.056-10.946,1.979-2.075,3.851-2.635,5.151-1.669a31.607,31.607,0,0,1,2.277,2.9c-3.541-8.68-2.218-11.292,3.172-19.626a55.024,55.024,0,0,0,7.19-18.112.912.912,0,0,1,.811-.751.953.953,0,0,1,.93.632c.024.072,2.075,6.415,9.9,17.086,5.258,7.166,7.226,16.907,7.953,23.072a50.749,50.749,0,0,0-.632-11.1.962.962,0,0,1,.25-.775.927.927,0,0,1,.811-.238c5,.942,10.874,5.556,15.286,10.791-4.078-6.188-10.314-9.193-14.129-11.053-2.385-1.145-3.708-1.776-4.006-2.778-.942-4.436-1.514-5.747-5.855-14.7-5.008-10.385-9.658-22-9.765-36.772a.883.883,0,0,1,.668-.882.905.905,0,0,1,1.026.441c3.255,6.021,4.96,6.093,11.268,6.379l1.324.06c7.667.37,9.324,1.18,18.493,5.711a21.253,21.253,0,0,1,8.776,8.573c-1.741-4.042-3.7-7.488-5.377-9.109-4.543-4.436-14.523-6.021-22.321-6.021-9.432,0-12.055-3.327-16.145-14.809-7.154-20.628-7.667-40.337-8.394-67.594l-.25-8.382c-.906-31.931,2.051-66.831,3.2-72.578,1.526-7.667,18.481-12.877,45.381-13.962,29.463-1.192,49.983-6.093,67.654-27.663,8.156-9.944,11.315-18.839,9.36-26.4-1.777-6.928-8.013-12.711-18.016-16.717a106.7,106.7,0,0,0-21.987-2.408c-20.938,0-60.106,7.75-87.232,59.558a.826.826,0,0,1-.715.489.915.915,0,0,1-.811-.37c-3.637-5.008-5.819-14.07-7.56-21.379-.978-4.078-2.194-9.169-3.029-9.694l-.381.346c-2.182,2.289-4.161,12.377-3.577,26.59a.9.9,0,0,1-.775.93.924.924,0,0,1-1-.68c-3.673-14.976-10.612-33.744-31.931-46.073a82.006,82.006,0,0,0-39.813-11.029c-10.6,0-25.254,2.647-34.864,15.25-8.06,10.624-6.761,20.83-4.221,27.531,4.781,12.639,17.778,23.072,32.325,25.981,7.357,1.467,15.584,2.659,23.549,3.816,19.578,2.826,39.837,5.771,50.448,13.2,12.591,8.823,12.877,27.078,13.39,60.226.107,6.808.226,14.225.465,22.3,1.4,48.064,1.908,53.358,4.257,61.525,2.6,9.086,1.312,14.7-5.282,23.084-5.711,7.273-12.377,9.8-21.832,8.227a2.225,2.225,0,0,1,.847,1.335c.083.918-.584,1.633-2,2.134-7.273,2.563-13.164,5.485-17.611,10.314,5.616-4.972,11.828-7.869,14.022-7.869a2.052,2.052,0,0,1,1.681.93c.083.119.179.262.262.406-.06-2.1.811-3.875,4.6-4.781,11.614-.215,23.334-8.048,28.056-18.66A.863.863,0,0,1,261.663,390.252Z" transform="translate(-129.964 -144.055)" fill="#bd7a43"/>
        </g>
        <g id="Grupo_146143" data-name="Grupo 146143" transform="translate(121.361 141.127)" style="mix-blend-mode: multiply;isolation: isolate">
          <g id="Grupo_146142" data-name="Grupo 146142">
            <path id="Trazado_254406" data-name="Trazado 254406" d="M153.271,241.669c9.491,30.238,8.6,48.755-.894,64.1-8.335,13.509-17.015,30.858-9.145,47.134a58.94,58.94,0,0,1-2.969-15.644c-.179-4.757,6.01-13.879,8.764-11.888,6.188,6.952,8.394,16.621,10.946,24.646-.191-8.394-2.742-12.222-6.76-21.534s-3.1-11.315,2.564-20.079a54.917,54.917,0,0,0,7.285-18.422s2.027,6.367,10.052,17.337c8.025,10.946,8.215,28.461,8.215,28.461s2.73-4.006.727-17.158c6.761,1.276,15.882,10.052,19.709,17.9-3.649-16.991-20.795-19.71-21.534-22.082-.906-4.4-1.467-5.664-5.89-14.833-4.865-10.087-9.575-21.641-9.694-36.379,3.756,6.9,5.962,6.546,13.342,6.9s8.883,1.049,18.124,5.6,12.293,16.383,15.226,26.446c-.131-7.7-6.212-23.978-10.779-28.438s-14.2-6.26-22.953-6.26-11.2-2.766-15.31-14.225c-7.8-22.571-7.667-44.546-8.573-75.691-.2-7.154-.2-14.511-.084-21.677l-4.781,2.241S144.7,201.5,153.271,241.669Z" transform="translate(-140.142 -155.891)" fill="#ebd9b3"/>
          </g>
        </g>
        <g id="Grupo_146145" data-name="Grupo 146145">
          <g id="Grupo_146144" data-name="Grupo 146144">
            <path id="Trazado_254407" data-name="Trazado 254407" d="M371.095,147.9c-60.894-16.252-97.022,32.122-110.352,57.567-6.415-8.788-8.311-31.395-11.184-31.395s-5.711,10.946-4.984,27.853c-3.339-13.581-9.753-33.577-32.361-46.657-22.619-13.1-58.652-18.1-75.845,4.483-17.182,22.559,3.374,49.864,28.652,54.92s58.9,6.558,73.64,16.872c12.138,8.49,12.508,26.578,13.009,58.854a15.13,15.13,0,0,0,12.269-.215c.179-26.268,2.325-51.5,3.327-56.506,1.192-6.021,14.738-12.043,44.546-13.259,29.785-1.18,50.532-6.308,68.31-27.973C397.863,170.772,390.649,154.1,371.095,147.9Z" transform="translate(-129.15 -143.241)" fill="#c4d772"/>
            <path id="Trazado_254408" data-name="Trazado 254408" d="M258.48,293.326h0a17.272,17.272,0,0,1-6.331-1.264.893.893,0,0,1-.56-.835c-.489-31.073-.775-49.828-12.627-58.127-10.266-7.178-30.3-10.087-49.673-12.9-7.989-1.145-16.228-2.337-23.632-3.827-15.155-3.029-28.664-13.927-33.66-27.1-3.816-10.075-2.218-20.461,4.471-29.249,10.052-13.211,25.29-15.966,36.3-15.966A83.894,83.894,0,0,1,213.468,155.3c18.744,10.85,26.673,26.506,30.918,40.373.191-10.159,1.753-18.279,4.173-20.795a2.518,2.518,0,0,1,1.812-.894c1.932,0,2.778,3.184,4.638,11.041,1.574,6.558,3.505,14.594,6.462,19.507,8.514-15.739,36.856-59.975,86.493-59.975a94.093,94.093,0,0,1,24.157,3.291c10.04,3.184,16.776,9.062,19.006,16.562,2.54,8.549-.74,18.732-9.5,29.416-18.1,22.094-39,27.114-68.978,28.318-30.644,1.24-42.686,7.512-43.688,12.52-.906,4.531-3.124,29.177-3.3,56.351a.948.948,0,0,1-.513.811A15.753,15.753,0,0,1,258.48,293.326Zm-5.1-2.731a14.75,14.75,0,0,0,5.1.918h0a13.7,13.7,0,0,0,5.377-1.109c.2-25.457,2.266-50.734,3.339-56.1,1.526-7.667,18.481-12.877,45.381-13.962,29.463-1.192,49.983-6.093,67.654-27.663,8.358-10.207,11.53-19.793,9.157-27.746-2.027-6.916-8.358-12.365-17.754-15.346a91.7,91.7,0,0,0-23.668-3.243c-50.1,0-78.194,46.216-85.611,60.369a.826.826,0,0,1-.715.489.915.915,0,0,1-.811-.37c-3.637-5.008-5.819-14.07-7.56-21.379-.978-4.078-2.194-9.169-3.029-9.694l-.381.346c-2.182,2.289-4.161,12.377-3.577,26.59a.9.9,0,0,1-.775.93.924.924,0,0,1-1-.68c-3.673-14.976-10.612-33.744-31.931-46.073a82.006,82.006,0,0,0-39.813-11.029c-10.6,0-25.254,2.647-34.864,15.25-8.06,10.624-6.761,20.83-4.221,27.531,4.781,12.639,17.778,23.072,32.325,25.981,7.357,1.467,15.584,2.659,23.549,3.816,19.578,2.826,39.837,5.771,50.448,13.2C252.518,240.385,252.888,259.308,253.376,290.6Z" transform="translate(-129.964 -144.055)" fill="#559649"/>
          </g>
        </g>
        <g id="Grupo_146146" data-name="Grupo 146146" transform="translate(182.135 258.88)">
          <path id="Trazado_254409" data-name="Trazado 254409" d="M146.387,168.06s15.942,3.589,26.291,16.908c-6.439-11.3-14.368-17.122-27.365-19.125A6.814,6.814,0,0,1,146.387,168.06Z" transform="translate(-144.419 -164.944)" fill="#ebd9b3"/>
          <path id="Trazado_254410" data-name="Trazado 254410" d="M173.5,186.7a.839.839,0,0,1-.692-.358c-10.04-12.9-25.647-16.55-25.8-16.562a.96.96,0,0,1-.68-.668,5.768,5.768,0,0,0-.894-1.9.9.9,0,0,1,.847-1.431c12.949,1.991,21.331,7.845,28.02,19.555a.931.931,0,0,1-.3,1.216A.882.882,0,0,1,173.5,186.7Zm-25.588-18.565a53.636,53.636,0,0,1,18.231,9.1c-4.853-5.008-10.66-7.905-18.327-9.36Z" transform="translate(-145.239 -165.767)" fill="#bd7a43"/>
        </g>
        <g id="Grupo_146147" data-name="Grupo 146147" transform="translate(142.639 284.976)">
          <path id="Trazado_254411" data-name="Trazado 254411" d="M148.183,168.03s1.61,7.381,1.145,10.493c-.441,3.124-10.254,16.49-6.451,26.983.93-11.2,4.734-21.1,7.607-24.562a8.464,8.464,0,0,0,1.729-7.369Z" transform="translate(-141.093 -167.139)" fill="#ebd9b3"/>
          <path id="Trazado_254412" data-name="Trazado 254412" d="M143.71,207.216a.94.94,0,0,1-.859-.6c-2.945-8.144,1.836-17.73,4.674-23.453a20.727,20.727,0,0,0,1.753-3.959c.441-2.909-1.133-10.087-1.145-10.159a.9.9,0,0,1,.513-1.013.95.95,0,0,1,1.121.286l4.018,5.533a1.081,1.081,0,0,1,.143.286,9.445,9.445,0,0,1-1.908,8.2c-2.5,2.993-6.451,12.436-7.416,24.05a.878.878,0,0,1-.775.811Zm1.729-14.845a29.8,29.8,0,0,0-1.514,6.093C144.342,196.306,144.878,194.255,145.438,192.371Zm5.187-19.769a27.328,27.328,0,0,1,.441,6.88,8.887,8.887,0,0,1-.739,2.087l.3-.382a7.525,7.525,0,0,0,1.586-6.415Z" transform="translate(-141.926 -167.955)" fill="#bd7a43"/>
        </g>
        <g id="Grupo_146148" data-name="Grupo 146148" transform="translate(80.712 296.863)">
          <path id="Trazado_254413" data-name="Trazado 254413" d="M178.207,173.392a112.734,112.734,0,0,1-16.693,7.417c-10.767,3.923-20.222,10.159-24.705,19.03,2.742-8.561,8.7-15.977,20.628-20.473,11.924-4.519,21.522-8.3,23.692-10.338A26.439,26.439,0,0,0,178.207,173.392Z" transform="translate(-135.9 -168.125)" fill="#ebd9b3"/>
          <path id="Trazado_254414" data-name="Trazado 254414" d="M137.642,201.572a1.858,1.858,0,0,1-.358-.06.949.949,0,0,1-.513-1.133c3.219-9.992,10.159-16.872,21.176-21.057,10.66-4.03,21.26-8.12,23.394-10.123a.887.887,0,0,1,1.216-.012.906.906,0,0,1,.131,1.216,25.257,25.257,0,0,0-2.8,4.185.967.967,0,0,1-.381.405,110.274,110.274,0,0,1-16.86,7.476c-8.263,3.029-19.173,8.692-24.193,18.613A.954.954,0,0,1,137.642,201.572Zm41.16-28.76c-3.995,1.955-10.707,4.614-20.21,8.2-6.713,2.54-11.84,6.129-15.441,10.862,5.664-5.413,12.925-8.931,18.863-11.1a115.991,115.991,0,0,0,16.359-7.214Q178.5,173.313,178.8,172.813Z" transform="translate(-136.733 -168.952)" fill="#bd7a43"/>
        </g>
        <g id="Grupo_146149" data-name="Grupo 146149" transform="translate(104.848 314.425)">
          <path id="Trazado_254415" data-name="Trazado 254415" d="M150.792,173.756S139.44,185.131,139.25,205.7c-2.11-13.08,4.054-27.5,12.317-35.2A11.2,11.2,0,0,1,150.792,173.756Z" transform="translate(-137.938 -169.596)" fill="#ebd9b3"/>
          <path id="Trazado_254416" data-name="Trazado 254416" d="M140.069,207.434a.906.906,0,0,1-.882-.751c-2.242-13.867,4.638-28.616,12.6-36.021a.882.882,0,0,1,1-.143.929.929,0,0,1,.5.894,12.264,12.264,0,0,1-.858,3.541.736.736,0,0,1-.179.274c-.1.119-11.077,11.363-11.28,31.311a.906.906,0,0,1-.834.894Z" transform="translate(-138.757 -170.425)" fill="#bd7a43"/>
        </g>
        <g id="Grupo_146150" data-name="Grupo 146150" transform="translate(67.166 303.156)">
          <path id="Trazado_254417" data-name="Trazado 254417" d="M167.019,174.733s-8.132-7.536-15.238-.811c-7.071,6.725-7.536,8.12-7.536,8.12s2.647-7.19,7.536-10.207c-6.618-.227-12.424.62-16.109,3.541,5.055-4.889,9.944-6.391,18.052-5.33,2.11.059,8.812-2.48,15.739,3.458Z" transform="translate(-134.774 -168.64)" fill="#ebd9b3"/>
          <path id="Trazado_254418" data-name="Trazado 254418" d="M145.068,183.788l-.2-.012h0l-.012-.012h-.012l-.06-.024h-.024a.9.9,0,0,1-.584-.942h0l.048-.167v-.012h0V182.6l.012-.036h0a27.413,27.413,0,0,1,5.783-9.014c-5.95.072-10.195,1.18-12.961,3.362a.873.873,0,0,1-1.24-.1.934.934,0,0,1,.048-1.252c4.281-4.126,8.525-5.914,14.2-5.914a34.1,34.1,0,0,1,4.591.334,10.794,10.794,0,0,0,1.419-.155,25.273,25.273,0,0,1,3.851-.346,16.312,16.312,0,0,1,10.946,4.173.911.911,0,0,1-.191,1.49l-2.444,1.24a.914.914,0,0,1-1.014-.143c-.036-.036-3.7-3.362-8.024-3.362a8.557,8.557,0,0,0-5.974,2.54c-6.415,6.081-7.25,7.691-7.309,7.8A.9.9,0,0,1,145.068,183.788Zm16.967-12.341a16.288,16.288,0,0,1,5.926,3.04l.644-.322A14.13,14.13,0,0,0,162.035,171.447Zm-11.435.3c.68,0,1.347,0,2.027.036a.883.883,0,0,1,.847.656.732.732,0,0,1,0,.453,11.862,11.862,0,0,1,2.3-1.216,9.151,9.151,0,0,1-1.121.107,39.157,39.157,0,0,0-4.591-.322,18.712,18.712,0,0,0-5.139.644A41.09,41.09,0,0,1,150.6,171.745Z" transform="translate(-135.597 -169.48)" fill="#bd7a43"/>
        </g>
        <g id="Grupo_146151" data-name="Grupo 146151" transform="translate(160.746 254.472)">
          <path id="Trazado_254419" data-name="Trazado 254419" d="M143.521,165.689a14.221,14.221,0,0,1,3.78,8.18c.3,4.71.715,8.37,5.747,13.819s9.968,11.733,9.968,11.733-5.449-6.272-7.87-11.733c-2.4-5.449-3.458-6.486-4.281-11.935-.858-5.449-1.8-8.6-3.78-9.742A4.632,4.632,0,0,0,143.521,165.689Z" transform="translate(-142.615 -164.568)" fill="#ebd9b3"/>
          <path id="Trazado_254420" data-name="Trazado 254420" d="M163.881,201.156h-.036a.852.852,0,0,1-.68-.31s-.99-1.157-2.349-2.9c-1.884-2.3-4.71-5.7-7.6-8.811-5.056-5.473-5.652-9.265-6-14.38a13.418,13.418,0,0,0-3.505-7.607.9.9,0,0,1-.25-.847.936.936,0,0,1,.608-.656,5.746,5.746,0,0,1,1.681-.25,5.188,5.188,0,0,1,2.611.656c2.409,1.383,3.374,4.853,4.209,10.385a23.969,23.969,0,0,0,2.707,8.406c.441.93.942,1.991,1.514,3.315a47.7,47.7,0,0,0,5.437,8.656c1.1,1.347,1.884,2.337,2.17,2.707a.838.838,0,0,1,.37.727A.9.9,0,0,1,163.881,201.156Zm-17.766-33.934a14.374,14.374,0,0,1,2.9,7.4c.286,4.221.536,7.858,5.533,13.271.131.131.226.262.334.37-.465-1.014-.859-1.884-1.228-2.647a26.7,26.7,0,0,1-2.874-8.907c-.715-4.734-1.55-8.084-3.315-9.1A3.619,3.619,0,0,0,146.115,167.221Z" transform="translate(-143.445 -165.397)" fill="#bd7a43"/>
        </g>
        <g id="Grupo_146152" data-name="Grupo 146152" transform="translate(169.956 277.074)">
          <path id="Trazado_254421" data-name="Trazado 254421" d="M146.839,168.429s-2.349,10.791,4.579,24.646c-4.829-5.389-9.157-15.6-6.1-25.707A4.269,4.269,0,0,1,146.839,168.429Z" transform="translate(-143.386 -166.469)" fill="#ebd9b3"/>
          <path id="Trazado_254422" data-name="Trazado 254422" d="M152.249,194.817a.89.89,0,0,1-.68-.31c-5.33-5.974-9.336-16.514-6.308-26.578a.913.913,0,0,1,1.24-.56,4.818,4.818,0,0,1,1.86,1.324.82.82,0,0,1,.179.751c-.024.1-2.146,10.564,4.4,23.847a.933.933,0,0,1,.25.608,1,1,0,0,1-.918.918Zm-5.568-25.171a25.572,25.572,0,0,0,1.085,14.952A37.766,37.766,0,0,1,146.68,169.646Z" transform="translate(-144.217 -167.293)" fill="#bd7a43"/>
        </g>
        <g id="Grupo_146159" data-name="Grupo 146159" transform="translate(70.429 30.513)">
          <g id="Grupo_146157" data-name="Grupo 146157">
            <g id="Grupo_146153" data-name="Grupo 146153" transform="translate(0 11.069)">
              <path id="Trazado_254423" data-name="Trazado 254423" d="M136.236,147.92c-.191.036-.56.644-.239.644,24.777.692,35.091,18.851,45.917,38.179.358.632,1.371-.62,1.145-1.169C174.88,167.224,159.5,144.319,136.236,147.92Z" transform="translate(-135.87 -147.542)" fill="#559649"/>
            </g>
            <g id="Grupo_146154" data-name="Grupo 146154" transform="translate(44.345 21.742)">
              <path id="Trazado_254424" data-name="Trazado 254424" d="M140.109,148.551c-.036-.322-.513.119-.513.334-.167,12.722,2.862,27.162,9.074,38.37.286.548,1.1-.548.954-.99C145.2,173.924,141.265,161.715,140.109,148.551Z" transform="translate(-139.589 -148.438)" fill="#559649"/>
            </g>
            <g id="Grupo_146155" data-name="Grupo 146155" transform="translate(57.67)">
              <path id="Trazado_254425" data-name="Trazado 254425" d="M197.4,146.638c-14.153,5.127-27.663,9.348-38.561,20.318-8.907,9-14.272,21.5-18.076,33.374-.358,1.145,1.013.429,1.24-.227,4.555-12.556,9.765-24.348,19.28-33.97,10.1-10.195,23.644-12.949,36.045-18.875C197.57,147.138,197.832,146.483,197.4,146.638Z" transform="translate(-140.707 -146.614)" fill="#559649"/>
            </g>
            <g id="Grupo_146156" data-name="Grupo 146156" transform="translate(57.811 28.381)">
              <path id="Trazado_254426" data-name="Trazado 254426" d="M145.633,149.146c-3.589,5.5-4.519,12.257-4.912,18.7-.048.882,1.014-.012,1.073-.5.87-6.224,1.323-12.329,4.161-18.076C146.1,148.968,145.788,148.9,145.633,149.146Z" transform="translate(-140.719 -148.994)" fill="#559649"/>
            </g>
          </g>
          <g id="Grupo_146158" data-name="Grupo 146158" transform="translate(59.107 53.411)">
            <path id="Trazado_254427" data-name="Trazado 254427" d="M154.617,151.159a31.029,31.029,0,0,1-5.056,2.79,18.593,18.593,0,0,0-3.815,3.219c-2.385,2.385-4.519,5.64-4.913,9.026-.1.894,1,.06,1.145-.37a20.068,20.068,0,0,1,5.6-9.122c2.158-2.1,5.163-2.945,7.154-5.2C154.855,151.35,154.9,150.933,154.617,151.159Z" transform="translate(-140.827 -151.093)" fill="#559649"/>
          </g>
        </g>
        <g id="Grupo_146161" data-name="Grupo 146161" transform="translate(0.888 0.99)" opacity="0.6" style="mix-blend-mode: multiply;isolation: isolate">
          <g id="Grupo_146160" data-name="Grupo 146160">
            <path id="Trazado_254428" data-name="Trazado 254428" d="M371.238,147.858c11.721,8.442,9.5,21.415-.715,32.957-32,36.057-99.156,29.308-86.076,14.881s50.472-26.59,40.111-25.683c-19.841,0-47.766,18.923-36.5,3.136,7.5-9.36,20.2-17.611,30.691-23.406-29.928,11.327-49.077,38.608-58.008,55.635-5.175-7.071-7.4-23.1-9.575-29.081-.072.882-.155,1.729-.2,2.611a57.88,57.88,0,0,0,2,19.292c.942,3.243,2.3,6.367,3.3,9.61.632,2.063,3.505,10.85-1.049,10.839-4.7-.024-6.033-6.963-6.82-10.469a85.926,85.926,0,0,1-1.86-16.478,62.521,62.521,0,0,1,2.444-17.551c-2.659,1.4-5.079,11.947-4.412,27.687-2.766-11.268-7.691-26.911-22.178-39.419,14.284,18.1,15.99,36.236,6.928,27.519-20.747-21.665-49.65-3.148-37.917-3.6,39.288-2.707,51.927,33.4,46.061,27.531s-15.8-12.186-38.37-12.186c-36.116.453-63.66-18.052-56.422-39.264,3.4-9.992,15.3-15.37,26.935-18.279-13,.477-25.194,4.948-33.243,15.524-17.182,22.559,3.374,49.864,28.652,54.92s58.9,6.558,73.64,16.872c12.138,8.49,12.508,26.578,13.009,58.854a15.13,15.13,0,0,0,12.269-.215c.179-26.268,2.325-51.5,3.327-56.506,1.192-6.021,14.738-12.043,44.546-13.259,29.785-1.18,50.532-6.308,68.31-27.973C397.827,170.739,390.685,154.106,371.238,147.858Z" transform="translate(-130.038 -144.138)" fill="#c5d872"/>
          </g>
        </g>
        <g id="Grupo_146162" data-name="Grupo 146162" transform="translate(161.964 3.573)" opacity="0.9" style="mix-blend-mode: screen;isolation: isolate">
          <path id="Trazado_254429" data-name="Trazado 254429" d="M222.836,152.419c-10.576-11.816-31.681-8.2-44.809-4.424-13.927,4.018-25.421,12.973-34.411,24.085-.167.191,0,.453.179.227,18.732-19.984,55.755-35.162,81.163-16.943C225.709,155.9,223.4,153.075,222.836,152.419Z" transform="translate(-143.547 -144.355)" fill="#c6d541"/>
        </g>
        <g id="Grupo_146163" data-name="Grupo 146163" transform="translate(36.233 3.859)" opacity="0.9" style="mix-blend-mode: screen;isolation: isolate">
          <path id="Trazado_254430" data-name="Trazado 254430" d="M133.367,146.148c-.226.072-.572.74-.2.644,12.317-2.563,24.24-.346,35.461,5.115,11.768,5.711,18.756,15,26.315,25.171.513.7,1.467-.715,1.264-1.276C187.763,152.861,155.915,139.328,133.367,146.148Z" transform="translate(-133.002 -144.379)" fill="#c6d541"/>
        </g>
        <g id="Grupo_146165" data-name="Grupo 146165" transform="translate(4.046 42.15)" opacity="0.6" style="mix-blend-mode: multiply;isolation: isolate">
          <g id="Grupo_146164" data-name="Grupo 146164">
            <path id="Trazado_254431" data-name="Trazado 254431" d="M277.809,180.141c-26.136,9.193-21.772,27.567-21.283,44.01s3.374,25.635-.489,26.113-2.909-3.362-4.316-31.216c-1.6-31.573-22.118-45.584-54.633-44.248-36.355,1.1-56.47-11.387-66.784-21.808,5.58,11.673,17.981,21.117,31.824,23.883,25.278,5.056,58.9,6.558,73.64,16.872,12.138,8.49,12.508,26.578,13.009,58.854a15.13,15.13,0,0,0,12.269-.215c.179-26.268,2.325-51.5,3.327-56.506,1.192-6.021,14.738-12.043,44.546-13.259,29.785-1.18,50.532-6.308,68.31-27.973a62.552,62.552,0,0,0,4.984-7.059C356.969,183.873,302.884,171.306,277.809,180.141Z" transform="translate(-130.303 -147.59)" fill="#c5d872"/>
          </g>
        </g>
        <g id="Grupo_146166" data-name="Grupo 146166" transform="translate(117.603 32.102)" opacity="0.9" style="mix-blend-mode: screen;isolation: isolate">
          <path id="Trazado_254432" data-name="Trazado 254432" d="M140.939,165.38c-.882-6.463.608-12.126,1.443-18.434.072-.477-.536.024-.572.262-2.85,13.474-3.482,25.85,3.971,38.215.346.608,1.323-.608,1.1-1.121A64.3,64.3,0,0,1,140.939,165.38Z" transform="translate(-139.827 -146.747)" fill="#c6d541"/>
        </g>
        <g id="Grupo_146167" data-name="Grupo 146167" transform="translate(124.586 155.097)" style="mix-blend-mode: screen;isolation: isolate">
          <path id="Trazado_254433" data-name="Trazado 254433" d="M142.16,193.887c-.656-6.641-.513-13.4-.584-20.067-.059-5.509.93-11.244-.262-16.621-.1-.393-.644.167-.608.441,1.145,6.224-.227,13.688-.274,20.044-.048,5.759-.024,11.518.274,17.289.7,12.984,2.563,26.53,6.939,38.811.215.644,1.431-.584,1.264-1.121C145.177,219.928,143.508,207.074,142.16,193.887Z" transform="translate(-140.412 -157.063)" fill="#ebd9b3"/>
        </g>
        <g id="Grupo_146168" data-name="Grupo 146168" transform="translate(183.03 259.778)">
          <path id="Trazado_254434" data-name="Trazado 254434" d="M145.314,165.842a6.814,6.814,0,0,1,1.073,2.218s15.942,3.589,26.291,16.908C166.24,173.664,158.311,167.845,145.314,165.842Z" transform="translate(-145.314 -165.842)" fill="#ebd9b3"/>
        </g>
        <g id="Grupo_146169" data-name="Grupo 146169" transform="translate(68.064 304.073)">
          <path id="Trazado_254435" data-name="Trazado 254435" d="M144.245,182.042s.465-1.4,7.536-8.12c7.106-6.725,15.238.811,15.238.811l2.444-1.228c-6.927-5.938-13.629-3.4-15.739-3.458-8.108-1.061-13,.441-18.052,5.33,3.684-2.921,9.491-3.768,16.109-3.541C146.892,174.852,144.245,182.042,144.245,182.042Z" transform="translate(-135.672 -169.557)" fill="#ebd9b3"/>
        </g>
        <g id="Grupo_146170" data-name="Grupo 146170" transform="translate(178.965 286.618)">
          <path id="Trazado_254436" data-name="Trazado 254436" d="M144.973,168.093c1.252,1.622,2.182,2.707,2.182,2.707S146.3,169.715,144.973,168.093Z" transform="translate(-144.973 -168.093)" fill="#ebd9b3"/>
        </g>
      </g>
    </g>
  </g>
</svg>
