<svg xmlns="http://www.w3.org/2000/svg" width="487" height="900.999" viewBox="0 0 487 900.999">
  <g id="Grupo_874277" data-name="Grupo 874277" transform="translate(-539 -1902)">
    <path id="Trazado_254774" data-name="Trazado 254774" d="M534.6,603.963c-3.293.522-4.747,8-8.824,3.651-3.719-3.968,3.273-5.107,4.029-8.856.237-3.235-8.519-4.216-3.713-8.733,3.829-3.6,5.266,3.28,8.448,4.026,3.465-.333,4.852-8,8.968-3.76,3.816,3.931-3.167,5.19-3.929,8.885-.038,3.217,7.879,4.346,4,8.465C539.452,612.018,538.036,604.374,534.6,603.963Z" transform="translate(127.689 1594.01)" fill="#fff"/>
    <path id="Trazado_254774-2" data-name="Trazado 254774" d="M534.6,603.963c-3.293.522-4.747,8-8.824,3.651-3.719-3.968,3.273-5.107,4.029-8.856.237-3.235-8.519-4.216-3.713-8.733,3.829-3.6,5.266,3.28,8.448,4.026,3.465-.333,4.852-8,8.968-3.76,3.816,3.931-3.167,5.19-3.929,8.885-.038,3.217,7.879,4.346,4,8.465C539.452,612.018,538.036,604.374,534.6,603.963Z" transform="translate(127.689 1818.01)" fill="#fff"/>
    <path id="Trazado_254774-3" data-name="Trazado 254774" d="M534.6,603.963c-3.293.522-4.747,8-8.824,3.651-3.719-3.968,3.273-5.107,4.029-8.856.237-3.235-8.519-4.216-3.713-8.733,3.829-3.6,5.266,3.28,8.448,4.026,3.465-.333,4.852-8,8.968-3.76,3.816,3.931-3.167,5.19-3.929,8.885-.038,3.217,7.879,4.346,4,8.465C539.452,612.018,538.036,604.374,534.6,603.963Z" transform="translate(127.689 2006.01)" fill="#fff"/>
    <path id="Trazado_254774-4" data-name="Trazado 254774" d="M534.6,603.963c-3.293.522-4.747,8-8.824,3.651-3.719-3.968,3.273-5.107,4.029-8.856.237-3.235-8.519-4.216-3.713-8.733,3.829-3.6,5.266,3.28,8.448,4.026,3.465-.333,4.852-8,8.968-3.76,3.816,3.931-3.167,5.19-3.929,8.885-.038,3.217,7.879,4.346,4,8.465C539.452,612.018,538.036,604.374,534.6,603.963Z" transform="translate(127.689 2194.01)" fill="#fff"/>
    <path id="Trazado_274125" data-name="Trazado 274125" d="M25,0A25,25,0,1,1,0,25,25,25,0,0,1,25,0Z" transform="translate(781.406 1904.501)" fill="#fff"/>
    <path id="Trazado_273012" data-name="Trazado 273012" d="M961.487,215.726a27.5,27.5,0,1,1,27.5-27.5A27.532,27.532,0,0,1,961.487,215.726Zm0-52.215A24.715,24.715,0,1,0,986.2,188.226,24.743,24.743,0,0,0,961.487,163.511Z" transform="translate(-155.08 1741.274)" fill="#0057ff"/>
    <path id="Trazado_273013" data-name="Trazado 273013" d="M958.7,181.334h5.582v13.785h-2.958V183.957H958.7Z" transform="translate(-155.08 1741.274)" fill="#0057ff"/>
    <path id="Trazado_274124" data-name="Trazado 274124" d="M26.108,0A26.108,26.108,0,1,1,0,26.108,26.108,26.108,0,0,1,26.108,0Z" transform="translate(778.812 1998.856)" fill="#fff"/>
    <path id="Trazado_273014" data-name="Trazado 273014" d="M960,311.189a27.5,27.5,0,1,1,27.5-27.5A27.53,27.53,0,0,1,960,311.189Zm0-52.215a24.715,24.715,0,1,0,24.717,24.715A24.743,24.743,0,0,0,960,258.974Z" transform="translate(-155.08 1741.274)" fill="#ff1439"/>
    <path id="Trazado_273015" data-name="Trazado 273015" d="M961.215,282.119a2.724,2.724,0,0,0,.568-1.558,1.724,1.724,0,0,0-.495-1.26,1.693,1.693,0,0,0-1.267-.5q-1.419,0-2.687,2.021l-2.689-1.591a8.368,8.368,0,0,1,2.314-2.474,5.664,5.664,0,0,1,3.2-.837,5.15,5.15,0,0,1,3.415,1.236,4.156,4.156,0,0,1,1.474,3.365,4.523,4.523,0,0,1-.59,2.226,14.465,14.465,0,0,1-2.184,2.719l-2.708,2.817H965.5v3.011H954.9V288.8l4.408-4.517A19.306,19.306,0,0,0,961.215,282.119Z" transform="translate(-155.08 1741.274)" fill="#ff1439"/>
    <path id="Trazado_274128" data-name="Trazado 274128" d="M26.108,0A26.108,26.108,0,1,1,0,26.108,26.108,26.108,0,0,1,26.108,0Z" transform="translate(780.171 2098.373)" fill="#fff"/>
    <path id="Trazado_273016" data-name="Trazado 273016" d="M961.354,410.707a27.5,27.5,0,1,1,27.5-27.5A27.533,27.533,0,0,1,961.354,410.707Zm0-52.216a24.715,24.715,0,1,0,24.714,24.716A24.743,24.743,0,0,0,961.354,358.491Z" transform="translate(-155.08 1741.274)" fill="#f90"/>
    <path id="Trazado_273017" data-name="Trazado 273017" d="M955.535,378.361V375.5h9.2v2.323l-3.073,3.5a4.392,4.392,0,0,1,2.8,1.516,4.318,4.318,0,0,1,.99,2.806,4.579,4.579,0,0,1-1.6,3.709,6.148,6.148,0,0,1-4.1,1.345,8.892,8.892,0,0,1-5.052-1.763l1.376-2.667a6.847,6.847,0,0,0,3.807,1.505,2.675,2.675,0,0,0,1.664-.495,1.681,1.681,0,0,0,.659-1.43,1.741,1.741,0,0,0-.757-1.483,3.472,3.472,0,0,0-2.083-.548,7.156,7.156,0,0,0-2,.408v-2.472l2.882-3.4Z" transform="translate(-155.08 1741.274)" fill="#f90"/>
    <path id="Trazado_274134" data-name="Trazado 274134" d="M26.108,0A26.108,26.108,0,1,1,0,26.108,26.108,26.108,0,0,1,26.108,0Z" transform="translate(780.171 2200.797)" fill="#fff"/>
    <path id="Trazado_273018" data-name="Trazado 273018" d="M961.36,513.131a27.5,27.5,0,1,1,27.5-27.5A27.533,27.533,0,0,1,961.36,513.131Zm0-52.215a24.715,24.715,0,1,0,24.714,24.715A24.743,24.743,0,0,0,961.36,460.916Z" transform="translate(-155.08 1741.274)" fill="#00b081"/>
    <path id="Trazado_273019" data-name="Trazado 273019" d="M962.045,486.462v-2.623h3.225v2.623h1.7v2.9h-1.7v3.591h-3.225v-3.591H956v-2.559l5.355-8.881h3.655l-5.1,8.537Z" transform="translate(-155.08 1741.274)" fill="#00b081"/>
    <path id="Trazado_274137" data-name="Trazado 274137" d="M26.108,0A26.108,26.108,0,1,1,0,26.108,26.108,26.108,0,0,1,26.108,0Z" transform="translate(780.17 2303.221)" fill="#fff"/>
    <path id="Trazado_273020" data-name="Trazado 273020" d="M961.357,615.555a27.5,27.5,0,1,1,27.5-27.5A27.53,27.53,0,0,1,961.357,615.555Zm0-52.215a24.715,24.715,0,1,0,24.717,24.715A24.743,24.743,0,0,0,961.357,563.34Z" transform="translate(-155.08 1741.274)" fill="#883bdb"/>
    <path id="Trazado_273021" data-name="Trazado 273021" d="M965.82,580.35v2.9h-5.937v2.515a5.505,5.505,0,0,1,1.528-.193,5.648,5.648,0,0,1,3.742,1.311,4.376,4.376,0,0,1,1.57,3.538A4.719,4.719,0,0,1,965.1,594.1a5.792,5.792,0,0,1-4.008,1.453,6.588,6.588,0,0,1-5.1-2.259l1.763-2.451c.13.129.3.286.516.473a7.12,7.12,0,0,0,1.181.742,3.616,3.616,0,0,0,1.721.462A2.418,2.418,0,0,0,962.7,592a1.808,1.808,0,0,0,.67-1.527,1.84,1.84,0,0,0-.721-1.558,2.989,2.989,0,0,0-1.86-.55,5.732,5.732,0,0,0-2.646.818l-1.4-1.506V580.35Z" transform="translate(-155.08 1741.274)" fill="#883bdb"/>
    <path id="Trazado_274142" data-name="Trazado 274142" d="M26.108,0A26.108,26.108,0,1,1,0,26.108,26.108,26.108,0,0,1,26.108,0Z" transform="translate(780.171 2404.296)" fill="#fff"/>
    <path id="Trazado_273022" data-name="Trazado 273022" d="M961.359,716.63a27.5,27.5,0,1,1,27.5-27.5A27.533,27.533,0,0,1,961.359,716.63Zm0-52.215a24.715,24.715,0,1,0,24.714,24.715A24.743,24.743,0,0,0,961.359,664.415Z" transform="translate(-155.08 1741.274)" fill="#09f"/>
    <path id="Trazado_273023" data-name="Trazado 273023" d="M962.163,683.962A2.623,2.623,0,0,0,960,684.9a4.726,4.726,0,0,0-.936,2.548,5.368,5.368,0,0,1,2.964-.9,4.833,4.833,0,0,1,3.519,1.378,4.887,4.887,0,0,1,1.409,3.665,4.707,4.707,0,0,1-1.517,3.666,5.469,5.469,0,0,1-3.819,1.377,5.894,5.894,0,0,1-2.762-.613,4.461,4.461,0,0,1-1.817-1.709,10.144,10.144,0,0,1-1.289-5.333,11.753,11.753,0,0,1,.506-3.623,6.2,6.2,0,0,1,1.387-2.463,5.641,5.641,0,0,1,4.258-1.8,6.415,6.415,0,0,1,2.007.311,6.921,6.921,0,0,1,1.474.633,13.485,13.485,0,0,1,1.142.818l-1.593,2.366c-.087-.086-.212-.2-.376-.344a4.849,4.849,0,0,0-.979-.559A3.307,3.307,0,0,0,962.163,683.962Zm-.441,5.418a2.457,2.457,0,0,0-1.675.592,1.949,1.949,0,0,0-.68,1.538,2.272,2.272,0,0,0,.648,1.623,2.133,2.133,0,0,0,1.609.677,2.277,2.277,0,0,0,1.616-.6,2.035,2.035,0,0,0,.644-1.56,2.347,2.347,0,0,0-.579-1.612A2.012,2.012,0,0,0,961.722,689.38Z" transform="translate(-155.08 1741.274)" fill="#09f"/>
    <path id="Trazado_274148" data-name="Trazado 274148" d="M26.108,0A26.108,26.108,0,1,1,0,26.108,26.108,26.108,0,0,1,26.108,0Z" transform="translate(781.688 2505.371)" fill="#fff"/>
    <path id="Trazado_273024" data-name="Trazado 273024" d="M962.876,817.705a27.5,27.5,0,1,1,27.5-27.5A27.533,27.533,0,0,1,962.876,817.705Zm0-52.215a24.715,24.715,0,1,0,24.714,24.715A24.743,24.743,0,0,0,962.876,765.49Z" transform="translate(-155.08 1741.274)" fill="#00c2cb"/>
    <g id="Grupo_874105" data-name="Grupo 874105" transform="translate(-155.08 1741.274)">
      <path id="Trazado_273025" data-name="Trazado 273025" d="M957.444,787.316V782.5H968.3v2.538L962.22,797.53h-3.655l5.8-12.149h-3.785v1.935Z" fill="#00c2cb"/>
    </g>
    <path id="Trazado_274154" data-name="Trazado 274154" d="M23.734,0A23.734,23.734,0,1,1,0,23.734,23.734,23.734,0,0,1,23.734,0Z" transform="translate(784.06 2607.235)" fill="#fff"/>
    <path id="Trazado_273026" data-name="Trazado 273026" d="M962.874,914.7a25,25,0,1,1,25-25A25.028,25.028,0,0,1,962.874,914.7Zm0-47.468A22.469,22.469,0,1,0,985.343,889.7,22.493,22.493,0,0,0,962.874,867.227Z" transform="translate(-155.08 1741.274)" fill="#4f9e00"/>
    <path id="Trazado_273027" data-name="Trazado 273027" d="M956.582,896.511a4.913,4.913,0,0,1-4.243-1.926,10.085,10.085,0,0,1,0-10.283,5.639,5.639,0,0,1,8.485,0,10.116,10.116,0,0,1,0,10.283A4.916,4.916,0,0,1,956.582,896.511Zm-2.015-10.361a8.782,8.782,0,0,0,0,6.607,2.246,2.246,0,0,0,4.027,0,8.782,8.782,0,0,0,0-6.607,2.246,2.246,0,0,0-4.027,0Z" transform="translate(-155.08 1741.274)" fill="#4f9e00"/>
    <path id="Trazado_273028" data-name="Trazado 273028" d="M966.208,883.452a5.877,5.877,0,0,1,6.774,0,3.271,3.271,0,0,1,1.35,2.649,3.581,3.581,0,0,1-1.214,2.708,4.133,4.133,0,0,1,1.7,3.44,3.831,3.831,0,0,1-1.446,3.03,6.392,6.392,0,0,1-7.545,0,3.834,3.834,0,0,1-1.449-3.03,4.14,4.14,0,0,1,1.7-3.44,3.607,3.607,0,0,1-1.231-2.718A3.259,3.259,0,0,1,966.208,883.452Zm1.907,10.058a2.626,2.626,0,0,0,2.969,0,1.512,1.512,0,0,0,.687-1.339,1.553,1.553,0,0,0-.668-1.35,2.651,2.651,0,0,0-3.008,0,1.555,1.555,0,0,0-.665,1.35A1.509,1.509,0,0,0,968.115,893.51Zm.185-5.972a2.038,2.038,0,0,0,2.6,0,1.5,1.5,0,0,0,.009-2.326,2.061,2.061,0,0,0-2.62,0,1.5,1.5,0,0,0,.01,2.326Z" transform="translate(-155.08 1741.274)" fill="#4f9e00"/>
    <path id="Trazado_274161" data-name="Trazado 274161" d="M23.734,0A23.734,23.734,0,1,1,0,23.734,23.734,23.734,0,0,1,23.734,0Z" transform="translate(784.062 2710.774)" fill="#fff"/>
    <path id="Trazado_273029" data-name="Trazado 273029" d="M962.876,1018.234a25,25,0,1,1,25-25A25.029,25.029,0,0,1,962.876,1018.234Zm0-47.468a22.469,22.469,0,1,0,22.467,22.468A22.494,22.494,0,0,0,962.876,970.766Z" transform="translate(-155.08 1741.274)" fill="#ff3d9b"/>
    <path id="Trazado_273030" data-name="Trazado 273030" d="M956.724,1000.05a4.913,4.913,0,0,1-4.242-1.926,10.116,10.116,0,0,1,0-10.283,5.638,5.638,0,0,1,8.484,0,10.085,10.085,0,0,1,0,10.283A4.908,4.908,0,0,1,956.724,1000.05Zm-2.012-10.361a8.783,8.783,0,0,0,0,6.607,2.246,2.246,0,0,0,4.027,0,8.783,8.783,0,0,0,0-6.607,2.246,2.246,0,0,0-4.027,0Z" transform="translate(-155.08 1741.274)" fill="#ff3d9b"/>
    <path id="Trazado_273031" data-name="Trazado 273031" d="M968.845,997.43a2.394,2.394,0,0,0,1.966-.851,4.331,4.331,0,0,0,.85-2.316,4.753,4.753,0,0,1-2.7.84,4.372,4.372,0,0,1-3.194-1.26,4.462,4.462,0,0,1-1.28-3.333,4.3,4.3,0,0,1,1.377-3.332,4.938,4.938,0,0,1,3.468-1.261,5.361,5.361,0,0,1,2.514.556,4.181,4.181,0,0,1,1.672,1.555,9.341,9.341,0,0,1,1.154,4.848,10.667,10.667,0,0,1-.46,3.293,5.8,5.8,0,0,1-1.241,2.239,5.24,5.24,0,0,1-3.891,1.642,5.972,5.972,0,0,1-1.839-.284,6.121,6.121,0,0,1-1.328-.566q-.449-.284-1.036-.733l1.523-2.151c.094.078.213.179.364.3a4.848,4.848,0,0,0,.87.5A2.77,2.77,0,0,0,968.845,997.43Zm.42-4.926a2.228,2.228,0,0,0,1.516-.528,1.754,1.754,0,0,0,.606-1.388,2.1,2.1,0,0,0-.586-1.486,1.978,1.978,0,0,0-3.461,1.35,2.157,2.157,0,0,0,.509,1.456A1.762,1.762,0,0,0,969.265,992.5Z" transform="translate(-155.08 1741.274)" fill="#ff3d9b"/>
    <g id="Grupo_874119" data-name="Grupo 874119" transform="translate(-155.08 1741.274)">
      <rect id="Rect치ngulo_44577" data-name="Rect치ngulo 44577" width="100" height="25" rx="12.5" transform="translate(756.08 175.726)" fill="#0057ff"/>
      <text id="Estol칩n" transform="translate(779.08 194.726)" fill="#fff" font-size="18" font-family="Roboto-Black, Roboto" font-weight="800"><tspan x="0" y="0">Estol칩n</tspan></text>
    </g>
    <path id="Trazado_274144" data-name="Trazado 274144" d="M12.5,0h75A12.5,12.5,0,0,1,100,12.5h0A12.5,12.5,0,0,1,87.5,25h-75A12.5,12.5,0,0,1,0,12.5H0A12.5,12.5,0,0,1,12.5,0Z" transform="translate(920 2012)" fill="#ff1439"/>
    <path id="Trazado_274152" data-name="Trazado 274152" d="M11.663,0H8.6V-5.344H4.052V0H.967V-12.8H4.052v5.08H8.6V-12.8h3.067ZM16.6,0H13.632V-9.51H16.6ZM13.456-11.962A1.322,1.322,0,0,1,13.913-13a1.724,1.724,0,0,1,1.187-.4,1.724,1.724,0,0,1,1.187.4,1.322,1.322,0,0,1,.457,1.037,1.322,1.322,0,0,1-.457,1.037,1.724,1.724,0,0,1-1.187.4,1.724,1.724,0,0,1-1.187-.4A1.322,1.322,0,0,1,13.456-11.962ZM21.612-9.51V.325a3.452,3.452,0,0,1-.967,2.6,3.714,3.714,0,0,1-2.672.914,6.308,6.308,0,0,1-1.4-.149V1.45a5.667,5.667,0,0,0,.835.079A1.084,1.084,0,0,0,18.642.308V-9.51Zm-3.19-2.452A1.322,1.322,0,0,1,18.879-13a1.724,1.724,0,0,1,1.187-.4,1.724,1.724,0,0,1,1.187.4,1.322,1.322,0,0,1,.457,1.037,1.322,1.322,0,0,1-.457,1.037,1.724,1.724,0,0,1-1.187.4,1.724,1.724,0,0,1-1.187-.4A1.322,1.322,0,0,1,18.422-11.962ZM28.951-1.028a3.054,3.054,0,0,1-2.54,1.2,3,3,0,0,1-2.369-.91,3.826,3.826,0,0,1-.8-2.615V-9.51H26.2v6.179a1.065,1.065,0,0,0,1.187,1.222,1.548,1.548,0,0,0,1.45-.729V-9.51h2.979V0H29.039Zm9.088,1.2A4.889,4.889,0,0,1,34.5-1.129a4.507,4.507,0,0,1-1.354-3.4v-.246a5.84,5.84,0,0,1,.541-2.575,3.955,3.955,0,0,1,1.578-1.727,4.763,4.763,0,0,1,2.461-.611,4.117,4.117,0,0,1,3.164,1.244,4.887,4.887,0,0,1,1.16,3.467v1.151H36.158a2.135,2.135,0,0,0,.694,1.257,2.066,2.066,0,0,0,1.389.457,2.662,2.662,0,0,0,2.2-.984l1.354,1.6A3.784,3.784,0,0,1,40.223-.277,5.3,5.3,0,0,1,38.039.176ZM37.705-7.4q-1.3,0-1.547,1.723h2.988v-.229a1.467,1.467,0,0,0-.36-1.1A1.434,1.434,0,0,0,37.705-7.4ZM46.362,0H43.392V-13.5h2.971Zm1.45-4.843a5.613,5.613,0,0,1,.554-2.536,3.96,3.96,0,0,1,1.591-1.709,4.791,4.791,0,0,1,2.435-.6,4.373,4.373,0,0,1,3.366,1.323,5.076,5.076,0,0,1,1.23,3.6v.105a4.925,4.925,0,0,1-1.235,3.529A4.384,4.384,0,0,1,52.409.176a4.434,4.434,0,0,1-3.261-1.217,4.761,4.761,0,0,1-1.327-3.3Zm2.962.185a3.538,3.538,0,0,0,.413,1.934,1.376,1.376,0,0,0,1.222.615q1.582,0,1.617-2.435v-.3q0-2.558-1.635-2.558-1.485,0-1.608,2.206Z" transform="translate(942 2032)" fill="#fff"/>
    <path id="Trazado_274145" data-name="Trazado 274145" d="M12.5,0h75A12.5,12.5,0,0,1,100,12.5h0A12.5,12.5,0,0,1,87.5,25h-75A12.5,12.5,0,0,1,0,12.5H0A12.5,12.5,0,0,1,12.5,0Z" transform="translate(926 2214)" fill="#00b081"/>
    <path id="Trazado_274149" data-name="Trazado 274149" d="M11.013-10.415H7.172V0H4.087V-10.415H.316V-12.8h10.7Zm6.258,9.387a3.054,3.054,0,0,1-2.54,1.2,3,3,0,0,1-2.369-.91,3.826,3.826,0,0,1-.8-2.615V-9.51H14.52v6.179a1.065,1.065,0,0,0,1.187,1.222,1.548,1.548,0,0,0,1.45-.729V-9.51h2.979V0H17.358ZM30.586-4.676a5.8,5.8,0,0,1-.967,3.595A3.238,3.238,0,0,1,26.895.176,2.81,2.81,0,0,1,24.557-.976L24.434,0H21.779V-13.5h2.962v4.755a2.711,2.711,0,0,1,2.136-.94,3.239,3.239,0,0,1,2.742,1.274,5.826,5.826,0,0,1,.967,3.586Zm-2.971-.189a3.866,3.866,0,0,0-.365-1.952A1.229,1.229,0,0,0,26.13-7.4a1.418,1.418,0,0,0-1.389.763v3.773a1.426,1.426,0,0,0,1.406.755,1.258,1.258,0,0,0,1.327-1.018A7.309,7.309,0,0,0,27.615-4.865ZM36.492.176A4.889,4.889,0,0,1,32.95-1.129a4.507,4.507,0,0,1-1.354-3.4v-.246a5.84,5.84,0,0,1,.541-2.575,3.955,3.955,0,0,1,1.578-1.727,4.763,4.763,0,0,1,2.461-.611A4.117,4.117,0,0,1,39.34-8.442,4.887,4.887,0,0,1,40.5-4.975v1.151H34.611a2.135,2.135,0,0,0,.694,1.257,2.066,2.066,0,0,0,1.389.457,2.662,2.662,0,0,0,2.2-.984l1.354,1.6A3.784,3.784,0,0,1,38.676-.277,5.3,5.3,0,0,1,36.492.176ZM36.158-7.4q-1.3,0-1.547,1.723H37.6v-.229a1.467,1.467,0,0,0-.36-1.1A1.434,1.434,0,0,0,36.158-7.4Zm-.035-6.108h3.129l-2.443,2.76-2.417,0Zm11.32,6.68-.976-.07a1.752,1.752,0,0,0-1.793.879V0H41.713V-9.51H44.49l.1,1.222a2.294,2.294,0,0,1,2.083-1.4,2.888,2.888,0,0,1,.826.105Zm4.922,4.72a1.317,1.317,0,0,0,.967-.338,1.241,1.241,0,0,0,.334-.945h2.777A3.288,3.288,0,0,1,55.323-.826a4.168,4.168,0,0,1-2.887,1,4.22,4.22,0,0,1-3.27-1.3,5.125,5.125,0,0,1-1.2-3.6v-.123A5.792,5.792,0,0,1,48.5-7.4a3.872,3.872,0,0,1,1.534-1.7,4.573,4.573,0,0,1,2.373-.593,4.116,4.116,0,0,1,2.944,1.028,3.647,3.647,0,0,1,1.09,2.786H53.666A1.626,1.626,0,0,0,53.306-7a1.244,1.244,0,0,0-.967-.4q-1.151,0-1.345,1.468a10.357,10.357,0,0,0-.062,1.283,4.068,4.068,0,0,0,.343,1.986A1.187,1.187,0,0,0,52.365-2.109Zm11,1.081a3.054,3.054,0,0,1-2.54,1.2,3,3,0,0,1-2.369-.91,3.826,3.826,0,0,1-.8-2.615V-9.51h2.962v6.179A1.065,1.065,0,0,0,61.8-2.109a1.548,1.548,0,0,0,1.45-.729V-9.51h2.979V0H63.448ZM70.972,0H68V-13.5h2.971Zm1.45-4.843a5.613,5.613,0,0,1,.554-2.536,3.96,3.96,0,0,1,1.591-1.709A4.791,4.791,0,0,1,77-9.686a4.373,4.373,0,0,1,3.366,1.323,5.076,5.076,0,0,1,1.23,3.6v.105a4.925,4.925,0,0,1-1.235,3.529A4.384,4.384,0,0,1,77.019.176a4.434,4.434,0,0,1-3.261-1.217,4.761,4.761,0,0,1-1.327-3.3Zm2.962.185A3.538,3.538,0,0,0,75.8-2.725a1.376,1.376,0,0,0,1.222.615q1.582,0,1.617-2.435v-.3Q78.636-7.4,77-7.4q-1.485,0-1.608,2.206Z" transform="translate(935 2234)" fill="#fff"/>
    <path id="Trazado_274129" data-name="Trazado 274129" d="M12.5,0h75A12.5,12.5,0,0,1,100,12.5h0A12.5,12.5,0,0,1,87.5,25h-75A12.5,12.5,0,0,1,0,12.5H0A12.5,12.5,0,0,1,12.5,0Z" transform="translate(601 2112)" fill="#f90"/>
    <path id="Trazado_274130" data-name="Trazado 274130" d="M5.722-4.526H4.052V0H.967V-12.8H6a5.621,5.621,0,0,1,3.56,1.01,3.421,3.421,0,0,1,1.283,2.853,4.155,4.155,0,0,1-.541,2.213A3.837,3.837,0,0,1,8.613-5.3L11.285-.132V0H7.98ZM4.052-6.9H6a1.751,1.751,0,0,0,1.323-.463A1.788,1.788,0,0,0,7.77-8.653a1.809,1.809,0,0,0-.448-1.3A1.735,1.735,0,0,0,6-10.424H4.052ZM15.7,0H12.727V-9.51H15.7ZM12.551-11.962A1.322,1.322,0,0,1,13.008-13a1.724,1.724,0,0,1,1.187-.4,1.724,1.724,0,0,1,1.187.4,1.322,1.322,0,0,1,.457,1.037,1.322,1.322,0,0,1-.457,1.037,1.724,1.724,0,0,1-1.187.4,1.724,1.724,0,0,1-1.187-.4A1.322,1.322,0,0,1,12.551-11.962Zm8.464,9.677h4.333V0H17.271V-1.652l4.219-5.572H17.455V-9.51h7.8v1.6Zm5.256-2.558a5.613,5.613,0,0,1,.554-2.536,3.96,3.96,0,0,1,1.591-1.709,4.791,4.791,0,0,1,2.435-.6,4.373,4.373,0,0,1,3.366,1.323,5.076,5.076,0,0,1,1.23,3.6v.105a4.925,4.925,0,0,1-1.235,3.529A4.384,4.384,0,0,1,30.867.176a4.434,4.434,0,0,1-3.261-1.217,4.761,4.761,0,0,1-1.327-3.3Zm2.962.185a3.538,3.538,0,0,0,.413,1.934,1.376,1.376,0,0,0,1.222.615q1.582,0,1.617-2.435v-.3q0-2.558-1.635-2.558-1.485,0-1.608,2.206ZM39.551-9.51l.1,1.116a3.27,3.27,0,0,1,2.716-1.292A2.407,2.407,0,0,1,44.8-8.253a3.165,3.165,0,0,1,2.795-1.433q2.892,0,2.971,3.5V0H47.593V-6a1.813,1.813,0,0,0-.246-1.063,1.048,1.048,0,0,0-.9-.334,1.4,1.4,0,0,0-1.31.782l.009.123V0H42.179V-5.985a1.906,1.906,0,0,0-.237-1.081,1.045,1.045,0,0,0-.905-.334,1.42,1.42,0,0,0-1.3.782V0H36.773V-9.51ZM57.612,0a3.344,3.344,0,0,1-.281-.853A2.754,2.754,0,0,1,55.046.176a3.374,3.374,0,0,1-2.285-.813,2.588,2.588,0,0,1-.94-2.043,2.66,2.66,0,0,1,1.143-2.338,5.821,5.821,0,0,1,3.322-.791H57.2v-.5q0-1.316-1.134-1.316a.927.927,0,0,0-1.055,1.042H52.049a2.655,2.655,0,0,1,1.173-2.239,4.931,4.931,0,0,1,2.993-.86,4.323,4.323,0,0,1,2.874.888A3.086,3.086,0,0,1,60.17-6.363v4.21a4.311,4.311,0,0,0,.4,2V0ZM55.758-1.934a1.652,1.652,0,0,0,.918-.237,1.487,1.487,0,0,0,.523-.536V-4.228h-.861q-1.547,0-1.547,1.389a.848.848,0,0,0,.272.655A.986.986,0,0,0,55.758-1.934Z" transform="translate(621 2132)" fill="#fff"/>
    <path id="Trazado_274123" data-name="Trazado 274123" d="M0,0H70.165" transform="translate(704.924 1929.501)" fill="none" stroke="#727997" stroke-width="2" stroke-dasharray="4"/>
    <path id="Trazado_274126" data-name="Trazado 274126" d="M0,0V30" transform="translate(806.406 1962.232)" fill="none" stroke="#727997" stroke-width="2" stroke-dasharray="4"/>
    <path id="Trazado_274127" data-name="Trazado 274127" d="M0,0V30" transform="translate(806.406 2060.584)" fill="none" stroke="#727997" stroke-width="2" stroke-dasharray="4"/>
    <path id="Trazado_274133" data-name="Trazado 274133" d="M0,0V30" transform="translate(806.406 2158.937)" fill="none" stroke="#727997" stroke-width="2" stroke-dasharray="4"/>
    <path id="Trazado_274136" data-name="Trazado 274136" d="M0,0V30" transform="translate(806.406 2257.289)" fill="none" stroke="#727997" stroke-width="2" stroke-dasharray="4"/>
    <path id="Trazado_274138" data-name="Trazado 274138" d="M0,0V30" transform="translate(806.406 2362.638)" fill="none" stroke="#727997" stroke-width="2" stroke-dasharray="4"/>
    <path id="Trazado_274146" data-name="Trazado 274146" d="M0,0V30" transform="translate(806.406 2465.941)" fill="none" stroke="#727997" stroke-width="2" stroke-dasharray="4"/>
    <path id="Trazado_274155" data-name="Trazado 274155" d="M0,0V37.231" transform="translate(806.072 2563.859)" fill="none" stroke="#727997" stroke-width="2" stroke-dasharray="4"/>
    <path id="Trazado_274160" data-name="Trazado 274160" d="M0,0V37.231" transform="translate(806.072 2664.124)" fill="none" stroke="#727997" stroke-width="2" stroke-dasharray="4"/>
    <path id="Trazado_274132" data-name="Trazado 274132" d="M0,0H70.165" transform="translate(842.819 2022.353)" fill="none" stroke="#727997" stroke-width="2" stroke-dasharray="4"/>
    <path id="Trazado_274131" data-name="Trazado 274131" d="M0,0H70.165" transform="translate(704.924 2124.205)" fill="none" stroke="#727997" stroke-width="2" stroke-dasharray="4"/>
    <path id="Trazado_274139" data-name="Trazado 274139" d="M12.5,0h75A12.5,12.5,0,0,1,100,12.5h0A12.5,12.5,0,0,1,87.5,25h-75A12.5,12.5,0,0,1,0,12.5H0A12.5,12.5,0,0,1,12.5,0Z" transform="translate(601.106 2317)" fill="#883bdb"/>
    <path id="Trazado_274140" data-name="Trazado 274140" d="M.967,0V-12.8h4.6a6.509,6.509,0,0,1,3.757.905,3.012,3.012,0,0,1,1.288,2.628,3.045,3.045,0,0,1-.457,1.7A2.663,2.663,0,0,1,8.807-6.53a2.7,2.7,0,0,1,1.538.984,2.862,2.862,0,0,1,.536,1.758A3.388,3.388,0,0,1,9.69-.962,5.667,5.667,0,0,1,6.161,0ZM4.052-5.44v3.067H6.073a1.923,1.923,0,0,0,1.283-.382A1.338,1.338,0,0,0,7.8-3.832,1.419,1.419,0,0,0,6.214-5.44Zm0-2.021H5.66A2.285,2.285,0,0,0,7.1-7.832,1.314,1.314,0,0,0,7.532-8.9a1.379,1.379,0,0,0-.466-1.168,2.493,2.493,0,0,0-1.5-.357H4.052ZM18.105-1.028a3.054,3.054,0,0,1-2.54,1.2A3,3,0,0,1,13.2-.734a3.826,3.826,0,0,1-.8-2.615V-9.51h2.962v6.179a1.065,1.065,0,0,0,1.187,1.222,1.548,1.548,0,0,0,1.45-.729V-9.51h2.979V0H18.193ZM25.717,0H22.746V-13.5h2.971ZM36.369-4.676A5.8,5.8,0,0,1,35.4-1.081,3.238,3.238,0,0,1,32.678.176,2.81,2.81,0,0,1,30.34-.976L30.217,0H27.563V-13.5h2.962v4.755a2.711,2.711,0,0,1,2.136-.94A3.239,3.239,0,0,1,35.4-8.411a5.826,5.826,0,0,1,.967,3.586ZM33.4-4.865a3.866,3.866,0,0,0-.365-1.952A1.229,1.229,0,0,0,31.913-7.4a1.418,1.418,0,0,0-1.389.763v3.773a1.426,1.426,0,0,0,1.406.755,1.258,1.258,0,0,0,1.327-1.018A7.309,7.309,0,0,0,33.4-4.865Zm3.9.022a5.613,5.613,0,0,1,.554-2.536,3.96,3.96,0,0,1,1.591-1.709,4.791,4.791,0,0,1,2.435-.6,4.373,4.373,0,0,1,3.366,1.323,5.076,5.076,0,0,1,1.23,3.6v.105a4.925,4.925,0,0,1-1.235,3.529A4.384,4.384,0,0,1,41.9.176a4.434,4.434,0,0,1-3.261-1.217,4.761,4.761,0,0,1-1.327-3.3Zm2.962.185a3.538,3.538,0,0,0,.413,1.934,1.376,1.376,0,0,0,1.222.615q1.582,0,1.617-2.435v-.3q0-2.558-1.635-2.558-1.485,0-1.608,2.206Z" transform="translate(630.512 2337)" fill="#fff"/>
    <path id="Trazado_274141" data-name="Trazado 274141" d="M0,0H70.165" transform="translate(704.924 2329.33)" fill="none" stroke="#727997" stroke-width="2" stroke-dasharray="4"/>
    <path id="Trazado_274162" data-name="Trazado 274162" d="M12.5,0h75A12.5,12.5,0,0,1,100,12.5h0A12.5,12.5,0,0,1,87.5,25h-75A12.5,12.5,0,0,1,0,12.5H0A12.5,12.5,0,0,1,12.5,0Z" transform="translate(601.106 2722)" fill="#ff3d9b"/>
    <path id="Trazado_274163" data-name="Trazado 274163" d="M11.32-4.333a4.673,4.673,0,0,1-.721,2.36A4.35,4.35,0,0,1,8.75-.387a6.3,6.3,0,0,1-2.72.563A5.025,5.025,0,0,1,2.057-1.468,6.786,6.786,0,0,1,.606-6.108v-.633a7.746,7.746,0,0,1,.655-3.292,4.961,4.961,0,0,1,1.885-2.18,5.26,5.26,0,0,1,2.848-.769,5.516,5.516,0,0,1,3.744,1.226,4.844,4.844,0,0,1,1.608,3.379H8.271a2.292,2.292,0,0,0-.589-1.679,2.422,2.422,0,0,0-1.687-.51A1.843,1.843,0,0,0,4.307-9.7a5.536,5.536,0,0,0-.562,2.751v.905A6.125,6.125,0,0,0,4.258-3.12a1.882,1.882,0,0,0,1.771.879,2.369,2.369,0,0,0,1.626-.5,2.126,2.126,0,0,0,.6-1.591ZM18,0a3.344,3.344,0,0,1-.281-.853A2.754,2.754,0,0,1,15.434.176a3.374,3.374,0,0,1-2.285-.813,2.588,2.588,0,0,1-.94-2.043,2.66,2.66,0,0,1,1.143-2.338,5.821,5.821,0,0,1,3.322-.791h.914v-.5q0-1.316-1.134-1.316A.927.927,0,0,0,15.4-6.587H12.437A2.655,2.655,0,0,1,13.61-8.825a4.931,4.931,0,0,1,2.993-.86,4.323,4.323,0,0,1,2.874.888,3.086,3.086,0,0,1,1.081,2.435v4.21a4.311,4.311,0,0,0,.4,2V0ZM16.146-1.934a1.652,1.652,0,0,0,.918-.237,1.487,1.487,0,0,0,.523-.536V-4.228h-.861q-1.547,0-1.547,1.389a.848.848,0,0,0,.272.655A.986.986,0,0,0,16.146-1.934ZM25.321,0H22.351V-13.5h2.971ZM30.27,0H27.3V-13.5H30.27Zm1.45-4.843a5.613,5.613,0,0,1,.554-2.536,3.96,3.96,0,0,1,1.591-1.709,4.791,4.791,0,0,1,2.435-.6,4.373,4.373,0,0,1,3.366,1.323,5.076,5.076,0,0,1,1.23,3.6v.105a4.925,4.925,0,0,1-1.235,3.529A4.384,4.384,0,0,1,36.316.176a4.434,4.434,0,0,1-3.261-1.217,4.761,4.761,0,0,1-1.327-3.3Zm2.962.185a3.538,3.538,0,0,0,.413,1.934,1.376,1.376,0,0,0,1.222.615q1.582,0,1.617-2.435v-.3Q37.934-7.4,36.3-7.4q-1.485,0-1.608,2.206Z" transform="translate(630.512 2742)" fill="#fff"/>
    <path id="Trazado_274164" data-name="Trazado 274164" d="M0,0H70.165" transform="translate(704.924 2734.509)" fill="none" stroke="#727997" stroke-width="2" stroke-dasharray="4"/>
    <path id="Trazado_274150" data-name="Trazado 274150" d="M12.5,0H149.606a12.5,12.5,0,0,1,12.5,12.5h0a12.5,12.5,0,0,1-12.5,12.5H12.5A12.5,12.5,0,0,1,0,12.5H0A12.5,12.5,0,0,1,12.5,0Z" transform="translate(539 2519)" fill="#00c2cb"/>
    <path id="Trazado_274151" data-name="Trazado 274151" d="M5.722-4.526H4.052V0H.967V-12.8H6a5.621,5.621,0,0,1,3.56,1.01,3.421,3.421,0,0,1,1.283,2.853,4.155,4.155,0,0,1-.541,2.213A3.837,3.837,0,0,1,8.613-5.3L11.285-.132V0H7.98ZM4.052-6.9H6a1.751,1.751,0,0,0,1.323-.463A1.788,1.788,0,0,0,7.77-8.653a1.809,1.809,0,0,0-.448-1.3A1.735,1.735,0,0,0,6-10.424H4.052ZM17.93,0a3.344,3.344,0,0,1-.281-.853A2.754,2.754,0,0,1,15.363.176a3.374,3.374,0,0,1-2.285-.813,2.588,2.588,0,0,1-.94-2.043A2.66,2.66,0,0,1,13.28-5.019,5.821,5.821,0,0,1,16.6-5.81h.914v-.5q0-1.316-1.134-1.316a.927.927,0,0,0-1.055,1.042H12.366A2.655,2.655,0,0,1,13.54-8.825a4.931,4.931,0,0,1,2.993-.86,4.323,4.323,0,0,1,2.874.888,3.086,3.086,0,0,1,1.081,2.435v4.21a4.311,4.311,0,0,0,.4,2V0ZM16.075-1.934a1.652,1.652,0,0,0,.918-.237,1.487,1.487,0,0,0,.523-.536V-4.228h-.861q-1.547,0-1.547,1.389a.848.848,0,0,0,.272.655A.986.986,0,0,0,16.075-1.934ZM25.356,0H22.377V-9.51h2.979ZM24.249-13.324h3.129l-2.443,2.76-2.417,0ZM31.28-2.109a1.317,1.317,0,0,0,.967-.338,1.241,1.241,0,0,0,.334-.945h2.777A3.288,3.288,0,0,1,34.238-.826a4.168,4.168,0,0,1-2.887,1,4.22,4.22,0,0,1-3.27-1.3,5.125,5.125,0,0,1-1.2-3.6v-.123A5.792,5.792,0,0,1,27.417-7.4a3.872,3.872,0,0,1,1.534-1.7,4.573,4.573,0,0,1,2.373-.593,4.116,4.116,0,0,1,2.944,1.028,3.647,3.647,0,0,1,1.09,2.786H32.581A1.626,1.626,0,0,0,32.221-7a1.244,1.244,0,0,0-.967-.4q-1.151,0-1.345,1.468a10.357,10.357,0,0,0-.062,1.283,4.068,4.068,0,0,0,.343,1.986A1.187,1.187,0,0,0,31.28-2.109ZM41.212.176A4.889,4.889,0,0,1,37.67-1.129a4.507,4.507,0,0,1-1.354-3.4v-.246a5.84,5.84,0,0,1,.541-2.575,3.955,3.955,0,0,1,1.578-1.727A4.763,4.763,0,0,1,40.9-9.686,4.117,4.117,0,0,1,44.06-8.442a4.887,4.887,0,0,1,1.16,3.467v1.151H39.331a2.135,2.135,0,0,0,.694,1.257,2.066,2.066,0,0,0,1.389.457,2.662,2.662,0,0,0,2.2-.984l1.354,1.6A3.784,3.784,0,0,1,43.4-.277,5.3,5.3,0,0,1,41.212.176ZM40.878-7.4q-1.3,0-1.547,1.723h2.988v-.229a1.467,1.467,0,0,0-.36-1.1A1.434,1.434,0,0,0,40.878-7.4ZM51.39-2.672a.684.684,0,0,0-.4-.606,6.016,6.016,0,0,0-1.5-.475A6.853,6.853,0,0,1,47.663-4.4a3.062,3.062,0,0,1-1.1-.971,2.319,2.319,0,0,1-.378-1.31,2.628,2.628,0,0,1,1.081-2.158,4.453,4.453,0,0,1,2.83-.848,4.934,4.934,0,0,1,3.023.853,2.666,2.666,0,0,1,1.143,2.241H51.293q0-1.143-1.2-1.143a1.194,1.194,0,0,0-.782.259.8.8,0,0,0-.316.646.737.737,0,0,0,.387.642,3.654,3.654,0,0,0,1.235.4,10.671,10.671,0,0,1,1.49.378A2.706,2.706,0,0,1,54.246-2.76,2.491,2.491,0,0,1,53.09-.642,5.068,5.068,0,0,1,50.1.176a5.172,5.172,0,0,1-2.18-.439,3.645,3.645,0,0,1-1.494-1.2,2.707,2.707,0,0,1-.536-1.591h2.769a1.145,1.145,0,0,0,.439.962,1.808,1.808,0,0,0,1.081.3,1.422,1.422,0,0,0,.91-.246A.787.787,0,0,0,51.39-2.672Zm12.173-9.2V-9.51h1.564v2.057H63.563V-3.1a1.111,1.111,0,0,0,.193.747,1.037,1.037,0,0,0,.765.211,4.345,4.345,0,0,0,.738-.053V-.079a5.466,5.466,0,0,1-1.67.255A3.1,3.1,0,0,1,61.33-.545,2.954,2.954,0,0,1,60.6-2.733v-4.72H59.388V-9.51H60.6v-2.364ZM71.956-1.028a3.054,3.054,0,0,1-2.54,1.2,3,3,0,0,1-2.369-.91,3.826,3.826,0,0,1-.8-2.615V-9.51h2.962v6.179a1.065,1.065,0,0,0,1.187,1.222,1.548,1.548,0,0,0,1.45-.729V-9.51h2.979V0H72.044ZM85.271-4.676A5.8,5.8,0,0,1,84.3-1.081,3.238,3.238,0,0,1,81.58.176,2.81,2.81,0,0,1,79.242-.976L79.119,0H76.465V-13.5h2.962v4.755a2.711,2.711,0,0,1,2.136-.94A3.239,3.239,0,0,1,84.3-8.411a5.826,5.826,0,0,1,.967,3.586ZM82.3-4.865a3.866,3.866,0,0,0-.365-1.952A1.229,1.229,0,0,0,80.815-7.4a1.418,1.418,0,0,0-1.389.763v3.773a1.426,1.426,0,0,0,1.406.755A1.258,1.258,0,0,0,82.16-3.127,7.309,7.309,0,0,0,82.3-4.865ZM91.178.176a4.889,4.889,0,0,1-3.542-1.305,4.507,4.507,0,0,1-1.354-3.4v-.246a5.84,5.84,0,0,1,.541-2.575A3.955,3.955,0,0,1,88.4-9.075a4.763,4.763,0,0,1,2.461-.611,4.117,4.117,0,0,1,3.164,1.244,4.887,4.887,0,0,1,1.16,3.467v1.151H89.3a2.135,2.135,0,0,0,.694,1.257,2.066,2.066,0,0,0,1.389.457,2.662,2.662,0,0,0,2.2-.984l1.354,1.6A3.784,3.784,0,0,1,93.362-.277,5.3,5.3,0,0,1,91.178.176ZM90.844-7.4q-1.3,0-1.547,1.723h2.988v-.229a1.467,1.467,0,0,0-.36-1.1A1.434,1.434,0,0,0,90.844-7.4Zm11.285.571-.976-.07a1.752,1.752,0,0,0-1.793.879V0H96.4V-9.51h2.777l.1,1.222a2.294,2.294,0,0,1,2.083-1.4,2.888,2.888,0,0,1,.826.105Zm.378,1.986a5.613,5.613,0,0,1,.554-2.536,3.96,3.96,0,0,1,1.591-1.709,4.791,4.791,0,0,1,2.435-.6,4.373,4.373,0,0,1,3.366,1.323,5.076,5.076,0,0,1,1.23,3.6v.105a4.925,4.925,0,0,1-1.235,3.529A4.384,4.384,0,0,1,107.1.176a4.434,4.434,0,0,1-3.261-1.217,4.761,4.761,0,0,1-1.327-3.3Zm2.962.185a3.538,3.538,0,0,0,.413,1.934,1.376,1.376,0,0,0,1.222.615q1.582,0,1.617-2.435v-.3q0-2.558-1.635-2.558-1.485,0-1.608,2.206Zm12.5,1.986a.684.684,0,0,0-.4-.606,6.016,6.016,0,0,0-1.5-.475A6.853,6.853,0,0,1,114.24-4.4a3.062,3.062,0,0,1-1.1-.971,2.319,2.319,0,0,1-.378-1.31,2.628,2.628,0,0,1,1.081-2.158,4.453,4.453,0,0,1,2.83-.848,4.934,4.934,0,0,1,3.023.853,2.666,2.666,0,0,1,1.143,2.241H117.87q0-1.143-1.2-1.143a1.194,1.194,0,0,0-.782.259.8.8,0,0,0-.316.646.737.737,0,0,0,.387.642,3.654,3.654,0,0,0,1.235.4,10.671,10.671,0,0,1,1.49.378,2.706,2.706,0,0,1,2.145,2.646,2.491,2.491,0,0,1-1.156,2.118,5.068,5.068,0,0,1-2.993.817,5.172,5.172,0,0,1-2.18-.439A3.645,3.645,0,0,1,113-1.459a2.707,2.707,0,0,1-.536-1.591h2.769a1.145,1.145,0,0,0,.439.962,1.808,1.808,0,0,0,1.081.3,1.422,1.422,0,0,0,.91-.246A.787.787,0,0,0,117.967-2.672ZM127.564,0a3.344,3.344,0,0,1-.281-.853A2.754,2.754,0,0,1,125,.176a3.374,3.374,0,0,1-2.285-.813,2.588,2.588,0,0,1-.94-2.043,2.66,2.66,0,0,1,1.143-2.338,5.821,5.821,0,0,1,3.322-.791h.914v-.5q0-1.316-1.134-1.316a.927.927,0,0,0-1.055,1.042H122a2.655,2.655,0,0,1,1.173-2.239,4.931,4.931,0,0,1,2.993-.86,4.323,4.323,0,0,1,2.874.888,3.086,3.086,0,0,1,1.081,2.435v4.21a4.311,4.311,0,0,0,.4,2V0ZM125.71-1.934a1.652,1.652,0,0,0,.918-.237,1.487,1.487,0,0,0,.523-.536V-4.228h-.861q-1.547,0-1.547,1.389a.848.848,0,0,0,.272.655A.986.986,0,0,0,125.71-1.934Zm11.03-.738a.684.684,0,0,0-.4-.606,6.016,6.016,0,0,0-1.5-.475,6.853,6.853,0,0,1-1.828-.646,3.062,3.062,0,0,1-1.1-.971,2.319,2.319,0,0,1-.378-1.31,2.628,2.628,0,0,1,1.081-2.158,4.453,4.453,0,0,1,2.83-.848,4.934,4.934,0,0,1,3.023.853,2.666,2.666,0,0,1,1.143,2.241h-2.971q0-1.143-1.2-1.143a1.194,1.194,0,0,0-.782.259.8.8,0,0,0-.316.646.737.737,0,0,0,.387.642,3.654,3.654,0,0,0,1.235.4,10.671,10.671,0,0,1,1.49.378A2.706,2.706,0,0,1,139.6-2.76a2.491,2.491,0,0,1-1.156,2.118,5.068,5.068,0,0,1-2.993.817,5.172,5.172,0,0,1-2.18-.439,3.645,3.645,0,0,1-1.494-1.2,2.707,2.707,0,0,1-.536-1.591h2.769a1.145,1.145,0,0,0,.439.962,1.808,1.808,0,0,0,1.081.3,1.422,1.422,0,0,0,.91-.246A.787.787,0,0,0,136.74-2.672Z" transform="translate(552.032 2539)" fill="#fff"/>
    <path id="Trazado_274153" data-name="Trazado 274153" d="M0,0H70.165" transform="translate(704.924 2531.203)" fill="none" stroke="#727997" stroke-width="2" stroke-dasharray="4"/>
    <path id="Trazado_274135" data-name="Trazado 274135" d="M0,0H70.165" transform="translate(839.732 2226.715)" fill="none" stroke="#727997" stroke-width="2" stroke-dasharray="4"/>
    <path id="Trazado_274147" data-name="Trazado 274147" d="M12.5,0h75A12.5,12.5,0,0,1,100,12.5h0A12.5,12.5,0,0,1,87.5,25h-75A12.5,12.5,0,0,1,0,12.5H0A12.5,12.5,0,0,1,12.5,0Z" transform="translate(925.502 2418)" fill="#09f"/>
    <path id="Trazado_274156" data-name="Trazado 274156" d="M11.32-4.333a4.673,4.673,0,0,1-.721,2.36A4.35,4.35,0,0,1,8.75-.387a6.3,6.3,0,0,1-2.72.563A5.025,5.025,0,0,1,2.057-1.468,6.786,6.786,0,0,1,.606-6.108v-.633a7.746,7.746,0,0,1,.655-3.292,4.961,4.961,0,0,1,1.885-2.18,5.26,5.26,0,0,1,2.848-.769,5.516,5.516,0,0,1,3.744,1.226,4.844,4.844,0,0,1,1.608,3.379H8.271a2.292,2.292,0,0,0-.589-1.679,2.422,2.422,0,0,0-1.687-.51A1.843,1.843,0,0,0,4.307-9.7a5.536,5.536,0,0,0-.562,2.751v.905A6.125,6.125,0,0,0,4.258-3.12a1.882,1.882,0,0,0,1.771.879,2.369,2.369,0,0,0,1.626-.5,2.126,2.126,0,0,0,.6-1.591Zm.949-.51a5.613,5.613,0,0,1,.554-2.536,3.96,3.96,0,0,1,1.591-1.709,4.791,4.791,0,0,1,2.435-.6,4.373,4.373,0,0,1,3.366,1.323,5.076,5.076,0,0,1,1.23,3.6v.105A4.925,4.925,0,0,1,20.21-1.129,4.384,4.384,0,0,1,16.866.176a4.434,4.434,0,0,1-3.261-1.217,4.761,4.761,0,0,1-1.327-3.3Zm2.962.185a3.538,3.538,0,0,0,.413,1.934,1.376,1.376,0,0,0,1.222.615q1.582,0,1.617-2.435v-.3q0-2.558-1.635-2.558-1.485,0-1.608,2.206ZM28.5-6.829l-.976-.07a1.752,1.752,0,0,0-1.793.879V0H22.772V-9.51H25.55l.1,1.222a2.294,2.294,0,0,1,2.083-1.4,2.888,2.888,0,0,1,.826.105ZM32.37-9.51l.1,1.116a3.27,3.27,0,0,1,2.716-1.292,2.407,2.407,0,0,1,2.435,1.433,3.165,3.165,0,0,1,2.795-1.433q2.892,0,2.971,3.5V0H40.412V-6a1.813,1.813,0,0,0-.246-1.063,1.048,1.048,0,0,0-.9-.334,1.4,1.4,0,0,0-1.31.782l.009.123V0H35V-5.985a1.906,1.906,0,0,0-.237-1.081,1.045,1.045,0,0,0-.905-.334,1.42,1.42,0,0,0-1.3.782V0H29.593V-9.51ZM44.7-4.843a5.613,5.613,0,0,1,.554-2.536,3.96,3.96,0,0,1,1.591-1.709,4.791,4.791,0,0,1,2.435-.6,4.373,4.373,0,0,1,3.366,1.323,5.076,5.076,0,0,1,1.23,3.6v.105a4.925,4.925,0,0,1-1.235,3.529A4.384,4.384,0,0,1,49.3.176a4.434,4.434,0,0,1-3.261-1.217,4.761,4.761,0,0,1-1.327-3.3Zm2.962.185a3.538,3.538,0,0,0,.413,1.934,1.376,1.376,0,0,0,1.222.615q1.582,0,1.617-2.435v-.3q0-2.558-1.635-2.558-1.485,0-1.608,2.206Z" transform="translate(950.409 2438)" fill="#fff"/>
    <path id="Trazado_274143" data-name="Trazado 274143" d="M0,0H70.165" transform="translate(839.732 2429.938)" fill="none" stroke="#727997" stroke-width="2" stroke-dasharray="4"/>
    <path id="Trazado_274157" data-name="Trazado 274157" d="M12.5,0h75A12.5,12.5,0,0,1,100,12.5h0A12.5,12.5,0,0,1,87.5,25h-75A12.5,12.5,0,0,1,0,12.5H0A12.5,12.5,0,0,1,12.5,0Z" transform="translate(925.502 2619)" fill="#4f9e00"/>
    <path id="Trazado_274158" data-name="Trazado 274158" d="M5.651-7.242,8.007-12.8h3.331L7.216-4.6V0H4.087V-4.6L-.026-12.8H3.287ZM16.734.176a4.889,4.889,0,0,1-3.542-1.305,4.507,4.507,0,0,1-1.354-3.4v-.246a5.84,5.84,0,0,1,.541-2.575,3.955,3.955,0,0,1,1.578-1.727,4.763,4.763,0,0,1,2.461-.611,4.117,4.117,0,0,1,3.164,1.244,4.887,4.887,0,0,1,1.16,3.467v1.151H14.854a2.135,2.135,0,0,0,.694,1.257,2.066,2.066,0,0,0,1.389.457,2.662,2.662,0,0,0,2.2-.984l1.354,1.6A3.784,3.784,0,0,1,18.918-.277,5.3,5.3,0,0,1,16.734.176ZM16.4-7.4q-1.3,0-1.547,1.723h2.988v-.229a1.467,1.467,0,0,0-.36-1.1A1.434,1.434,0,0,0,16.4-7.4ZM24.732-9.51l.1,1.116a3.27,3.27,0,0,1,2.716-1.292,2.407,2.407,0,0,1,2.435,1.433,3.165,3.165,0,0,1,2.795-1.433q2.892,0,2.971,3.5V0H32.774V-6a1.813,1.813,0,0,0-.246-1.063,1.048,1.048,0,0,0-.9-.334,1.4,1.4,0,0,0-1.31.782l.009.123V0H27.36V-5.985a1.906,1.906,0,0,0-.237-1.081,1.045,1.045,0,0,0-.905-.334,1.42,1.42,0,0,0-1.3.782V0H21.955V-9.51ZM42.794,0a3.344,3.344,0,0,1-.281-.853A2.754,2.754,0,0,1,40.228.176a3.374,3.374,0,0,1-2.285-.813A2.588,2.588,0,0,1,37-2.681a2.66,2.66,0,0,1,1.143-2.338,5.821,5.821,0,0,1,3.322-.791h.914v-.5q0-1.316-1.134-1.316a.927.927,0,0,0-1.055,1.042H37.23A2.655,2.655,0,0,1,38.4-8.825a4.931,4.931,0,0,1,2.993-.86,4.323,4.323,0,0,1,2.874.888,3.086,3.086,0,0,1,1.081,2.435v4.21a4.311,4.311,0,0,0,.4,2V0ZM40.939-1.934a1.652,1.652,0,0,0,.918-.237,1.487,1.487,0,0,0,.523-.536V-4.228H41.52q-1.547,0-1.547,1.389a.848.848,0,0,0,.272.655A.986.986,0,0,0,40.939-1.934Z" transform="translate(954.409 2639)" fill="#fff"/>
    <path id="Trazado_274159" data-name="Trazado 274159" d="M0,0H70.165" transform="translate(839.732 2631.438)" fill="none" stroke="#727997" stroke-width="2" stroke-dasharray="4"/>
  </g>
</svg>
