<svg xmlns="http://www.w3.org/2000/svg" width="626.459" height="520.73" viewBox="0 0 626.459 520.73">
  <g id="Grupo_874285" data-name="Grupo 874285" transform="translate(-266.402 -7794.27)">
    <path id="Trazado_274154" data-name="Trazado 274154" d="M0,0H73.332V.64H0Z" transform="translate(611.445 8256.877)" fill="#161615"/>
    <path id="Trazado_267752" data-name="Trazado 267752" d="M2228.065,1112.488a2.111,2.111,0,0,0-1.115.793,3.6,3.6,0,0,1-1.75.972l.016.119a3.638,3.638,0,0,0,1.82-1.007l.01-.012a2.108,2.108,0,0,1,1.554-.849l-.012-.12a2.492,2.492,0,0,0-.523.1" transform="translate(-1547.898 6895.395)" fill="#9eb151"/>
    <path id="Trazado_267753" data-name="Trazado 267753" d="M2245.043,1120.71l-.052.108a5.4,5.4,0,0,0,2.148.448l0-.12a5.379,5.379,0,0,1-2.094-.436" transform="translate(-1563.467 6888.845)" fill="#83982b"/>
    <path id="Trazado_267754" data-name="Trazado 267754" d="M2230.739,1009.4a16.078,16.078,0,0,0,.373,3.26l.113-.034a16.432,16.432,0,0,1-.367-3.231Z" transform="translate(-1552.256 6976.408)" fill="#83982b"/>
    <path id="Trazado_267755" data-name="Trazado 267755" d="M2214.733,1021.917l-.113.036c.208.665,1.975,1.2,2.05,1.226,1.517.517,2.461.653,2.728.394a.228.228,0,0,0,.067-.218l-.114.032a.107.107,0,0,1-.038.1c-.11.1-.583.266-2.607-.424-.021-.006-1.783-.543-1.972-1.147" transform="translate(-1539.576 6966.559)" fill="#83982b"/>
    <path id="Trazado_267756" data-name="Trazado 267756" d="M2265.576,1108.025a6.9,6.9,0,0,1-.366,1.318l-.028.032c-.1.108-.118.169-.077.213s.1.1,1.469-1.005l-.075-.094c-.675.547-1.014.8-1.184.911a7,7,0,0,0,.376-1.347Z" transform="translate(-1579.272 6898.823)" fill="#83982b"/>
    <path id="Trazado_267757" data-name="Trazado 267757" d="M2212.81,1068.71a14.4,14.4,0,0,1-3.57-5.337s.541,3.367,1.761,4.362a2.917,2.917,0,0,0,1.809.975" transform="translate(-1535.344 6933.948)" fill="#83943f"/>
    <path id="Trazado_267758" data-name="Trazado 267758" d="M2186.958,1124.359s-2.241,2.86-4.2,2.292a8.487,8.487,0,0,1-3.41-1.3l.183-.593a6.212,6.212,0,0,0,4.419,1.17s.973-.011,1.515-2.182Z" transform="translate(-1511.832 6886.456)" fill="#9eb151"/>
    <path id="Trazado_267759" data-name="Trazado 267759" d="M2170.438,996.761s-8.649-1.438-9.416-9.093a4.828,4.828,0,0,1,.485-2.369,12.716,12.716,0,0,1,.8-3.99l.74.182a5.288,5.288,0,0,1,1.2-3.564l.278.882a9.876,9.876,0,0,1,1.824-3.76l.114.8s.825.018,1.344-1.808c0,0,.493.261,1.182-1.9l.57.513a5.079,5.079,0,0,1,1.078-3.525l.532.387s.372-.117,1.016-1.982l.532.387a12.666,12.666,0,0,1,.9-2.361l.481,1.1s-.572-.514.355-1.913a5.942,5.942,0,0,1,1.537-.76s-.617-.222,1.175-1.478c0,0,.734-2.447,1.662-.8l.589,2.309s.713-.778.64,1.6c0,0,2.38,1.052,1.827,2.335,0,0,1.278.152,1,2.317s.283.465.283.465.633-1.03.8,2.1c0,0,1.888.792.883,1.939a6.681,6.681,0,0,1,.781,3.357l.034.544s1.266.987.94,3.861.363.717.363.717.362.717-.242,2.708a11.448,11.448,0,0,1-.722,4.66,6.473,6.473,0,0,1-1.061,2.273s2.188.005-1.638,2.178c0,0-2.921,2.442-8.817,1.94a25.238,25.238,0,0,0-4.042-.253" transform="translate(-1497.407 7014.371)" fill="#6d891d"/>
    <path id="Trazado_267760" data-name="Trazado 267760" d="M2252.2,1086.435l-.1.063a7.311,7.311,0,0,0,2.266,2.11l.058-.1a7.169,7.169,0,0,1-2.223-2.069" transform="translate(-1569.061 6915.807)" fill="#83982b"/>
    <path id="Trazado_267761" data-name="Trazado 267761" d="M2254.282,1103.51l-.047.11a11.744,11.744,0,0,0,4.349.723l-.005-.12a11.606,11.606,0,0,1-4.3-.713" transform="translate(-1570.738 6902.375)" fill="#9eb151"/>
    <path id="Trazado_267762" data-name="Trazado 267762" d="M2237.711,1083.991l-.033.115a20.014,20.014,0,0,0,6.308.456l-.012-.12a19.868,19.868,0,0,1-6.262-.451" transform="translate(-1557.714 6917.729)" fill="#83982b"/>
    <path id="Trazado_267763" data-name="Trazado 267763" d="M2245.317,1059.619l-.034.115a20.019,20.019,0,0,0,6.307.456l-.012-.12a19.87,19.87,0,0,1-6.262-.452" transform="translate(-1563.696 6936.901)" fill="#83982b"/>
    <path id="Trazado_267764" data-name="Trazado 267764" d="M2186.941,1085.846l-.083.087a20.149,20.149,0,0,0,5.4,3.324l.044-.111a20.024,20.024,0,0,1-5.357-3.3" transform="translate(-1517.737 6916.27)" fill="#83982b"/>
    <path id="Trazado_267765" data-name="Trazado 267765" d="M2173.966,1096.9l-.065.1a20.222,20.222,0,0,0,5.927,2.266l.023-.118a20.094,20.094,0,0,1-5.885-2.248" transform="translate(-1507.545 6907.577)" fill="#83982b"/>
    <path id="Trazado_267766" data-name="Trazado 267766" d="M2219.506,1032.021l-.106.053a4.247,4.247,0,0,1,.461,3.093l.111.042a4.278,4.278,0,0,0-.465-3.188" transform="translate(-1543.336 6958.61)" fill="#83982b"/>
    <path id="Trazado_267767" data-name="Trazado 267767" d="M2249.613,1064.659a4.164,4.164,0,0,1-1.118,2.9l.076.093a4.212,4.212,0,0,0,1.16-2.988Z" transform="translate(-1566.223 6932.937)" fill="#83982b"/>
    <path id="Trazado_267768" data-name="Trazado 267768" d="M2204.159,1041.727a16.059,16.059,0,0,0,.373,3.26l.113-.034a16.345,16.345,0,0,1-.368-3.231Z" transform="translate(-1531.347 6950.979)" fill="#83982b"/>
    <path id="Trazado_267769" data-name="Trazado 267769" d="M2192.1,1076.385a16.088,16.088,0,0,0,.373,3.26l.113-.034a16.439,16.439,0,0,1-.367-3.231Z" transform="translate(-1521.857 6923.717)" fill="#83982b"/>
    <path id="Trazado_267770" data-name="Trazado 267770" d="M2206.081,1098.372a16.062,16.062,0,0,0,.373,3.26l.113-.034a16.376,16.376,0,0,1-.368-3.231Z" transform="translate(-1532.859 6906.421)" fill="#83982b"/>
    <path id="Trazado_267771" data-name="Trazado 267771" d="M2255.51,1037.569a16.076,16.076,0,0,0,.372,3.26l.114-.034a16.354,16.354,0,0,1-.368-3.231Z" transform="translate(-1571.741 6954.25)" fill="#83982b"/>
    <path id="Trazado_267772" data-name="Trazado 267772" d="M2202.88,1068.83l-.113.036c.176.56,1.295,1.136,1.342,1.16.947.529,1.5.708,1.7.549a.2.2,0,0,0,.061-.213l-.114.033a.086.086,0,0,1-.023.086c-.054.043-.328.13-1.568-.562-.013-.006-1.123-.577-1.284-1.089" transform="translate(-1530.252 6929.656)" fill="#83982b"/>
    <path id="Trazado_267773" data-name="Trazado 267773" d="M2235.189,1097.626l-.113.035c.176.56,1.3,1.136,1.342,1.16.947.528,1.5.708,1.7.549a.2.2,0,0,0,.061-.213l-.114.033a.088.088,0,0,1-.023.086,3.359,3.359,0,0,1-1.568-.562c-.013-.007-1.124-.577-1.284-1.089" transform="translate(-1555.668 6907.004)" fill="#9eb151"/>
    <path id="Trazado_267774" data-name="Trazado 267774" d="M2212.7,1055.59l-.113.036c.209.665,1.976,1.2,2.051,1.226,1.517.517,2.461.654,2.728.394a.227.227,0,0,0,.068-.218l-.114.032a.108.108,0,0,1-.039.1c-.11.1-.583.266-2.607-.423-.02-.006-1.783-.543-1.973-1.147" transform="translate(-1537.98 6940.07)" fill="#83982b"/>
    <path id="Trazado_267775" data-name="Trazado 267775" d="M2164.691,1076.575l-.113.036c.177.56,1.3,1.135,1.343,1.16.946.528,1.5.709,1.7.549a.2.2,0,0,0,.06-.213l-.114.033a.088.088,0,0,1-.022.086c-.055.043-.328.13-1.569-.562-.013-.007-1.122-.577-1.283-1.089" transform="translate(-1500.211 6923.563)" fill="#83982b"/>
    <path id="Trazado_267776" data-name="Trazado 267776" d="M2266.981,1029.851l-.112.038a4.988,4.988,0,0,0,.766,1.643.071.071,0,0,0,.057.042c.065.008.174.021.877-2.037l-.112-.04a11.538,11.538,0,0,1-.754,1.933,5.467,5.467,0,0,1-.722-1.58" transform="translate(-1580.676 6960.595)" fill="#9eb151"/>
    <path id="Trazado_267777" data-name="Trazado 267777" d="M2196.372,1015.038s3.555-.425,5.805-11.523c0,0,3.15-7.364,2.226-12.476,0,0,1.01-4.612,1.238.026s.034.543.034.543a32.4,32.4,0,0,0,.153,10.482s-1.029,9.329-.983,12.085c0,0-.647,5.33-4.56,4.62,0,0-7.472.132-5.586-2.124Z" transform="translate(-1523.665 6992.454)" fill="#617726"/>
    <path id="Trazado_274136" data-name="Trazado 274136" d="M0,0H11.434V29.863H0Z" transform="translate(670.729 7981.451)" fill="none"/>
    <path id="Trazado_267778" data-name="Trazado 267778" d="M2208.6,987.268s-3.714-11.153-6.459-10.29c0,0-3.671.251-8.361,6.214,0,0-2.133,2.683-1.313-.051a35.17,35.17,0,0,1,7.489-10.335,20.616,20.616,0,0,1,1.853-2.8s1.151-2.856,1.48.366a20.584,20.584,0,0,0,2.926,6.7s3.032,4.866,3.261,9.5c0,0,.449,3.6-.875.691" transform="translate(-1522.002 7008.312)" fill="#617726"/>
    <path id="Trazado_274135" data-name="Trazado 274135" d="M0,0H17.27V19.564H0Z" transform="translate(670.278 7977.15)" fill="none"/>
    <path id="Trazado_267779" data-name="Trazado 267779" d="M2183.438,993.6a34.137,34.137,0,0,1,3.53,3.357,14.24,14.24,0,0,1-1.487,1.909s-.409,2.016,1.351.039a14.83,14.83,0,0,0,1.017-1.612,15.574,15.574,0,0,0,6.18.035,13.536,13.536,0,0,0,4.65-1.816l-.585.073a12.145,12.145,0,0,1-10.044,1.35c.356-.639.727-1.347,1.162-2.289a21.271,21.271,0,0,0,8.111-1.613h0c.085-.027.887-.115,2.368-1.757l.5-.942a6.03,6.03,0,0,1-2.967,2.42,20.711,20.711,0,0,1-7.844,1.517c.25-.555.507-1.159.766-1.81a16.769,16.769,0,0,0,.773-2.018,9.719,9.719,0,0,1,3.405-2.287,8.454,8.454,0,0,0,4.972-2.276l.5-.983c-1.128,2.089-5.485,2.961-5.53,2.97a8.226,8.226,0,0,0-3.119,1.854c.071-.232.1-.326.171-.59.415-1.342.805-2.817,1.145-4.42a10,10,0,0,0,6.329-4.252l.124-1.051c-.785,2.87-5.059,4.33-6.33,4.7a54.621,54.621,0,0,0,.854-6.1,5.61,5.61,0,0,0,3.386-2.776l.217-.921c-.539,1.9-2.5,2.648-3.543,2.92a62.094,62.094,0,0,0-.3-11.563s-.046-.67-.048-.282c-.04-.811-.043-.761-.1-1.613l-.042,2.111c.185,2.619.024,2.948.036,5.181-.1,1.921-.219,3.721-.5,6.193a14.48,14.48,0,0,1-3.746-4.869l.406,1.23c1.771,3.649,2.78,4.324,3.233,4.514-.243,2.01-.522,4-.939,6.1-1.313-1.552-4.825-5.751-5.55-10.477l.016.888.09,1.181a19,19,0,0,0,5.311,8.995,50.46,50.46,0,0,1-1.4,5.324c-1.481-1.767-6.524-7.965-5.941-13.376l-.238,1.04c-.576,4.408,4.74,11.265,6.06,12.891a30.333,30.333,0,0,1-1.282,3.322,14.465,14.465,0,0,0-3.169-4.125c-.034-.028-3.085-2.615-2.8-6.325l-.3-5.69-.151,1.713.013.336.142,3.633c-.3,3.849,2.869,6.531,2.9,6.557a13.735,13.735,0,0,1,3.12,4.352l.033-.014a19.3,19.3,0,0,1-1.157,2.131,34.332,34.332,0,0,0-3.6-3.235,9.044,9.044,0,0,1-3.418-8.325l.01-1.779-.227,1.536c-.925,5.436,3.429,8.782,3.472,8.812" transform="translate(-1512.215 7012.292)" fill="#6c7b28"/>
    <path id="Trazado_267780" data-name="Trazado 267780" d="M2273.444,1062.165l-.063.125c.023-.041.044-.082.063-.125" transform="translate(-1585.799 6934.898)" fill="#73882d"/>
    <path id="Trazado_267781" data-name="Trazado 267781" d="M2183.615,994.159a33.521,33.521,0,0,1,3.479,3.578,11.742,11.742,0,0,1-1.437,1.688s-.485,2.12,1.351.039a9.315,9.315,0,0,0,.907-1.419,17.794,17.794,0,0,0,6.291-.157,13.529,13.529,0,0,0,4.65-1.816l-.585.074a12.148,12.148,0,0,1-10.044,1.35c.356-.64.667-1.218,1.1-2.16a23,23,0,0,0,8.17-1.742h0c.086-.027.887-.115,2.368-1.757l.5-.942a6.031,6.031,0,0,1-2.966,2.42,20.7,20.7,0,0,1-7.844,1.516c.25-.555.508-1.159.766-1.81a11.46,11.46,0,0,0,.7-1.792c.594-.565,2.289-2.248,3.48-2.513a8.454,8.454,0,0,0,4.972-2.276l.5-.983c-1.128,2.089-5.484,2.961-5.53,2.97a8.23,8.23,0,0,0-3.118,1.854c.071-.231.1-.326.171-.59.415-1.342.751-2.562,1.09-4.165a10.774,10.774,0,0,0,6.383-4.507l.124-1.05c-.785,2.869-5.058,4.329-6.33,4.7a54.612,54.612,0,0,0,.855-6.1A5.609,5.609,0,0,0,2197,975.8l.217-.922c-.539,1.9-2.5,2.649-3.543,2.92a62.027,62.027,0,0,0-.3-11.562s-.045-.67-.048-.282c-.04-.811-.043-.761-.1-1.613l-.042,2.111c.185,2.619.023,2.949.036,5.181-.1,1.921-.219,3.72-.505,6.193a14.469,14.469,0,0,1-3.746-4.868l.406,1.23c1.772,3.649,2.78,4.324,3.233,4.514-.243,2.009-.522,4-.938,6.1-1.313-1.552-4.825-5.752-5.551-10.478l.016.888.09,1.181a20.3,20.3,0,0,0,5.259,9.244,45.657,45.657,0,0,1-1.344,5.074c-1.48-1.767-6.523-7.965-5.941-13.375l-.238,1.04c-.576,4.408,4.674,11.461,6,13.087a26.933,26.933,0,0,1-1.218,3.126,14.466,14.466,0,0,0-3.169-4.126c-.034-.028-3.084-2.615-2.8-6.324l-.3-5.691-.151,1.714.014.336.141,3.633c-.3,3.849,2.869,6.531,2.9,6.557a12.84,12.84,0,0,1,3.052,4.518l-.083.2a13.02,13.02,0,0,1-.973,1.75,34.31,34.31,0,0,0-3.6-3.235,9.043,9.043,0,0,1-3.418-8.325l.01-1.779-.226,1.536c-.926,5.435,3.429,8.782,3.471,8.811" transform="translate(-1512.354 7011.852)" fill="#9eb151"/>
    <path id="Trazado_267782" data-name="Trazado 267782" d="M2273.621,1062.727l-.063.125c.022-.041.043-.083.063-.125" transform="translate(-1585.938 6934.456)" fill="#9eb151"/>
    <path id="Trazado_267783" data-name="Trazado 267783" d="M2218.669,996.393a.1.1,0,0,1,.031,0,11.245,11.245,0,0,1,.072,1.409c-.02,1.321-.2,5.61-.2,5.654-.1,1.657-.518,4.508-.523,4.536a65.025,65.025,0,0,1-2.187,8.2,56.321,56.321,0,0,1-3.509,7.787c-.026.048-.372.7-.526.675-.235-.033.225-.745.251-.793a51.543,51.543,0,0,0,3.594-7.729,64.7,64.7,0,0,0,2.18-8.172c0-.028.426-2.87.521-4.518,0-.043.231-4.344.251-5.661,0-.044.008-1.375.049-1.388" transform="translate(-1537.323 6986.641)" fill="#d6e09e"/>
    <path id="Trazado_267784" data-name="Trazado 267784" d="M2130.839,997.251s-11.844-14.9-6.281-37.561c0,0,.749-6.513,6.94,1.65,0,0,16.468,14.4,4.764,37.2,0,0-2.183,3.768-5.423-1.289" transform="translate(-1467.561 7017.445)" fill="#94b208"/>
    <path id="Trazado_267785" data-name="Trazado 267785" d="M2138.382,1055.8s-9.088-4.289-10.855-17.267c0,0-1.714-5.3,3.476-.642,0,0,6.206,5.594,8.158,1.938a16.389,16.389,0,0,0,2.124-9.305s-1.917-7.715,1.231-2.036c0,0,5.485,16-4.133,27.311" transform="translate(-1470.852 6963.034)" fill="#51681e"/>
    <path id="Trazado_267786" data-name="Trazado 267786" d="M2130.436,974.037s-1.039,2.542-2.176,10.452a21.942,21.942,0,0,0,3.523,12.21s-3.856-16.446-1.347-22.662" transform="translate(-1471.633 7004.223)" fill="#cad46f"/>
    <path id="Trazado_267787" data-name="Trazado 267787" d="M2360.984,923.7s-4.484-27.1,32.5-50.608c0,0,15.781-8.085,13.358-4.362,0,0-2.115,1.992,10.26-.166,0,0,12.1-5.493,13.51-1.947,0,0-4.144,1.91,3.29,1.212,0,0,14.177-2.417,30.7,8.137,0,0,1.074,3.783,8.07,3.9,0,0,4.631.268,15.29,10.922,0,0,23.189,25.527,31.469,42.891l1.223,6.2-3.831.179s9.144,7.679,8.776,12.981l-3.094,4.195a20.909,20.909,0,0,1,8.651,12.063l-3.522,13.066s-95.912-73.16-129.925-69.385c0,0-20.344-2.319-36.727,10.726" transform="translate(-1654.576 7089.66)" fill="#72931b"/>
    <path id="Trazado_267788" data-name="Trazado 267788" d="M2465.317,954.115a.694.694,0,0,0,.463-.607c1.086-15.254,16.5-25.431,16.656-25.531a.7.7,0,0,0,.209-.957.669.669,0,0,0-.937-.213c-.66.426-16.145,10.658-17.282,26.6a.679.679,0,0,0,.892.709" transform="translate(-1736.079 7041.46)" fill="#646b25"/>
    <path id="Trazado_267789" data-name="Trazado 267789" d="M2516.779,951.416a.678.678,0,0,0,.385-.331c10.648-20.343,44.81-29.359,45.157-29.446a.687.687,0,0,0,.49-.842.677.677,0,0,0-.823-.5c-1.429.369-35.093,9.26-46.023,30.137a.7.7,0,0,0,.28.938.664.664,0,0,0,.535.047" transform="translate(-1776.561 7046.514)" fill="#646b25"/>
    <path id="Trazado_267790" data-name="Trazado 267790" d="M2665.108,1008.305a.688.688,0,0,0,.438-.459c4.953-16.782,33.075-27.778,33.359-27.887a.7.7,0,0,0,.394-.892.652.652,0,0,0-.875-.405c-1.183.457-29.034,11.354-34.179,28.786a.7.7,0,0,0,.453.863.664.664,0,0,0,.409-.006" transform="translate(-1893.242 7000.624)" fill="#646b25"/>
    <path id="Trazado_267791" data-name="Trazado 267791" d="M2799.048,1094.535l.1-1.38c-.235-.019-23.8-1.583-39.551,9.5l.77,1.142c15.365-10.814,38.452-9.28,38.683-9.265" transform="translate(-1968.27 6910.589)" fill="#616e20"/>
    <path id="Trazado_267792" data-name="Trazado 267792" d="M2392.283,994.364s-10.285-14.017,34.1-31.431c0,0,22.052-18.1,78.089,23.837,0,0,30.069,10.452,37.683,60.651l-92.578-60.032s-11.564-7.387-36.346-.228c0,0-16.027,2.682-19.209,6.122Z" transform="translate(-1678.52 7016.014)" fill="#4e6d20"/>
    <path id="Trazado_274138" data-name="Trazado 274138" d="M0,0H150.9V88.373H0Z" transform="translate(712.732 7975.061)" fill="none"/>
    <path id="Trazado_267793" data-name="Trazado 267793" d="M2311.979,1061.861s19.3-42.525,84.909-2.218c0,0,33.6,16.427,82.664,61.19,0,0,10.1,10.637,15.2,24.075,0,0,3.51,13.987,4.84.769,0,0,5.365-11.429-5.823-32.216,0,0,.974-4.591-9.3-11.663s-1.1-1.743-1.1-1.743-3.9-10.769-9.692-15.35c0,0,1.192-4.243-8.44-8.771,0,0-4.793-3.762-3.306-5.237,0,0,6.794-1.5-8.121-7.5s-1.222-1.167-1.222-1.167-7.286-3.113-5.114-5.034c0,0,3.343-4.667-7.9-7.149,0,0-4.175.281-8.364-6.351,0,0,.389-3.217-8.311-2.435a19.135,19.135,0,0,0-14.767-8.064,14.168,14.168,0,0,1-7.484-4.955s-1.887-2.217-10.365-1.087c0,0-1.732,2.621-5.378-2.39,0,0-.173-3.339-10.385.411a26.346,26.346,0,0,1-6.527-1.141s-1.374-6.009-8.554-1.289c0,0-5.813,3.822-11.336,3.5,0,0-10.311,2.828-16.171,9.643,0,0-9.538,6.133-21.986,23.2Z" transform="translate(-1614.56 6967.485)" fill="#a8a756"/>
    <path id="Trazado_267794" data-name="Trazado 267794" d="M2605.764,1100.923a.684.684,0,0,0,.442-.477.694.694,0,0,0-.481-.85c-39.171-10.749-50.475,2.089-50.936,2.639a.7.7,0,0,0,.075.975.667.667,0,0,0,.955-.072c.11-.126,11.339-12.687,49.555-2.2a.659.659,0,0,0,.389-.012" transform="translate(-1807.037 6908.817)" fill="#727b29"/>
    <path id="Trazado_267795" data-name="Trazado 267795" d="M2739.093,1174.2a.687.687,0,0,0,.424-.416.7.7,0,0,0-.4-.892c-26.063-9.947-47.735-2.437-47.925-2.378a.7.7,0,0,0-.418.883.675.675,0,0,0,.865.426c.218-.076,21.419-7.4,47,2.367a.674.674,0,0,0,.449.01" transform="translate(-1914.105 6851.851)" fill="#727b29"/>
    <path id="Trazado_267796" data-name="Trazado 267796" d="M2371.066,1100.665s30.522-25.994,93.3,22.1c0,0,32.594,15.6,54.963,50.269,0,0,5.774,4.233-17.215-12.257,0,0-36.96-30.632-62.34-45.543,0,0-37.12-22.009-60.014-15.353,0,0-3.152-.394-12.164,6.025l-.586,1.169s-4.52.708,4.052-6.408" transform="translate(-1658.516 6910.13)" fill="#8f8d3c"/>
    <path id="Trazado_274139" data-name="Trazado 274139" d="M0,0H154.155V79.866H0Z" transform="translate(707.307 8003.783)" fill="none"/>
    <path id="Trazado_267797" data-name="Trazado 267797" d="M2012.41,344.193s36.321-196.453,48.627-221.652c0,0,.075-14.1-15.974-6.07,0,0-42.362,185.841-55.132,206.558,0,0-.891,13.873-12.889,2.2,0,0-33.752-30.5-48.5-39.869l-1.728,1.694s53.25,40.764,55.577,85.61c0,0-.377,252.764,13.517,261.579,0,0,21.918.119,25.46-7.55C2021.365,626.7,1989.379,417.956,2012.41,344.193Z" transform="translate(-1313.177 7680.753)" fill="#707d35"/>
    <path id="Trazado_267798" data-name="Trazado 267798" d="M1996.147,341.922s36.32-196.453,48.627-221.651c0,0,.075-14.1-15.975-6.07,0,0-42.361,185.841-55.132,206.558,0,0-.892,13.874-12.888,2.2,0,0-32.011-33.346-46.761-42.717l-3.47,4.541s53.25,40.764,55.576,85.61c0,0-.377,252.763,13.517,261.579,0,0,21.918.119,25.461-7.549C2005.1,624.426,1973.116,415.685,1996.147,341.922Z" transform="translate(-1300.385 7682.54)" fill="#9eb151"/>
    <path id="Trazado_267799" data-name="Trazado 267799" d="M1097.938,1391.594c6.049-19.965,6.487-27.215,6.5-27.514l-1.014-.054c0,.072-.46,7.462-6.458,27.263Z" transform="translate(-660.397 6697.445)" fill="#83982b"/>
    <path id="Trazado_267800" data-name="Trazado 267800" d="M1215.3,1692.43c6.049-19.965,6.487-27.215,6.5-27.514l-1.014-.054c0,.072-.46,7.463-6.459,27.263Z" transform="translate(-752.714 6460.799)" fill="#83982b"/>
    <path id="Trazado_267801" data-name="Trazado 267801" d="M1255.791,1637.681l1.015.043c.255-6-12.4-15.54-12.935-15.944-10.713-8.634-17.916-12.5-20.818-11.178a1.953,1.953,0,0,0-1.177,1.57l1.012.073a.926.926,0,0,1,.606-.71c1.182-.51,5.47-.448,19.762,11.07.142.106,12.768,9.624,12.536,15.076" transform="translate(-758.651 6503.682)" fill="#83982b"/>
    <path id="Trazado_267802" data-name="Trazado 267802" d="M1870.864,1357.932l1.014.043c.215-5.056-7.117-13-7.429-13.332-6.084-7.057-10.039-10.146-12.076-9.424a1.754,1.754,0,0,0-1.109,1.544l1.014.063a.744.744,0,0,1,.433-.631c.564-.192,3.019-.1,10.987,9.146.087.094,7.361,7.971,7.165,12.59" transform="translate(-1253.75 6720.187)" fill="#83982b"/>
    <path id="Trazado_267803" data-name="Trazado 267803" d="M936.558,1451.116l1.015.015c.176-11.264-1.06-14.841-1.373-15.56a.626.626,0,0,0-.337-.513c-.5-.253-1.348-.676-13,13.941l.787.653c8.3-10.409,10.913-12.876,11.7-13.458.336.935,1.368,4.666,1.207,14.921" transform="translate(-523.439 6641.627)" fill="#9eb151"/>
    <path id="Trazado_267804" data-name="Trazado 267804" d="M992.033,1269.325s-2.6,101.269,22.018,102.316c0,0,30.29,8.714,85.435-25.88,0,0,25-15.5,10.428,4.265,0,0-36.951,39.02-90.429,61.828,0,0-8.146,7.633-23.077,17.26,0,0-17.6,19.771-10.86-7.3,0,0,4.262-21.48-4.031-62.871,0,0-10.238-48.315,1.448-86.581,0,0,6.88-30.487,9.067-3.033" transform="translate(-566.316 6780.957)" fill="#617726"/>
    <path id="Trazado_274145" data-name="Trazado 274145" d="M0,0H137.106V178.216H0Z" transform="translate(411.053 8038.82)" fill="none"/>
    <path id="Trazado_267805" data-name="Trazado 267805" d="M1487.422,1168.028s12.2,21.3,13.2,53.716c0,0,5.456-28.876-1.469-40.515,0,0-2.983-8.882-11.727-13.2" transform="translate(-967.54 6851.624)" fill="#83943f"/>
    <path id="Trazado_267806" data-name="Trazado 267806" d="M1687.2,854.675s26.382-16.615,40.479-6.282c0,0,16.913,11.217,23.673,20.516l-3.205,4.267s-10.131-12.99-31.758-21.108c0,0-4.517-2.7-18.976,11.934Z" transform="translate(-1124.694 7105.721)" fill="#9eb151"/>
    <path id="Trazado_267807" data-name="Trazado 267807" d="M1089.314,807.736c-26.375-10.241-31.81-13.893-31.81-13.893-46.014-21.337-76.654-10.1-76.654-10.1-37.145,6.4-19.544,12.851-19.544,12.851-11.537,8.629-15.169,15.314-15.169,15.314-12.853,13.132-19.394,35.655-19.394,35.655C916.08,861.932,916.9,868.8,916.9,868.8s11.827-15.455.825,6.876-3.682,34.044-3.682,34.044l-1.307,4.507c-6.11,12.279-3.492,29.492-3.492,29.492-11.44,6.35,1.46,18.3,1.46,18.3-7.806,25.887.291,19.393.291,19.393s9.455-12.14.922,4.6,1.309,21.716,1.309,21.716c-8.192,8.776,7.9,24.276,7.9,24.276-7.514,19.063.487,14.842.487,14.842l-1.987,20.437c2.667,16.073,15.713-1.613,15.713-1.613,18.084-4.931,13.767-8.537,13.767-8.537a50.509,50.509,0,0,0,14.594-1.656c6.179-4.621,8.159-8.44,8.666-10.991l.45,6.818a109.09,109.09,0,0,0,14.107-16.5l3.154,4.695c10.616-13.229,13.961-13.087,13.961-13.087l3.154,4.7c16.093-10.718,18.957-25.415,18.957-25.415l3.1,5.831c11.828-15.458,15.032-11.9,15.032-11.9,9.5-13.277,16.093-10.718,16.093-10.718l-1.4,6.783c16.048-9.579,25.646-25.13,25.646-25.13l-.339,7.966a45.611,45.611,0,0,0,20.071-25.368l5.431,3.65c9.311-8.723,18.037-30.013,18.037-30.013a41.725,41.725,0,0,0,10.809-17.781C1154.772,844.719,1089.314,807.736,1089.314,807.736Z" transform="translate(-509.009 7156.239)" fill="#6d891d"/>
    <path id="Trazado_267808" data-name="Trazado 267808" d="M1440.233,905.9a18.057,18.057,0,0,0,11.292-3.164c10.022-4.229,16.859-2.768,16.926-2.752l.222-1.011c-.29-.065-7.219-1.564-17.6,2.833l-.117.069a17.992,17.992,0,0,1-14.991,2.328l-.256,1a21.243,21.243,0,0,0,4.52.695" transform="translate(-926.864 7063.506)" fill="#9eb151"/>
    <path id="Trazado_267809" data-name="Trazado 267809" d="M1377.78,854.69l-.292.993c.1.03,9.909,3.082,15.984,9l.7-.75C1387.92,857.84,1378.191,854.816,1377.78,854.69Z" transform="translate(-881.063 7098.104)" fill="#83982b"/>
    <path id="Trazado_267810" data-name="Trazado 267810" d="M1212.686,993.665l-.767.679c.093.109,9.274,11.021,11.869,23.276l.992-.22C1222.129,1004.88,1212.781,993.775,1212.686,993.665Z" transform="translate(-750.82 6988.783)" fill="#83982b"/>
    <path id="Trazado_267811" data-name="Trazado 267811" d="M1150.055,871.36l-.308.987c.2.065,20.349,6.673,32.524,18.363l.7-.755C1170.622,878.1,1150.259,871.426,1150.055,871.36Z" transform="translate(-701.914 7084.991)" fill="#9eb151"/>
    <path id="Trazado_267812" data-name="Trazado 267812" d="M1149.185,1061.1l-.254,1c.3.079,30.654,8.111,49.111,22l.6-.833C1180.028,1069.262,1149.491,1061.182,1149.185,1061.1Z" transform="translate(-701.272 6935.734)" fill="#83982b"/>
    <path id="Trazado_267813" data-name="Trazado 267813" d="M1016.914,1236.342l-.253,1c.3.079,30.654,8.111,49.11,22l.6-.834C1047.757,1244.5,1017.22,1236.422,1016.914,1236.342Z" transform="translate(-597.225 6797.885)" fill="#83982b"/>
    <path id="Trazado_267814" data-name="Trazado 267814" d="M1635.413,1099.543l-.681.775c.234.212,23.484,21.487,33.531,42.436l.914-.461C1659.044,1121.162,1635.648,1099.757,1635.413,1099.543Z" transform="translate(-1083.419 6905.496)" fill="#83982b"/>
    <path id="Trazado_267815" data-name="Trazado 267815" d="M1738.231,1080.337l-.524.888c.269.165,27.07,16.745,40.838,35.46l.812-.623C1765.47,1097.185,1738.5,1080.5,1738.231,1080.337Z" transform="translate(-1164.422 6920.604)" fill="#83982b"/>
    <path id="Trazado_267816" data-name="Trazado 267816" d="M1377.106,1515.832l-.772-.671c-.308.367-7.514,9.206-5.542,27.2l1.009-.117C1369.881,1524.731,1377.034,1515.92,1377.106,1515.832Z" transform="translate(-875.527 6578.558)" fill="#83982b"/>
    <path id="Trazado_267817" data-name="Trazado 267817" d="M1208.417,1179.524c-.446.164-11,4.188-18.052,20.82l.932.41c6.879-16.223,17.356-20.217,17.461-20.255Z" transform="translate(-733.865 6842.58)" fill="#83982b"/>
    <path id="Trazado_267818" data-name="Trazado 267818" d="M1529.042,1480.734c0,.073-.459,7.463-6.458,27.264l.969.3c6.049-19.965,6.487-27.215,6.5-27.514Z" transform="translate(-995.199 6605.64)" fill="#83982b"/>
    <path id="Trazado_267819" data-name="Trazado 267819" d="M1727.194,1235.171c0,.072-.46,7.463-6.459,27.263l.971.3c6.048-19.965,6.487-27.215,6.5-27.514Z" transform="translate(-1151.07 6798.807)" fill="#83982b"/>
    <path id="Trazado_267820" data-name="Trazado 267820" d="M1678.677,1016.013c0,.073-.46,7.463-6.459,27.263l.97.3c6.049-19.965,6.487-27.215,6.5-27.515Z" transform="translate(-1112.906 6971.203)" fill="#83982b"/>
    <path id="Trazado_267821" data-name="Trazado 267821" d="M1534.348,1295.555c-6.084-7.057-10.04-10.147-12.075-9.423a1.753,1.753,0,0,0-1.109,1.544l1.014.063a.746.746,0,0,1,.434-.63c.562-.193,3.019-.1,10.987,9.146.087.094,7.361,7.971,7.165,12.59l1.015.043C1541.992,1303.831,1534.66,1295.89,1534.348,1295.555Z" transform="translate(-994.081 6758.8)" fill="#83982b"/>
    <path id="Trazado_267822" data-name="Trazado 267822" d="M1358.122,971.975c-6.084-7.058-10.04-10.146-12.076-9.424a1.752,1.752,0,0,0-1.109,1.544l1.013.063a.939.939,0,0,1,.015-.1c.511,1.2,7.235,3.774,11.406,8.612.087.094,7.361,7.97,7.164,12.59l1.015.043C1365.765,980.25,1358.434,972.31,1358.122,971.975Z" transform="translate(-855.457 7013.339)" fill="#9eb151"/>
    <path id="Trazado_267823" data-name="Trazado 267823" d="M1358.344,1354.8c-10.713-8.634-17.916-12.505-20.819-11.179a1.955,1.955,0,0,0-1.178,1.57l1.013.073a.925.925,0,0,1,.606-.71c1.181-.509,5.47-.448,19.762,11.07.142.107,12.769,9.624,12.537,15.077l1.014.043C1371.535,1364.746,1358.883,1355.206,1358.344,1354.8Z" transform="translate(-848.7 6713.695)" fill="#83982b"/>
    <path id="Trazado_267824" data-name="Trazado 267824" d="M1195.929,833.285c-.258-.61-.482-1.136-14.762,3.843l.327.98c7.031-2.451,10.493-3.492,12.193-3.915-.828.758-2.645,3.015-6.963,9.814l.852.562c4.647-7.318,6.289-9.158,6.793-9.617l.318-.173C1195.769,834.188,1196.129,833.755,1195.929,833.285Z" transform="translate(-726.63 7115.243)" fill="#83982b"/>
    <path id="Trazado_267825" data-name="Trazado 267825" d="M1061.936,1761.269s.049-.084.141-.249C1071.392,1730.493,1061.936,1761.269,1061.936,1761.269Z" transform="translate(-632.84 6395.78)" fill="#617726"/>
    <path id="Trazado_267826" data-name="Trazado 267826" d="M1166.974,837.843c-29.435-17.213-50.183,24.088-50.183,24.088C1109.132,884.4,1073.649,957,1073.649,957c-7.253,45.318-27.313,81.81-29.186,85.146-.44,1.445-.923,3.024-1.451,4.753-11.681,38.265,9.892,3.84,9.892,3.84,7.458-44.141,54.292-94.593,54.292-94.593,50.47-83.353,80.336-76.384,80.336-76.384l18.23-8.343C1227.531,858.659,1166.974,837.843,1166.974,837.843Z" transform="translate(-615.226 7114.658)" fill="#617726"/>
    <path id="Trazado_274134" data-name="Trazado 274134" d="M0,0H170.941V231.311H0Z" transform="translate(424.318 7948.304)" fill="none"/>
    <path id="Trazado_267827" data-name="Trazado 267827" d="M1155.2,899.7c-6.153-8.823-15.864-31.068-18.638-37.544,5.753-4.329,11.65-9.152,17.583-12.2,0,0,9.126-14.058-10.808-3.19a127.578,127.578,0,0,0-12.888,10.083c-4.95-3.429-23.92-14.256-49.661-18.388a115.162,115.162,0,0,0-42.74,1.1l4.925,1.116a103.511,103.511,0,0,1,84.81,18.478c-4.73,4.143-9.78,8.785-16.024,15.148-6.718-3-29.813-10.883-70.014-10.682h-.005c-.768-.033-7.476-1.667-24.19,7.3l-6.792,6.164a51.454,51.454,0,0,1,30.939-10.927c37.8-.176,60.078,7.533,67.582,10.682-3.637,3.766-7.468,7.9-11.444,12.43a143.593,143.593,0,0,0-12.108,14.09c-6.429,2.841-23.721,9.894-34.087,8.561-1.62-.258-24.152-6.834-46.674,3.883l-6.86,6.51c15.177-13.625,52.8-7.934,53.186-7.871,9.255,1.191,22.329-2.549,30.515-5.891-1.244,1.672-1.73,2.357-3.094,4.28-7.252,9.661-14.7,20.467-22.1,32.468-8.162-1.052-39.393-3.943-63.352,15.927l-4.066,8.149c14.683-20.958,53.354-20.271,64.686-19.586a471.326,471.326,0,0,0-24.656,46.929c-6.795-.708-20.022.053-35.357,12.582l-4.432,6.834c9.864-13.787,27.829-14.15,37.043-13.29a537.508,537.508,0,0,0-31.3,94.585s-1.589,5.562-.435,2.426c-2.038,6.689-1.873,6.3-3.871,13.376l6.492-16.991c6.141-21.769,8.4-23.965,14.812-42.092,6.441-15.264,12.612-29.51,22.123-48.715,3.384,6.749,11.822,19.086,15.972,50.429l.319-11.157c-3.628-34.762-9.776-43.189-12.878-46.055,7.816-15.574,15.872-30.917,25.333-46.662,6.046,16.424,22.085,60.746,14.148,101.175l2.467-7.241,2.715-9.839c3.924-45.832-10.579-75.12-16.546-88.453a433.794,433.794,0,0,1,26.754-39.06c6.767,18.659,29.311,83.662,8.846,125.806l4.953-7.733c17.485-34.035-5.326-105.182-11.223-122.223a261.059,261.059,0,0,1,20.007-23.165,125.114,125.114,0,0,0,13.5,42.717c.191.329,17.216,30.225,4.083,59.45l-14.2,46.982,6.2-13.445.874-2.762,9.449-29.858c13.633-30.318-4.062-61.33-4.242-61.638-11.106-20.476-12.425-44.177-12.439-44.412l-.308.017a165.394,165.394,0,0,1,15.538-13.882c3.082,7.182,13.346,27.855,19.555,36.764.256.363,24.594,35.2,3.258,77.485l-5.263,14.392,6.3-11.788c23.295-41.341-2.015-81.222-2.272-81.58" transform="translate(-575.621 7112.041)" fill="#6c7b28"/>
    <path id="Trazado_267828" data-name="Trazado 267828" d="M1026.862,1237.774l.872-.827q-.449.4-.872.827" transform="translate(-605.249 6797.41)" fill="#73882d"/>
    <path id="Trazado_267829" data-name="Trazado 267829" d="M1155.415,894.627c-6.153-8.823-14.813-32.707-17.587-39.183,5.752-4.329,10.552-6.431,16.485-9.476,0,0,10.093-15.762-10.762-4.273,0,0-2.918,1.527-11.439,8.847-4.95-3.429-25.369-13.021-51.11-17.152a115.161,115.161,0,0,0-42.74,1.1l4.925,1.116A103.512,103.512,0,0,1,1128,854.081c-4.73,4.143-8.924,7.916-15.168,14.278-6.718-3-30.669-10.013-70.87-9.812h0c-.768-.033-7.476-1.667-24.19,7.3l-6.792,6.165a51.455,51.455,0,0,1,30.939-10.927c37.8-.176,60.078,7.533,67.582,10.682-3.637,3.766-7.468,7.9-11.444,12.43-.7.684-3.868,3.478-10.845,12.475-6.429,2.841-24.984,11.508-35.351,10.175-1.619-.258-24.152-6.835-46.674,3.883l-6.86,6.51c15.177-13.625,52.8-7.934,53.186-7.871,9.255,1.191,22.329-2.549,30.515-5.891-1.244,1.672-1.73,2.357-3.094,4.28-7.252,9.661-13.518,18.566-20.917,30.567-8.163-1.052-40.573-2.043-64.532,17.828l-4.067,8.149c14.684-20.957,53.354-20.271,64.686-19.586a471.323,471.323,0,0,0-24.656,46.929c-6.795-.708-20.022.053-35.358,12.581l-4.432,6.834c9.864-13.787,27.829-14.15,37.043-13.29a537.514,537.514,0,0,0-31.3,94.586s-1.588,5.562-.435,2.426c-2.038,6.689-1.873,6.3-3.871,13.376l6.492-16.991c6.141-21.769,8.4-23.965,14.812-42.093,6.441-15.264,12.612-29.51,22.123-48.715,3.384,6.749,11.822,19.086,15.973,50.429l.319-11.157c-3.628-34.762-9.775-43.19-12.878-46.056,7.816-15.575,15.872-30.918,25.333-46.662,6.046,16.424,22.085,60.746,14.148,101.175l2.467-7.242,2.715-9.839c3.924-45.832-9.437-76.984-15.4-90.317a394.393,394.393,0,0,1,25.613-37.2c6.767,18.659,29.311,83.662,8.846,125.807l4.953-7.733c17.485-34.034-4.231-106.581-10.128-123.623a231.216,231.216,0,0,1,18.912-21.765,125.1,125.1,0,0,0,13.5,42.717c.19.33,17.216,30.225,4.083,59.45l-14.2,46.983,6.2-13.445.874-2.763,9.449-29.858c13.633-30.318-4.063-61.33-4.242-61.638-11.106-20.476-11.39-45.322-11.4-45.557l1.255-1.388a112.086,112.086,0,0,1,12.94-11.331c3.082,7.182,13.346,27.855,19.555,36.764.256.363,24.594,35.2,3.258,77.485L1151.386,988l6.3-11.788C1180.981,934.867,1155.672,894.986,1155.415,894.627Z" transform="translate(-575.789 7116.031)" fill="#9eb151"/>
    <path id="Trazado_267830" data-name="Trazado 267830" d="M1027.077,1232.7l.872-.828q-.449.4-.872.828" transform="translate(-605.418 6801.4)" fill="#9eb151"/>
    <path id="Trazado_267831" data-name="Trazado 267831" d="M1209.333,880.526c-1.185-.631-5.856,3.617-6.208,3.93s-33.973,30.352-50.953,52.833c-.289.366-29.061,36.9-41.531,60.079-.118.219-11.829,22.083-17.428,35.233-.145.344-14.107,34.58-18.122,45.225-.167.441-3.969,11.465-3.527,11.632a.852.852,0,0,0,.265.055c.359.015,4.3-10.749,4.433-11.1,4-10.615,18.38-44.8,18.523-45.144,5.567-13.076,17.243-34.873,17.36-35.091,12.4-23.05,41.079-59.464,41.379-59.843,16.889-22.36,51.14-51.818,51.476-52.117C1205.352,885.9,1211.122,881.478,1209.333,880.526Z" transform="translate(-640.385 7077.832)" fill="#d6e09e"/>
    <path id="Trazado_267838" data-name="Trazado 267838" d="M2145.71,1392.722l-.018-.181c-3.773-24.446-4.836-176.582-4.867-181.215a104.529,104.529,0,0,0-5.054-45.847c-3.8-10.737-8.088-16.651-8.269-16.9l-2.754,2.016a68.8,68.8,0,0,1,7.854,16.16,101.167,101.167,0,0,1,4.819,44.3l-.01.1v.1c.041,6.385,1.056,156.5,4.894,181.72.052,1.087.566,11.722,1.38,22.83,1.753,23.9,5.476,30.642,5.942,31.559h4.068C2151.8,1443.633,2146.506,1409.742,2145.71,1392.722Z" transform="translate(-1468.879 6866.921)" fill="#b8c578"/>
    <path id="Trazado_267839" data-name="Trazado 267839" d="M2136.891,1130.775a2.12,2.12,0,0,0,1.13-.772,3.593,3.593,0,0,1,1.769-.939l-.014-.119a3.635,3.635,0,0,0-1.839.973l-.01.012a2.108,2.108,0,0,1-1.57.819l.01.12a2.489,2.489,0,0,0,.526-.094" transform="translate(-1478.011 6882.367)" fill="#9eb151"/>
    <path id="Trazado_267840" data-name="Trazado 267840" d="M2124.722,1127.359l.054-.107a5.4,5.4,0,0,0-2.139-.49v.12a5.375,5.375,0,0,1,2.085.476" transform="translate(-1467.219 6884.084)" fill="#83982b"/>
    <path id="Trazado_267841" data-name="Trazado 267841" d="M2143.213,1229.059a16.085,16.085,0,0,0-.31-3.266l-.114.032a16.4,16.4,0,0,1,.306,3.237Z" transform="translate(-1483.071 6806.184)" fill="#83982b"/>
    <path id="Trazado_267842" data-name="Trazado 267842" d="M2143.24,1222.036l.114-.033c-.2-.668-1.952-1.241-2.027-1.265-1.507-.546-2.448-.7-2.72-.446a.225.225,0,0,0-.071.217l.114-.03a.107.107,0,0,1,.041-.1c.112-.1.588-.255,2.6.473.02.007,1.771.577,1.95,1.185" transform="translate(-1479.723 6810.605)" fill="#83982b"/>
    <path id="Trazado_267843" data-name="Trazado 267843" d="M2106.38,1136a6.875,6.875,0,0,1,.392-1.311l.028-.031c.1-.106.121-.167.081-.211s-.1-.107-1.488.977l.073.1c.686-.533,1.03-.778,1.2-.888a7.023,7.023,0,0,0-.4,1.34Z" transform="translate(-1453.654 6878.06)" fill="#83982b"/>
    <path id="Trazado_267844" data-name="Trazado 267844" d="M2151.048,1162.242a14.4,14.4,0,0,1,3.468,5.4s-.477-3.377-1.677-4.4a2.917,2.917,0,0,0-1.791-1.009" transform="translate(-1489.568 6856.175)" fill="#83943f"/>
    <path id="Trazado_267845" data-name="Trazado 267845" d="M2162.746,1115.76s2.295-2.817,4.24-2.212a8.481,8.481,0,0,1,3.385,1.364l-1.463,1.651a2.9,2.9,0,0,0-3.127-2.316s-.973-.008-1.557,2.153Z" transform="translate(-1498.771 6894.546)" fill="#9eb151"/>
    <path id="Trazado_267846" data-name="Trazado 267846" d="M2110.4,1121.344s8.62,1.6,9.241,9.272a4.828,4.828,0,0,1-.53,2.359,12.711,12.711,0,0,1-.871,3.975l-.737-.2a5.289,5.289,0,0,1-1.269,3.541l-.26-.888a9.877,9.877,0,0,1-1.9,3.724l-.1-.8s-.824-.034-1.378,1.782c0,0-.488-.27-1.217,1.872l-.56-.524a5.08,5.08,0,0,1-1.146,3.5l-.524-.4s-.375.11-1.054,1.962l-.525-.4a12.666,12.666,0,0,1-.942,2.343l-.46-1.1s.561.524-.392,1.906a5.93,5.93,0,0,1-1.552.73s.613.234-1.2,1.455c0,0-.78,2.433-1.677.768l-.544-2.32s-.727.765-.609-1.612c0,0-2.359-1.1-1.782-2.369,0,0-1.274-.177-.957-2.336s-.274-.47-.274-.47-.653,1.018-.758-2.119c0,0-1.874-.828-.846-1.956a6.678,6.678,0,0,1-.717-3.371l-.024-.544s-1.247-1.011-.866-3.878-.348-.724-.348-.724-.348-.724.293-2.7a11.46,11.46,0,0,1,.81-4.645,6.478,6.478,0,0,1,1.1-2.252s-2.187-.046,1.68-2.146c0,0,2.967-2.386,8.853-1.771a25.265,25.265,0,0,0,4.037.33" transform="translate(-1444.319 6888.686)" fill="#7a8f2c"/>
    <path id="Trazado_267847" data-name="Trazado 267847" d="M2116.369,1155.523l.1-.061a7.3,7.3,0,0,0-2.225-2.153l-.06.1a7.17,7.17,0,0,1,2.183,2.11" transform="translate(-1460.571 6863.202)" fill="#83982b"/>
    <path id="Trazado_267848" data-name="Trazado 267848" d="M2107.063,1143.205l.049-.109a11.74,11.74,0,0,0-4.334-.806l0,.12a11.621,11.621,0,0,1,4.283.795" transform="translate(-1451.598 6871.869)" fill="#9eb151"/>
    <path id="Trazado_267849" data-name="Trazado 267849" d="M2116.019,1163.716l.036-.114a20.011,20.011,0,0,0-6.3-.576l.01.12a19.868,19.868,0,0,1,6.253.571" transform="translate(-1457.087 6855.59)" fill="#83982b"/>
    <path id="Trazado_267850" data-name="Trazado 267850" d="M2107.952,1187.938l.036-.115a20.011,20.011,0,0,0-6.3-.576l.009.12a19.883,19.883,0,0,1,6.253.571" transform="translate(-1450.742 6836.537)" fill="#83982b"/>
    <path id="Trazado_267851" data-name="Trazado 267851" d="M2170.2,1152.574l.085-.085a20.156,20.156,0,0,0-5.333-3.427l-.046.11a20.023,20.023,0,0,1,5.294,3.4" transform="translate(-1500.472 6866.542)" fill="#83982b"/>
    <path id="Trazado_267852" data-name="Trazado 267852" d="M2181.435,1145.587l.067-.1a20.2,20.2,0,0,0-5.883-2.379l-.025.117a20.1,20.1,0,0,1,5.841,2.36" transform="translate(-1508.877 6871.225)" fill="#83982b"/>
    <path id="Trazado_267853" data-name="Trazado 267853" d="M2154.041,1206.928l.107-.051a4.25,4.25,0,0,1-.4-3.1l-.11-.045a4.279,4.279,0,0,0,.4,3.2" transform="translate(-1491.494 6823.538)" fill="#83982b"/>
    <path id="Trazado_267854" data-name="Trazado 267854" d="M2122.4,1174.466a4.167,4.167,0,0,1,1.172-2.881l-.074-.094a4.211,4.211,0,0,0-1.217,2.965Z" transform="translate(-1466.943 6848.899)" fill="#83982b"/>
    <path id="Trazado_267855" data-name="Trazado 267855" d="M2170.4,1197.248a16.092,16.092,0,0,0-.311-3.267l-.114.032a16.4,16.4,0,0,1,.306,3.237Z" transform="translate(-1504.46 6831.208)" fill="#83982b"/>
    <path id="Trazado_267856" data-name="Trazado 267856" d="M2183.127,1162.825a16.2,16.2,0,0,0-.31-3.267l-.115.032a16.4,16.4,0,0,1,.306,3.238Z" transform="translate(-1514.468 6858.286)" fill="#83982b"/>
    <path id="Trazado_267857" data-name="Trazado 267857" d="M2169.563,1140.575a16.132,16.132,0,0,0-.31-3.267l-.115.032a16.368,16.368,0,0,1,.306,3.238Z" transform="translate(-1503.799 6875.789)" fill="#83982b"/>
    <path id="Trazado_267858" data-name="Trazado 267858" d="M2118.983,1200.425a16.041,16.041,0,0,0-.31-3.267l-.114.032a16.418,16.418,0,0,1,.306,3.237Z" transform="translate(-1464.012 6828.709)" fill="#83982b"/>
    <path id="Trazado_267859" data-name="Trazado 267859" d="M2162.414,1175.4l.114-.034c-.166-.563-1.273-1.16-1.32-1.185-.937-.547-1.49-.737-1.687-.581a.2.2,0,0,0-.065.211l.115-.031a.085.085,0,0,1,.024-.086c.055-.042.331-.124,1.557.592.013.007,1.112.6,1.263,1.113" transform="translate(-1496.176 6847.283)" fill="#83982b"/>
    <path id="Trazado_267860" data-name="Trazado 267860" d="M2130.66,1145.991l.114-.033c-.165-.563-1.273-1.16-1.32-1.186-.937-.546-1.49-.737-1.687-.581a.2.2,0,0,0-.065.211l.115-.031a.086.086,0,0,1,.024-.086,3.352,3.352,0,0,1,1.557.592c.013.007,1.112.6,1.263,1.114" transform="translate(-1471.197 6870.416)" fill="#9eb151"/>
    <path id="Trazado_267861" data-name="Trazado 267861" d="M2145.909,1188.407l.113-.033c-.2-.669-1.952-1.241-2.026-1.265-1.508-.546-2.449-.7-2.72-.445a.228.228,0,0,0-.072.217l.115-.03a.109.109,0,0,1,.041-.1c.112-.1.588-.255,2.6.473.021.006,1.772.577,1.951,1.185" transform="translate(-1481.82 6837.059)" fill="#83982b"/>
    <path id="Trazado_267862" data-name="Trazado 267862" d="M2200.745,1168.383l.113-.033c-.165-.563-1.273-1.16-1.32-1.185-.936-.547-1.489-.737-1.687-.582a.2.2,0,0,0-.065.212l.115-.031a.086.086,0,0,1,.024-.085c.056-.042.33-.124,1.557.592.013.007,1.112.6,1.263,1.114" transform="translate(-1526.328 6852.801)" fill="#83982b"/>
    <path id="Trazado_267863" data-name="Trazado 267863" d="M2102.67,1212.267l.113-.036a5,5,0,0,0-.734-1.658.07.07,0,0,0-.056-.043c-.065-.009-.174-.024-.916,2.02l.111.042a11.555,11.555,0,0,1,.79-1.918,5.45,5.45,0,0,1,.691,1.594" transform="translate(-1450.26 6818.191)" fill="#9eb151"/>
    <path id="Trazado_267864" data-name="Trazado 267864" d="M2137.68,1125.6s-3.562.357-6.024,11.41c0,0-3.291,7.3-2.464,12.431,0,0-1.1,4.592-1.238-.05s-.023-.544-.023-.544a32.4,32.4,0,0,0,.047-10.483s1.207-9.307,1.214-12.064c0,0,.749-5.316,4.646-4.532,0,0,7.474.01,5.544,2.23Z" transform="translate(-1471.348 6888.076)" fill="#617726"/>
    <path id="Trazado_274140" data-name="Trazado 274140" d="M0,0H11.816V29.778H0Z" transform="translate(656.537 8009.763)" fill="none"/>
    <path id="Trazado_267865" data-name="Trazado 267865" d="M2104.153,1190.36s3.5,11.222,6.262,10.411c0,0,3.675-.181,8.478-6.054,0,0,2.184-2.642,1.312.077a35.174,35.174,0,0,1-7.684,10.191,20.651,20.651,0,0,1-1.906,2.763s-1.206,2.833-1.474-.394a20.574,20.574,0,0,0-2.8-6.755s-2.939-4.923-3.079-9.565c0,0-.38-3.608.889-.674" transform="translate(-1451.938 6834.96)" fill="#617726"/>
    <path id="Trazado_274143" data-name="Trazado 274143" d="M0,0H17.2V19.688H0Z" transform="translate(651.273 8024.17)" fill="none"/>
    <path id="Trazado_267866" data-name="Trazado 267866" d="M2118.6,1124.738a34.141,34.141,0,0,1-3.465-3.423,14.187,14.187,0,0,1,1.523-1.88s.447-2.008-1.35-.065a14.943,14.943,0,0,0-1.048,1.592,15.567,15.567,0,0,0-6.178-.153,13.539,13.539,0,0,0-4.684,1.727l.586-.062a12.147,12.147,0,0,1,10.068-1.158c-.368.633-.753,1.333-1.205,2.266a21.262,21.262,0,0,0-8.14,1.458h0c-.086.025-.889.1-2.4,1.711l-.521.932a6.03,6.03,0,0,1,3.012-2.363,20.72,20.72,0,0,1,7.871-1.367c-.261.55-.53,1.149-.8,1.8a16.652,16.652,0,0,0-.811,2,9.722,9.722,0,0,1-3.448,2.222,8.459,8.459,0,0,0-5.015,2.181l-.514.973c1.168-2.067,5.54-2.856,5.585-2.864a8.221,8.221,0,0,0,3.153-1.794c-.075.231-.1.324-.182.587-.44,1.333-.859,2.8-1.228,4.4a10,10,0,0,0-6.408,4.131l-.145,1.048c.84-2.854,5.141-4.232,6.419-4.583a54.45,54.45,0,0,0-.97,6.081,5.611,5.611,0,0,0-3.438,2.711l-.235.917c.575-1.885,2.548-2.6,3.6-2.852a62.074,62.074,0,0,0,.078,11.566s.032.67.043.283c.025.811.028.762.072,1.614l.082-2.11c-.135-2.622.033-2.948.063-5.18.141-1.919.29-3.716.623-6.183a14.48,14.48,0,0,1,3.652,4.939l-.382-1.238c-1.7-3.682-2.7-4.376-3.146-4.574.281-2,.6-3.993,1.055-6.078,1.283,1.577,4.714,5.842,5.349,10.582l0-.888-.068-1.183a18.989,18.989,0,0,0-5.138-9.094,50.322,50.322,0,0,1,1.5-5.3c1.447,1.8,6.371,8.088,5.685,13.487l.258-1.036c.66-4.4-4.523-11.353-5.813-13a30.307,30.307,0,0,1,1.345-3.3,14.464,14.464,0,0,0,3.09,4.185c.034.029,3.034,2.673,2.676,6.377l.187,5.695.183-1.71-.007-.337-.072-3.635c.373-3.843-2.743-6.584-2.775-6.611a13.747,13.747,0,0,1-3.037-4.411l-.033.013a19.335,19.335,0,0,1,1.2-2.109,34.351,34.351,0,0,0,3.538,3.3,9.043,9.043,0,0,1,3.259,8.389l-.043,1.779.255-1.531c1.03-5.417-3.261-8.846-3.3-8.876" transform="translate(-1450.816 6890.566)" fill="#6c7b28"/>
    <path id="Trazado_267867" data-name="Trazado 267867" d="M2102.854,1187.092l.065-.124c-.024.041-.045.082-.065.124" transform="translate(-1451.657 6836.725)" fill="#73882d"/>
    <path id="Trazado_267868" data-name="Trazado 267868" d="M2118.435,1124a33.543,33.543,0,0,1-3.41-3.643,11.765,11.765,0,0,1,1.468-1.661s.526-2.111-1.35-.065a9.373,9.373,0,0,0-.934,1.4,17.791,17.791,0,0,0-6.292.037,13.529,13.529,0,0,0-4.684,1.727l.586-.062a12.146,12.146,0,0,1,10.068-1.158c-.368.633-.69,1.2-1.143,2.138a22.988,22.988,0,0,0-8.2,1.586h0c-.086.025-.889.1-2.4,1.711l-.521.932a6.033,6.033,0,0,1,3.012-2.363,20.706,20.706,0,0,1,7.871-1.367c-.26.55-.53,1.149-.8,1.8a11.388,11.388,0,0,0-.733,1.778c-.6.554-2.331,2.2-3.527,2.447a8.454,8.454,0,0,0-5.015,2.181l-.514.973c1.168-2.067,5.54-2.856,5.585-2.863a8.232,8.232,0,0,0,3.154-1.794c-.075.23-.1.324-.182.587-.441,1.334-.8,2.548-1.17,4.144a10.775,10.775,0,0,0-6.467,4.384l-.145,1.048c.84-2.854,5.141-4.232,6.419-4.583a54.627,54.627,0,0,0-.97,6.082,5.61,5.61,0,0,0-3.438,2.711l-.234.917c.575-1.885,2.548-2.6,3.6-2.852a62.091,62.091,0,0,0,.078,11.566s.032.671.043.283c.025.812.029.762.073,1.615l.082-2.11c-.135-2.622.033-2.948.063-5.181.141-1.918.29-3.715.623-6.182a14.465,14.465,0,0,1,3.653,4.939l-.382-1.237c-1.7-3.682-2.7-4.377-3.146-4.575.282-2,.6-3.993,1.055-6.078,1.283,1.577,4.714,5.843,5.35,10.582l0-.888-.068-1.183a20.292,20.292,0,0,0-5.082-9.342,45.762,45.762,0,0,1,1.44-5.048c1.447,1.8,6.37,8.088,5.685,13.486l.258-1.036c.66-4.4-4.455-11.548-5.744-13.2a26.984,26.984,0,0,1,1.276-3.1,14.461,14.461,0,0,0,3.09,4.185c.033.029,3.034,2.673,2.676,6.377l.187,5.7.183-1.71-.007-.336-.073-3.635c.373-3.843-2.743-6.584-2.775-6.612a12.842,12.842,0,0,1-2.965-4.576l.087-.2a13.044,13.044,0,0,1,1.007-1.731,34.306,34.306,0,0,0,3.537,3.3,9.043,9.043,0,0,1,3.259,8.389l-.044,1.779.256-1.531c1.029-5.417-3.261-8.846-3.3-8.876" transform="translate(-1450.687 6891.179)" fill="#9eb151"/>
    <path id="Trazado_267869" data-name="Trazado 267869" d="M2102.688,1186.527l.066-.124c-.023.041-.045.082-.066.124" transform="translate(-1451.526 6837.169)" fill="#9eb151"/>
    <path id="Trazado_267870" data-name="Trazado 267870" d="M2130.831,1150.165a.118.118,0,0,1-.032,0,11.306,11.306,0,0,1-.045-1.411c.045-1.32.309-5.605.311-5.649.127-1.655.6-4.5.609-4.525a65.058,65.058,0,0,1,2.344-8.161,56.369,56.369,0,0,1,3.657-7.719c.027-.048.384-.69.539-.665.234.038-.239.74-.266.788a51.542,51.542,0,0,0-3.742,7.66,64.773,64.773,0,0,0-2.335,8.129c0,.028-.48,2.861-.606,4.507,0,.043-.314,4.339-.36,5.655,0,.044-.034,1.375-.074,1.387" transform="translate(-1473.604 6887.799)" fill="#d6e09e"/>
    <path id="Trazado_267871" data-name="Trazado 267871" d="M2265.825,169.617c-.374,1.717-43.872,182.532-53.674,198.906l7.645-10.982c10.051-16.791,47.417-180.26,48.948-187.289Z" transform="translate(-1537.635 7637.004)" fill="#bdc582"/>
    <path id="Trazado_274142" data-name="Trazado 274142" d="M0,0H133.827V.64H0Z" transform="translate(331.869 8022.494)" fill="#161615"/>
    <path id="Trazado_267872" data-name="Trazado 267872" d="M2052.982,801.874l-21.869-107.957,41.4,67.379-.545.335-39.516-64.305,21.152,104.42Z" transform="translate(-1395.224 7224.573)" fill="#161615"/>
    <path id="Trazado_274137" data-name="Trazado 274137" d="M0,0H.64V70.013H0Z" transform="matrix(0.615, -0.789, 0.789, 0.615, 663.018, 7987.689)" fill="#161615"/>
    <path id="Trazado_267873" data-name="Trazado 267873" d="M1606.181,555.248l-24.162-82.2h-41.925v-.64h42.4l.068.23,24.23,82.432Z" transform="translate(-1008.974 7398.821)" fill="#161615"/>
    <path id="Trazado_267874" data-name="Trazado 267874" d="M2776.429,658.353l24.163-82.2h41.925v-.64h-42.4l-.068.23-24.23,82.432Z" transform="translate(-1981.028 7317.715)" fill="#161615"/>
    <path id="Trazado_274148" data-name="Trazado 274148" d="M0,0H41.095V.64H0Z" transform="translate(358.327 8127.608)" fill="#161615"/>
    <path id="Trazado_274150" data-name="Trazado 274150" d="M0,0H53.1V.64H0Z" transform="matrix(0.832, -0.555, 0.555, 0.832, 366.687, 8259.459)" fill="#161615"/>
    <path id="Trazado_274149" data-name="Trazado 274149" d="M0,0H53.1V.64H0Z" transform="matrix(0.832, -0.555, 0.555, 0.832, 803.693, 8103.417)" fill="#161615"/>
    <path id="Trazado_274147" data-name="Trazado 274147" d="M3-1.3H8.732V0H1.4V-12.086H3ZM11.978,0H10.442V-8.981h1.536Zm-1.66-11.364a.917.917,0,0,1,.228-.631.857.857,0,0,1,.677-.257.87.87,0,0,1,.681.257.907.907,0,0,1,.232.631.877.877,0,0,1-.232.623.886.886,0,0,1-.681.249.872.872,0,0,1-.677-.249A.886.886,0,0,1,10.318-11.364Zm5.562,2.382.042,1a3.317,3.317,0,0,1,2.665-1.162A2.568,2.568,0,0,1,21.15-7.7a3.4,3.4,0,0,1,1.166-1.046,3.445,3.445,0,0,1,1.7-.4q2.955,0,3,3.129V0H25.483V-5.927a2.062,2.062,0,0,0-.44-1.44,1.937,1.937,0,0,0-1.478-.477,2.036,2.036,0,0,0-1.419.51,2.071,2.071,0,0,0-.656,1.374V0H19.947V-5.885a1.713,1.713,0,0,0-1.917-1.959,2.055,2.055,0,0,0-2.067,1.287V0H14.427V-8.981Zm21.059,4.59a5.34,5.34,0,0,1-.946,3.308A3.024,3.024,0,0,1,33.452.166a3.131,3.131,0,0,1-2.631-1.2L30.746,0H29.335V-12.75h1.536v4.756a3.113,3.113,0,0,1,2.565-1.154A3.042,3.042,0,0,1,36-7.911a5.5,5.5,0,0,1,.934,3.387ZM35.4-4.565A4.15,4.15,0,0,0,34.8-6.989a2.006,2.006,0,0,0-1.743-.855,2.255,2.255,0,0,0-2.183,1.411v3.885a2.318,2.318,0,0,0,2.2,1.411,2,2,0,0,0,1.718-.855A4.413,4.413,0,0,0,35.4-4.565Zm3.063-.008a5.3,5.3,0,0,1,.519-2.374,3.87,3.87,0,0,1,1.444-1.627,3.932,3.932,0,0,1,2.113-.573,3.788,3.788,0,0,1,2.968,1.27A4.886,4.886,0,0,1,46.642-4.5v.108a5.351,5.351,0,0,1-.5,2.353A3.813,3.813,0,0,1,44.7-.415a3.977,3.977,0,0,1-2.146.581A3.778,3.778,0,0,1,39.6-1.1a4.861,4.861,0,0,1-1.133-3.362Zm1.544.183a3.842,3.842,0,0,0,.693,2.4,2.218,2.218,0,0,0,1.855.9A2.2,2.2,0,0,0,44.417-2a4.2,4.2,0,0,0,.689-2.569,3.836,3.836,0,0,0-.7-2.395,2.23,2.23,0,0,0-1.864-.917,2.205,2.205,0,0,0-1.834.9A4.17,4.17,0,0,0,40.01-4.391Z" transform="translate(298.993 8126.191)" fill="#161615"/>
    <path id="Trazado_274141" data-name="Trazado 274141" d="M10.691,0h-1.6L3-9.313V0H1.4V-12.086H3l6.1,9.355v-9.355h1.585Zm6.317.166a3.924,3.924,0,0,1-2.972-1.2,4.452,4.452,0,0,1-1.146-3.208v-.282A5.39,5.39,0,0,1,13.4-6.91a3.982,3.982,0,0,1,1.428-1.644,3.59,3.59,0,0,1,1.988-.594A3.364,3.364,0,0,1,19.54-7.994a5,5,0,0,1,.971,3.3v.639H14.427A3.193,3.193,0,0,0,15.2-1.905a2.44,2.44,0,0,0,1.888.818,2.675,2.675,0,0,0,1.378-.332,3.462,3.462,0,0,0,.988-.88l.938.73A3.772,3.772,0,0,1,17.008.166Zm-.191-8.052a2.048,2.048,0,0,0-1.561.677,3.288,3.288,0,0,0-.78,1.9h4.5v-.116a2.925,2.925,0,0,0-.631-1.814A1.928,1.928,0,0,0,16.817-7.886Zm9.812.282a4.6,4.6,0,0,0-.755-.058,2.024,2.024,0,0,0-2.05,1.287V0H22.288V-8.981h1.494l.025,1.038a2.391,2.391,0,0,1,2.142-1.2,1.569,1.569,0,0,1,.681.116Zm4.524,5.52,2.225-6.9h1.569L31.726,0h-1.17L27.3-8.981H28.87ZM38.092,0H36.557V-8.981h1.536Zm-1.66-11.364a.917.917,0,0,1,.228-.631.857.857,0,0,1,.677-.257.87.87,0,0,1,.681.257.907.907,0,0,1,.232.631.877.877,0,0,1-.232.623.886.886,0,0,1-.681.249.872.872,0,0,1-.677-.249A.886.886,0,0,1,36.432-11.364Zm3.71,6.79a5.3,5.3,0,0,1,.519-2.374,3.87,3.87,0,0,1,1.444-1.627,3.932,3.932,0,0,1,2.113-.573,3.788,3.788,0,0,1,2.968,1.27A4.886,4.886,0,0,1,48.319-4.5v.108a5.351,5.351,0,0,1-.5,2.353A3.813,3.813,0,0,1,46.381-.415a3.977,3.977,0,0,1-2.146.581A3.778,3.778,0,0,1,41.276-1.1a4.861,4.861,0,0,1-1.133-3.362Zm1.544.183a3.842,3.842,0,0,0,.693,2.4,2.218,2.218,0,0,0,1.855.9A2.2,2.2,0,0,0,46.094-2a4.2,4.2,0,0,0,.689-2.569,3.836,3.836,0,0,0-.7-2.395,2.23,2.23,0,0,0-1.864-.917,2.205,2.205,0,0,0-1.834.9A4.17,4.17,0,0,0,41.687-4.391ZM55.474-2.382a1.13,1.13,0,0,0-.469-.967,4.514,4.514,0,0,0-1.635-.594,7.731,7.731,0,0,1-1.851-.6,2.633,2.633,0,0,1-1.013-.83,1.986,1.986,0,0,1-.328-1.146,2.33,2.33,0,0,1,.934-1.868A3.647,3.647,0,0,1,53.5-9.147a3.753,3.753,0,0,1,2.478.789,2.5,2.5,0,0,1,.95,2.017H55.383a1.386,1.386,0,0,0-.535-1.087A2.006,2.006,0,0,0,53.5-7.886a2.1,2.1,0,0,0-1.312.365,1.15,1.15,0,0,0-.473.955.932.932,0,0,0,.44.838,5.413,5.413,0,0,0,1.59.54,8.283,8.283,0,0,1,1.864.614,2.718,2.718,0,0,1,1.058.859A2.112,2.112,0,0,1,57.01-2.49a2.3,2.3,0,0,1-.963,1.93,4.039,4.039,0,0,1-2.5.726,4.523,4.523,0,0,1-1.909-.382,3.105,3.105,0,0,1-1.3-1.067,2.571,2.571,0,0,1-.469-1.482h1.536a1.59,1.59,0,0,0,.618,1.224,2.4,2.4,0,0,0,1.523.452,2.476,2.476,0,0,0,1.4-.353A1.084,1.084,0,0,0,55.474-2.382Z" transform="translate(264.999 8026.37)" fill="#161615"/>
    <path id="Trazado_274132" data-name="Trazado 274132" d="M3-4.731V0H1.4V-12.086H5.86a4.478,4.478,0,0,1,3.109,1.013,3.433,3.433,0,0,1,1.125,2.681,3.388,3.388,0,0,1-1.1,2.71,4.678,4.678,0,0,1-3.15.95Zm0-1.3H5.86a2.863,2.863,0,0,0,1.959-.6A2.2,2.2,0,0,0,8.5-8.38a2.277,2.277,0,0,0-.681-1.73,2.682,2.682,0,0,0-1.868-.674H3ZM15.614.166a3.924,3.924,0,0,1-2.972-1.2A4.452,4.452,0,0,1,11.5-4.242v-.282a5.39,5.39,0,0,1,.51-2.386,3.982,3.982,0,0,1,1.428-1.644,3.59,3.59,0,0,1,1.988-.594,3.364,3.364,0,0,1,2.723,1.154,5,5,0,0,1,.971,3.3v.639H13.032a3.193,3.193,0,0,0,.776,2.146,2.44,2.44,0,0,0,1.888.818,2.675,2.675,0,0,0,1.378-.332,3.462,3.462,0,0,0,.988-.88l.938.73A3.772,3.772,0,0,1,15.614.166Zm-.191-8.052a2.048,2.048,0,0,0-1.561.677,3.288,3.288,0,0,0-.78,1.9h4.5v-.116a2.925,2.925,0,0,0-.631-1.814A1.928,1.928,0,0,0,15.423-7.886Zm9.073,6.8a2.212,2.212,0,0,0,1.436-.5,1.752,1.752,0,0,0,.681-1.245h1.453a2.785,2.785,0,0,1-.531,1.469A3.5,3.5,0,0,1,26.226-.249,3.772,3.772,0,0,1,24.5.166a3.7,3.7,0,0,1-2.918-1.224,4.877,4.877,0,0,1-1.083-3.349v-.257A5.407,5.407,0,0,1,20.976-7a3.667,3.667,0,0,1,1.382-1.585,3.926,3.926,0,0,1,2.129-.564,3.6,3.6,0,0,1,2.511.9,3.234,3.234,0,0,1,1.067,2.349H26.612a2.116,2.116,0,0,0-.66-1.432,2.053,2.053,0,0,0-1.465-.56,2.149,2.149,0,0,0-1.814.843,3.957,3.957,0,0,0-.643,2.436v.291a3.878,3.878,0,0,0,.639,2.391A2.16,2.16,0,0,0,24.5-1.087ZM31.46,0H29.924V-8.981H31.46ZM29.8-11.364a.917.917,0,0,1,.228-.631.857.857,0,0,1,.677-.257.87.87,0,0,1,.681.257.907.907,0,0,1,.232.631.877.877,0,0,1-.232.623.886.886,0,0,1-.681.249.872.872,0,0,1-.677-.249A.886.886,0,0,1,29.8-11.364Zm3.71,6.79a5.3,5.3,0,0,1,.519-2.374,3.87,3.87,0,0,1,1.444-1.627,3.932,3.932,0,0,1,2.113-.573,3.788,3.788,0,0,1,2.968,1.27A4.886,4.886,0,0,1,41.687-4.5v.108a5.351,5.351,0,0,1-.5,2.353A3.813,3.813,0,0,1,39.748-.415,3.977,3.977,0,0,1,37.6.166,3.778,3.778,0,0,1,34.643-1.1,4.861,4.861,0,0,1,33.51-4.466Zm1.544.183a3.842,3.842,0,0,0,.693,2.4,2.218,2.218,0,0,0,1.855.9A2.2,2.2,0,0,0,39.462-2a4.2,4.2,0,0,0,.689-2.569,3.836,3.836,0,0,0-.7-2.395,2.23,2.23,0,0,0-1.864-.917,2.205,2.205,0,0,0-1.834.9A4.17,4.17,0,0,0,35.054-4.391ZM45.281,0H43.745V-12.75h1.536Zm2.05-4.574a5.3,5.3,0,0,1,.519-2.374,3.87,3.87,0,0,1,1.444-1.627,3.932,3.932,0,0,1,2.113-.573,3.788,3.788,0,0,1,2.968,1.27A4.886,4.886,0,0,1,55.507-4.5v.108a5.351,5.351,0,0,1-.5,2.353A3.813,3.813,0,0,1,53.569-.415a3.977,3.977,0,0,1-2.146.581A3.778,3.778,0,0,1,48.464-1.1a4.861,4.861,0,0,1-1.133-3.362Zm1.544.183a3.842,3.842,0,0,0,.693,2.4,2.218,2.218,0,0,0,1.855.9A2.2,2.2,0,0,0,53.283-2a4.2,4.2,0,0,0,.689-2.569,3.836,3.836,0,0,0-.7-2.395,2.23,2.23,0,0,0-1.864-.917,2.205,2.205,0,0,0-1.834.9A4.17,4.17,0,0,0,48.875-4.391Z" transform="translate(465.349 7875.028)" fill="#161615"/>
    <path id="Trazado_274151" data-name="Trazado 274151" d="M10.691,0h-1.6V-5.586H3V0H1.4V-12.086H3v5.2H9.089v-5.2h1.6Zm8.135,0a3.226,3.226,0,0,1-.216-.946A3.426,3.426,0,0,1,16.054.166a3.17,3.17,0,0,1-2.179-.751,2.43,2.43,0,0,1-.851-1.905,2.539,2.539,0,0,1,1.067-2.179,5.029,5.029,0,0,1,3-.776h1.494v-.706A1.725,1.725,0,0,0,18.1-7.433a1.935,1.935,0,0,0-1.419-.477,2.239,2.239,0,0,0-1.378.415,1.223,1.223,0,0,0-.556,1H13.207a2.119,2.119,0,0,1,.477-1.3,3.258,3.258,0,0,1,1.295-.992,4.356,4.356,0,0,1,1.8-.365,3.551,3.551,0,0,1,2.432.776,2.8,2.8,0,0,1,.913,2.137V-2.1a5.054,5.054,0,0,0,.315,1.967V0ZM16.278-1.17a2.7,2.7,0,0,0,1.37-.374,2.259,2.259,0,0,0,.938-.971V-4.358h-1.2q-2.822,0-2.822,1.652a1.4,1.4,0,0,0,.481,1.129A1.85,1.85,0,0,0,16.278-1.17Zm7.695-.083h5.254V0H22.1V-1.129l4.956-6.583H22.171v-1.27h6.807v1.087Z" transform="translate(863.634 7898.191)" fill="#161615"/>
    <path id="Trazado_274133" data-name="Trazado 274133" d="M8.234-5.586H3V-1.3H9.081V0H1.4V-12.086H9v1.3H3V-6.89H8.234Zm7.819,3.2a1.131,1.131,0,0,0-.469-.967,4.514,4.514,0,0,0-1.635-.594,7.731,7.731,0,0,1-1.851-.6,2.633,2.633,0,0,1-1.013-.83,1.986,1.986,0,0,1-.328-1.146,2.33,2.33,0,0,1,.934-1.868,3.647,3.647,0,0,1,2.386-.764,3.753,3.753,0,0,1,2.478.789,2.5,2.5,0,0,1,.95,2.017H15.962a1.386,1.386,0,0,0-.535-1.087,2.006,2.006,0,0,0-1.349-.457,2.1,2.1,0,0,0-1.312.365,1.15,1.15,0,0,0-.473.955.932.932,0,0,0,.44.838,5.413,5.413,0,0,0,1.59.54,8.283,8.283,0,0,1,1.864.614,2.718,2.718,0,0,1,1.058.859,2.112,2.112,0,0,1,.344,1.224,2.3,2.3,0,0,1-.963,1.93,4.039,4.039,0,0,1-2.5.726,4.523,4.523,0,0,1-1.909-.382,3.105,3.105,0,0,1-1.3-1.067,2.571,2.571,0,0,1-.469-1.482h1.536A1.59,1.59,0,0,0,12.6-1.54a2.4,2.4,0,0,0,1.523.452,2.476,2.476,0,0,0,1.4-.353A1.084,1.084,0,0,0,16.054-2.382Zm5.62-8.774v2.175H23.35v1.187H21.673v5.577a1.247,1.247,0,0,0,.224.81.943.943,0,0,0,.764.27,3.718,3.718,0,0,0,.73-.1V0a4.478,4.478,0,0,1-1.179.165,1.912,1.912,0,0,1-1.552-.623,2.675,2.675,0,0,1-.523-1.768v-5.57H18.5V-8.981h1.635v-2.175ZM26.812,0H25.268V-8.981h1.544Zm.017-12.742h1.859L26.463-10.3l-1.237,0Zm10.1,8.351a5.378,5.378,0,0,1-.938,3.3A3.006,3.006,0,0,1,33.452.166,3.294,3.294,0,0,1,30.879-.872V3.453H29.343V-8.981h1.4l.075,1a3.163,3.163,0,0,1,2.606-1.162,3.063,3.063,0,0,1,2.561,1.22,5.437,5.437,0,0,1,.942,3.4Zm-1.536-.174a3.968,3.968,0,0,0-.647-2.4,2.086,2.086,0,0,0-1.776-.88,2.257,2.257,0,0,0-2.092,1.237v4.292a2.262,2.262,0,0,0,2.108,1.229,2.076,2.076,0,0,0,1.756-.876A4.332,4.332,0,0,0,35.395-4.565ZM44.426-.888A3.262,3.262,0,0,1,41.794.166a2.792,2.792,0,0,1-2.187-.834,3.611,3.611,0,0,1-.76-2.469V-8.981h1.536v5.8q0,2.042,1.66,2.042a2.3,2.3,0,0,0,2.341-1.312V-8.981H45.92V0H44.459Zm5.5.888H48.385V-12.75h1.536Zm8,0a3.226,3.226,0,0,1-.216-.946A3.426,3.426,0,0,1,55.15.166a3.17,3.17,0,0,1-2.179-.751,2.43,2.43,0,0,1-.851-1.905,2.539,2.539,0,0,1,1.067-2.179,5.029,5.029,0,0,1,3-.776h1.494v-.706A1.725,1.725,0,0,0,57.2-7.433a1.935,1.935,0,0,0-1.419-.477A2.239,2.239,0,0,0,54.4-7.5a1.223,1.223,0,0,0-.556,1H52.3a2.119,2.119,0,0,1,.477-1.3,3.258,3.258,0,0,1,1.295-.992,4.356,4.356,0,0,1,1.8-.365,3.551,3.551,0,0,1,2.432.776,2.8,2.8,0,0,1,.913,2.137V-2.1a5.054,5.054,0,0,0,.315,1.967V0ZM55.375-1.17a2.7,2.7,0,0,0,1.37-.374,2.259,2.259,0,0,0,.938-.971V-4.358h-1.2q-2.822,0-2.822,1.652a1.4,1.4,0,0,0,.481,1.129A1.85,1.85,0,0,0,55.375-1.17Zm11.48-1.212a1.131,1.131,0,0,0-.469-.967,4.514,4.514,0,0,0-1.635-.594,7.731,7.731,0,0,1-1.851-.6,2.633,2.633,0,0,1-1.013-.83,1.986,1.986,0,0,1-.328-1.146,2.33,2.33,0,0,1,.934-1.868,3.647,3.647,0,0,1,2.386-.764,3.753,3.753,0,0,1,2.478.789,2.5,2.5,0,0,1,.95,2.017H66.763a1.386,1.386,0,0,0-.535-1.087,2.006,2.006,0,0,0-1.349-.457,2.1,2.1,0,0,0-1.312.365,1.15,1.15,0,0,0-.473.955.932.932,0,0,0,.44.838,5.413,5.413,0,0,0,1.59.54,8.283,8.283,0,0,1,1.864.614,2.718,2.718,0,0,1,1.058.859A2.112,2.112,0,0,1,68.39-2.49a2.3,2.3,0,0,1-.963,1.93,4.039,4.039,0,0,1-2.5.726A4.523,4.523,0,0,1,63.02-.216a3.105,3.105,0,0,1-1.3-1.067,2.571,2.571,0,0,1-.469-1.482h1.536a1.59,1.59,0,0,0,.618,1.224,2.4,2.4,0,0,0,1.523.452,2.476,2.476,0,0,0,1.4-.353A1.084,1.084,0,0,0,66.854-2.382Z" transform="translate(597.822 7910.591)" fill="#161615"/>
    <path id="Trazado_274144" data-name="Trazado 274144" d="M5.4-2.117l3.453-9.969H10.6L6.118,0H4.707L.232-12.086H1.967ZM17.141,0a3.226,3.226,0,0,1-.216-.946A3.426,3.426,0,0,1,14.369.166,3.17,3.17,0,0,1,12.19-.585a2.43,2.43,0,0,1-.851-1.905,2.539,2.539,0,0,1,1.067-2.179,5.029,5.029,0,0,1,3-.776H16.9v-.706a1.725,1.725,0,0,0-.481-1.282A1.935,1.935,0,0,0,15-7.911a2.239,2.239,0,0,0-1.378.415,1.223,1.223,0,0,0-.556,1H11.521A2.119,2.119,0,0,1,12-7.79a3.258,3.258,0,0,1,1.295-.992,4.356,4.356,0,0,1,1.8-.365,3.551,3.551,0,0,1,2.432.776,2.8,2.8,0,0,1,.913,2.137V-2.1a5.054,5.054,0,0,0,.315,1.967V0ZM14.593-1.17a2.7,2.7,0,0,0,1.37-.374,2.259,2.259,0,0,0,.938-.971V-4.358H15.7q-2.822,0-2.822,1.652a1.4,1.4,0,0,0,.481,1.129A1.85,1.85,0,0,0,14.593-1.17ZM22.512,0H20.976V-8.981h1.536Zm-1.66-11.364a.917.917,0,0,1,.228-.631.857.857,0,0,1,.677-.257.87.87,0,0,1,.681.257.907.907,0,0,1,.232.631.877.877,0,0,1-.232.623.886.886,0,0,1-.681.249.872.872,0,0,1-.677-.249A.886.886,0,0,1,20.852-11.364Zm5.57,2.382.05,1.129a3.273,3.273,0,0,1,2.689-1.295q2.847,0,2.872,3.212V0H30.5V-5.943a2.068,2.068,0,0,0-.444-1.436A1.78,1.78,0,0,0,28.7-7.844a2.216,2.216,0,0,0-1.312.4A2.706,2.706,0,0,0,26.5-6.4V0H24.969V-8.981ZM39.894,0a3.226,3.226,0,0,1-.216-.946A3.426,3.426,0,0,1,37.121.166a3.17,3.17,0,0,1-2.179-.751,2.43,2.43,0,0,1-.851-1.905,2.539,2.539,0,0,1,1.067-2.179,5.029,5.029,0,0,1,3-.776h1.494v-.706a1.725,1.725,0,0,0-.481-1.282,1.935,1.935,0,0,0-1.419-.477,2.239,2.239,0,0,0-1.378.415,1.223,1.223,0,0,0-.556,1H34.274a2.119,2.119,0,0,1,.477-1.3,3.258,3.258,0,0,1,1.295-.992,4.356,4.356,0,0,1,1.8-.365,3.551,3.551,0,0,1,2.432.776,2.8,2.8,0,0,1,.913,2.137V-2.1A5.054,5.054,0,0,0,41.5-.133V0ZM37.345-1.17a2.7,2.7,0,0,0,1.37-.374,2.259,2.259,0,0,0,.938-.971V-4.358h-1.2q-2.822,0-2.822,1.652a1.4,1.4,0,0,0,.481,1.129A1.85,1.85,0,0,0,37.345-1.17Z" transform="translate(718.641 8046.192)" fill="#161615"/>
    <path id="Trazado_274152" data-name="Trazado 274152" d="M9.753-10.783H5.869V0H4.283V-10.783H.407v-1.3H9.753ZM15.913,0A3.226,3.226,0,0,1,15.7-.946,3.426,3.426,0,0,1,13.14.166a3.17,3.17,0,0,1-2.179-.751A2.43,2.43,0,0,1,10.11-2.49a2.539,2.539,0,0,1,1.067-2.179,5.029,5.029,0,0,1,3-.776h1.494v-.706a1.725,1.725,0,0,0-.481-1.282,1.935,1.935,0,0,0-1.419-.477,2.239,2.239,0,0,0-1.378.415,1.223,1.223,0,0,0-.556,1H10.293a2.119,2.119,0,0,1,.477-1.3,3.258,3.258,0,0,1,1.295-.992,4.356,4.356,0,0,1,1.8-.365,3.551,3.551,0,0,1,2.432.776,2.8,2.8,0,0,1,.913,2.137V-2.1a5.054,5.054,0,0,0,.315,1.967V0ZM13.364-1.17a2.7,2.7,0,0,0,1.37-.374,2.259,2.259,0,0,0,.938-.971V-4.358h-1.2q-2.822,0-2.822,1.652a1.4,1.4,0,0,0,.481,1.129A1.85,1.85,0,0,0,13.364-1.17ZM21.283,0H19.748V-12.75h1.536Zm4.125,0H23.873V-12.75h1.536Zm2.05-4.574a5.3,5.3,0,0,1,.519-2.374,3.87,3.87,0,0,1,1.444-1.627,3.932,3.932,0,0,1,2.113-.573A3.788,3.788,0,0,1,34.5-7.877,4.886,4.886,0,0,1,35.635-4.5v.108a5.351,5.351,0,0,1-.5,2.353A3.813,3.813,0,0,1,33.7-.415a3.977,3.977,0,0,1-2.146.581A3.778,3.778,0,0,1,28.592-1.1a4.861,4.861,0,0,1-1.133-3.362ZM29-4.391a3.842,3.842,0,0,0,.693,2.4,2.218,2.218,0,0,0,1.855.9A2.2,2.2,0,0,0,33.411-2,4.2,4.2,0,0,0,34.1-4.574a3.836,3.836,0,0,0-.7-2.395,2.23,2.23,0,0,0-1.864-.917,2.205,2.205,0,0,0-1.834.9A4.17,4.17,0,0,0,29-4.391ZM41.4-4.565a5.261,5.261,0,0,1,.979-3.324A3.1,3.1,0,0,1,44.94-9.147a3.115,3.115,0,0,1,2.5,1.079V-12.75h1.536V0H47.563l-.075-.963A3.127,3.127,0,0,1,44.924.166,3.068,3.068,0,0,1,42.38-1.112,5.321,5.321,0,0,1,41.4-4.449Zm1.536.174A3.984,3.984,0,0,0,43.563-2a2.039,2.039,0,0,0,1.743.863,2.24,2.24,0,0,0,2.133-1.312V-6.574a2.257,2.257,0,0,0-2.117-1.27,2.049,2.049,0,0,0-1.76.872A4.386,4.386,0,0,0,42.932-4.391ZM55.084.166a3.924,3.924,0,0,1-2.972-1.2,4.452,4.452,0,0,1-1.146-3.208v-.282a5.39,5.39,0,0,1,.51-2.386,3.982,3.982,0,0,1,1.428-1.644,3.59,3.59,0,0,1,1.988-.594,3.364,3.364,0,0,1,2.723,1.154,5,5,0,0,1,.971,3.3v.639H52.5a3.193,3.193,0,0,0,.776,2.146,2.44,2.44,0,0,0,1.888.818,2.675,2.675,0,0,0,1.378-.332,3.462,3.462,0,0,0,.988-.88l.938.73A3.772,3.772,0,0,1,55.084.166Zm-.191-8.052a2.048,2.048,0,0,0-1.561.677,3.288,3.288,0,0,0-.78,1.9h4.5v-.116a2.925,2.925,0,0,0-.631-1.814A1.928,1.928,0,0,0,54.893-7.886ZM66.24,0H64.7V-12.75H66.24Zm8,0a3.226,3.226,0,0,1-.216-.946A3.426,3.426,0,0,1,71.47.166a3.17,3.17,0,0,1-2.179-.751A2.43,2.43,0,0,1,68.44-2.49a2.539,2.539,0,0,1,1.067-2.179,5.029,5.029,0,0,1,3-.776H74v-.706a1.725,1.725,0,0,0-.481-1.282A1.935,1.935,0,0,0,72.1-7.911a2.239,2.239,0,0,0-1.378.415,1.223,1.223,0,0,0-.556,1H68.623a2.119,2.119,0,0,1,.477-1.3,3.258,3.258,0,0,1,1.295-.992,4.356,4.356,0,0,1,1.8-.365,3.551,3.551,0,0,1,2.432.776,2.8,2.8,0,0,1,.913,2.137V-2.1a5.054,5.054,0,0,0,.315,1.967V0ZM71.694-1.17a2.7,2.7,0,0,0,1.37-.374A2.259,2.259,0,0,0,74-2.515V-4.358H72.8q-2.822,0-2.822,1.652a1.4,1.4,0,0,0,.481,1.129A1.85,1.85,0,0,0,71.694-1.17ZM89.74-4.391a5.378,5.378,0,0,1-.938,3.3A3.006,3.006,0,0,1,86.262.166,3.294,3.294,0,0,1,83.688-.872V3.453H82.153V-8.981h1.4l.075,1a3.163,3.163,0,0,1,2.606-1.162A3.063,3.063,0,0,1,88.8-7.927a5.437,5.437,0,0,1,.942,3.4ZM88.2-4.565a3.968,3.968,0,0,0-.647-2.4,2.086,2.086,0,0,0-1.776-.88,2.257,2.257,0,0,0-2.092,1.237v4.292A2.262,2.262,0,0,0,85.8-1.087a2.076,2.076,0,0,0,1.756-.876A4.332,4.332,0,0,0,88.2-4.565ZM93.359,0H91.823V-12.75h1.536Zm8,0a3.226,3.226,0,0,1-.216-.946A3.426,3.426,0,0,1,98.588.166a3.17,3.17,0,0,1-2.179-.751,2.43,2.43,0,0,1-.851-1.905,2.539,2.539,0,0,1,1.067-2.179,5.029,5.029,0,0,1,3-.776h1.494v-.706a1.725,1.725,0,0,0-.481-1.282,1.935,1.935,0,0,0-1.419-.477,2.239,2.239,0,0,0-1.378.415,1.223,1.223,0,0,0-.556,1H95.741a2.119,2.119,0,0,1,.477-1.3,3.258,3.258,0,0,1,1.295-.992,4.356,4.356,0,0,1,1.8-.365,3.551,3.551,0,0,1,2.432.776,2.8,2.8,0,0,1,.913,2.137V-2.1a5.054,5.054,0,0,0,.315,1.967V0ZM98.813-1.17a2.7,2.7,0,0,0,1.37-.374,2.259,2.259,0,0,0,.938-.971V-4.358h-1.2q-2.822,0-2.822,1.652a1.4,1.4,0,0,0,.481,1.129A1.85,1.85,0,0,0,98.813-1.17Zm7.7-7.811.05,1.129a3.273,3.273,0,0,1,2.689-1.295q2.847,0,2.872,3.212V0h-1.536V-5.943a2.068,2.068,0,0,0-.444-1.436,1.78,1.78,0,0,0-1.357-.465,2.216,2.216,0,0,0-1.312.4A2.706,2.706,0,0,0,106.6-6.4V0h-1.536V-8.981Zm10.011-2.175v2.175H118.2v1.187h-1.677v5.577a1.247,1.247,0,0,0,.224.81.943.943,0,0,0,.764.27,3.718,3.718,0,0,0,.73-.1V0a4.478,4.478,0,0,1-1.179.165,1.912,1.912,0,0,1-1.552-.623,2.675,2.675,0,0,1-.523-1.768v-5.57h-1.635V-8.981h1.635v-2.175ZM125.541,0a3.226,3.226,0,0,1-.216-.946A3.426,3.426,0,0,1,122.769.166a3.17,3.17,0,0,1-2.179-.751,2.43,2.43,0,0,1-.851-1.905,2.539,2.539,0,0,1,1.067-2.179,5.029,5.029,0,0,1,3-.776H125.3v-.706a1.725,1.725,0,0,0-.481-1.282,1.935,1.935,0,0,0-1.419-.477,2.239,2.239,0,0,0-1.378.415,1.223,1.223,0,0,0-.556,1h-1.544a2.119,2.119,0,0,1,.477-1.3,3.258,3.258,0,0,1,1.295-.992,4.356,4.356,0,0,1,1.8-.365,3.551,3.551,0,0,1,2.432.776,2.8,2.8,0,0,1,.913,2.137V-2.1a5.054,5.054,0,0,0,.315,1.967V0Zm-2.548-1.17a2.7,2.7,0,0,0,1.37-.374,2.259,2.259,0,0,0,.938-.971V-4.358h-1.2q-2.822,0-2.822,1.652a1.4,1.4,0,0,0,.481,1.129A1.85,1.85,0,0,0,122.993-1.17Z" transform="translate(461.099 8260.752)" fill="#161615"/>
    <path id="Trazado_274153" data-name="Trazado 274153" d="M8.077-3.163H3.013L1.876,0H.232L4.848-12.086H6.242L10.866,0H9.23Zm-4.582-1.3H7.6L5.545-10.119ZM6.333-15.323H8.193l-2.225,2.44-1.237,0ZM19.839-4.391a5.378,5.378,0,0,1-.938,3.3A3.006,3.006,0,0,1,16.361.166,3.294,3.294,0,0,1,13.788-.872V3.453H12.252V-8.981h1.4l.075,1a3.163,3.163,0,0,1,2.606-1.162A3.063,3.063,0,0,1,18.9-7.927a5.437,5.437,0,0,1,.942,3.4ZM18.3-4.565a3.968,3.968,0,0,0-.647-2.4,2.086,2.086,0,0,0-1.776-.88,2.257,2.257,0,0,0-2.092,1.237v4.292A2.262,2.262,0,0,0,15.9-1.087a2.076,2.076,0,0,0,1.756-.876A4.332,4.332,0,0,0,18.3-4.565ZM23.458,0H21.922V-8.981h1.536ZM21.8-11.364a.917.917,0,0,1,.228-.631.857.857,0,0,1,.677-.257.87.87,0,0,1,.681.257.907.907,0,0,1,.232.631.877.877,0,0,1-.232.623.886.886,0,0,1-.681.249.872.872,0,0,1-.677-.249A.886.886,0,0,1,21.8-11.364Zm7.72,10.276a2.212,2.212,0,0,0,1.436-.5,1.752,1.752,0,0,0,.681-1.245h1.453a2.785,2.785,0,0,1-.531,1.469A3.5,3.5,0,0,1,31.248-.249a3.772,3.772,0,0,1-1.731.415A3.7,3.7,0,0,1,26.6-1.058a4.877,4.877,0,0,1-1.083-3.349v-.257A5.407,5.407,0,0,1,26-7,3.667,3.667,0,0,1,27.38-8.583a3.926,3.926,0,0,1,2.129-.564,3.6,3.6,0,0,1,2.511.9,3.234,3.234,0,0,1,1.067,2.349H31.634a2.116,2.116,0,0,0-.66-1.432,2.053,2.053,0,0,0-1.465-.56,2.149,2.149,0,0,0-1.814.843,3.957,3.957,0,0,0-.643,2.436v.291a3.878,3.878,0,0,0,.639,2.391A2.16,2.16,0,0,0,29.518-1.087ZM38.541.166a3.924,3.924,0,0,1-2.972-1.2,4.452,4.452,0,0,1-1.146-3.208v-.282a5.39,5.39,0,0,1,.51-2.386,3.982,3.982,0,0,1,1.428-1.644,3.59,3.59,0,0,1,1.988-.594,3.364,3.364,0,0,1,2.723,1.154,5,5,0,0,1,.971,3.3v.639H35.959a3.193,3.193,0,0,0,.776,2.146,2.44,2.44,0,0,0,1.888.818A2.675,2.675,0,0,0,40-1.419a3.462,3.462,0,0,0,.988-.88l.938.73A3.772,3.772,0,0,1,38.541.166ZM38.35-7.886a2.048,2.048,0,0,0-1.561.677,3.288,3.288,0,0,0-.78,1.9h4.5v-.116a2.925,2.925,0,0,0-.631-1.814A1.928,1.928,0,0,0,38.35-7.886Z" transform="translate(316.846 8267.459)" fill="#161615"/>
    <path id="Trazado_274146" data-name="Trazado 274146" d="M8.234-5.586H3V-1.3H9.081V0H1.4V-12.086H9v1.3H3V-6.89H8.234Zm4.042-3.4.05,1.129a3.273,3.273,0,0,1,2.689-1.295q2.847,0,2.872,3.212V0H16.353V-5.943a2.068,2.068,0,0,0-.444-1.436,1.78,1.78,0,0,0-1.357-.465,2.216,2.216,0,0,0-1.312.4A2.706,2.706,0,0,0,12.36-6.4V0H10.824V-8.981Zm10.891,6.9,2.225-6.9h1.569L23.74,0H22.57L19.316-8.981h1.569Zm9,2.25a3.924,3.924,0,0,1-2.972-1.2,4.452,4.452,0,0,1-1.146-3.208v-.282a5.39,5.39,0,0,1,.51-2.386,3.982,3.982,0,0,1,1.428-1.644,3.59,3.59,0,0,1,1.988-.594A3.364,3.364,0,0,1,34.7-7.994a5,5,0,0,1,.971,3.3v.639H29.584a3.193,3.193,0,0,0,.776,2.146,2.44,2.44,0,0,0,1.888.818,2.675,2.675,0,0,0,1.378-.332,3.462,3.462,0,0,0,.988-.88l.938.73A3.772,3.772,0,0,1,32.166.166Zm-.191-8.052a2.048,2.048,0,0,0-1.561.677,3.288,3.288,0,0,0-.78,1.9h4.5v-.116A2.925,2.925,0,0,0,33.5-7.242,1.928,1.928,0,0,0,31.975-7.886Zm.747-4.864h1.859l-2.225,2.44-1.237,0ZM42.674-2.382a1.13,1.13,0,0,0-.469-.967,4.514,4.514,0,0,0-1.635-.594,7.731,7.731,0,0,1-1.851-.6,2.633,2.633,0,0,1-1.013-.83,1.986,1.986,0,0,1-.328-1.146,2.33,2.33,0,0,1,.934-1.868A3.647,3.647,0,0,1,40.7-9.147a3.753,3.753,0,0,1,2.478.789,2.5,2.5,0,0,1,.95,2.017H42.583a1.386,1.386,0,0,0-.535-1.087A2.006,2.006,0,0,0,40.7-7.886a2.1,2.1,0,0,0-1.312.365,1.15,1.15,0,0,0-.473.955.932.932,0,0,0,.44.838,5.413,5.413,0,0,0,1.59.54,8.283,8.283,0,0,1,1.864.614,2.718,2.718,0,0,1,1.058.859A2.112,2.112,0,0,1,44.21-2.49a2.3,2.3,0,0,1-.963,1.93,4.039,4.039,0,0,1-2.5.726,4.523,4.523,0,0,1-1.909-.382,3.105,3.105,0,0,1-1.3-1.067,2.571,2.571,0,0,1-.469-1.482h1.536a1.59,1.59,0,0,0,.618,1.224,2.4,2.4,0,0,0,1.523.452,2.476,2.476,0,0,0,1.4-.353A1.084,1.084,0,0,0,42.674-2.382Z" transform="translate(753.853 8111.417)" fill="#161615"/>
  </g>
</svg>
