<svg xmlns="http://www.w3.org/2000/svg" xmlns:xlink="http://www.w3.org/1999/xlink" width="484.312" height="497.275" viewBox="0 0 484.312 497.275">
  <defs>
    <linearGradient id="linear-gradient" x1="0.5" x2="0.5" y2="1" gradientUnits="objectBoundingBox">
      <stop offset="0" stop-color="#81b722"/>
      <stop offset="1" stop-color="#169788"/>
    </linearGradient>
  </defs>
  <g id="Grupo_874287" data-name="Grupo 874287" transform="translate(-870 -1664.933)">
    <path id="Trazado_272635" data-name="Trazado 272635" d="M332.722,28.78H287.085L264.26,68.314l22.824,39.534h45.637l22.825-39.534Z" transform="translate(839.851 1636.638)" fill="none" stroke="#addbd5" stroke-miterlimit="10" stroke-width="0.97"/>
    <path id="Trazado_272641" data-name="Trazado 272641" d="M477.042,264.12H431.4L408.58,303.642,431.4,343.176h45.637l22.825-39.534Z" transform="translate(853.885 1664.176)" fill="none" stroke="#addbd5" stroke-miterlimit="10" stroke-width="0.97"/>
    <path id="Trazado_272642" data-name="Trazado 272642" d="M469.243,163.9H446.314L434.85,183.754l11.464,19.866h22.929l11.465-19.866Z" transform="translate(856.938 1648.654)" fill="none" stroke="#28965a" stroke-miterlimit="10" stroke-width="0.97" opacity="0.3"/>
    <path id="Trazado_272628" data-name="Trazado 272628" d="M74.883,314.66H51.954L40.49,334.526,51.954,354.38H74.883l11.464-19.854Z" transform="translate(842.119 1672.833)" fill="none" stroke="#addbd5" stroke-miterlimit="10" stroke-width="0.97"/>
    <path id="Trazado_272636" data-name="Trazado 272636" d="M196.943,25.29H174.015L162.55,45.144,174.015,65.01h22.929l11.465-19.866Z" transform="translate(781.712 1704.717)" fill="none" stroke="#28965a" stroke-miterlimit="10" stroke-width="0.97" opacity="0.3"/>
    <path id="Trazado_272643" data-name="Trazado 272643" d="M333.913,441.01H310.984L299.52,460.864l11.465,19.854h22.929l11.464-19.854Z" transform="translate(946.319 1593.354)" fill="none" stroke="#2ceaa3" stroke-miterlimit="10" stroke-width="0.97" opacity="0.5"/>
    <path id="Trazado_272634" data-name="Trazado 272634" d="M256.026,414.21H222.131L205.19,443.567l16.941,29.357h33.895l16.941-29.357Z" transform="translate(844.32 1688.798)" fill="none" stroke="#28965a" stroke-miterlimit="10" stroke-width="0.97" opacity="0.3"/>
    <path id="Trazado_272637" data-name="Trazado 272637" d="M113.93,177.709h1.16l.58-1.009" transform="translate(829.684 1650.708)" fill="none" stroke="#28965a" stroke-miterlimit="10" stroke-width="0.98"/>
    <path id="Trazado_274206" data-name="Trazado 274206" d="M0,58.286,33.651,0" transform="translate(946.503 1767.149)" fill="none" stroke="#28965a" stroke-width="0.98" stroke-dasharray="1.97 1.97"/>
    <path id="Trazado_272638" data-name="Trazado 272638" d="M145.91,124.187l.58-1-.58-1.01" transform="translate(834.813 1641.964)" fill="none" stroke="#28965a" stroke-miterlimit="10" stroke-width="0.98"/>
    <path id="Trazado_272629" data-name="Trazado 272629" d="M410.681,72.3H170.554L50.49,280.25,170.554,488.212H410.681L530.745,280.25Z" transform="translate(819.51 1633.965)" fill="#169788" opacity="0.3"/>
    <path id="Trazado_272630" data-name="Trazado 272630" d="M403.453,80.75h-228.8L60.25,278.9l114.4,198.157h228.8L517.855,278.9Z" transform="translate(821.075 1635.32)" fill="#81b722"/>
    <path id="Trazado_272631" data-name="Trazado 272631" d="M398.492,85.04H177.464L66.95,276.455,177.464,467.87H398.492L509.017,276.455Z" transform="translate(822.05 1635.96)" fill="#e6ecf8"/>
    <path id="Trazado_272632" data-name="Trazado 272632" d="M140.647,365.77H94.162L70.92,406.023l23.242,40.253h46.485l23.242-40.253Z" transform="translate(822.787 1681.029)" fill="none" stroke="#6bffb8" stroke-miterlimit="10" stroke-width="0.98" stroke-dasharray="2"/>
    <path id="Trazado_272639" data-name="Trazado 272639" d="M425.469,66.21h-42.98L361.01,103.435l21.478,37.213h42.98l21.49-37.213Z" transform="translate(869.309 1632.988)" fill="none" stroke="#6bffb8" stroke-miterlimit="10" stroke-width="0.98" stroke-dasharray="2"/>
    <path id="Trazado_272633" data-name="Trazado 272633" d="M135.213,372.11H97.234l-18.984,32.9,18.984,32.9h37.979l19-32.9Z" transform="translate(858.182 1659.971)" opacity="0.6" fill="url(#linear-gradient)"/>
    <path id="Trazado_272640" data-name="Trazado 272640" d="M427.572,63.76H381.308L358.17,103.828,381.308,143.9h46.264l23.138-40.068Z" transform="translate(858.689 1664.309)" opacity="0.7" fill="url(#linear-gradient)"/>
    <g id="Grupo_146567" data-name="Grupo 146567" transform="translate(985.88 1845.004)">
      <g id="Grupo_146565" data-name="Grupo 146565">
        <ellipse id="Elipse_6157" data-name="Elipse 6157" cx="115.629" cy="73.08" rx="115.629" ry="73.08" transform="translate(0.312 0.311)" fill="#81ce0b"/>
        <path id="Trazado_256911" data-name="Trazado 256911" d="M201.219,223.7c-63.929,0-115.94-32.922-115.94-73.391s52.011-73.391,115.94-73.391,115.94,32.922,115.94,73.391S265.148,223.7,201.219,223.7Zm0-146.159C137.634,77.536,85.9,110.18,85.9,150.3s51.733,72.768,115.318,72.768S316.536,190.43,316.536,150.3,264.805,77.536,201.219,77.536Z" transform="translate(-85.279 -76.914)" fill="#319602"/>
      </g>
      <g id="Grupo_146566" data-name="Grupo 146566" transform="translate(7.026 6.707)">
        <ellipse id="Elipse_6158" data-name="Elipse 6158" cx="108.603" cy="66.372" rx="108.603" ry="66.372" transform="translate(0.311 0.312)" fill="#ffea83"/>
        <path id="Trazado_256912" data-name="Trazado 256912" d="M200.381,216.189c-60.055,0-108.914-29.914-108.914-66.684s48.859-66.684,108.914-66.684S309.3,112.736,309.3,149.5,260.436,216.189,200.381,216.189Zm0-132.744c-59.712,0-108.292,29.634-108.292,66.06s48.58,66.062,108.292,66.062S308.673,185.931,308.673,149.5,260.094,83.444,200.381,83.444Z" transform="translate(-91.467 -82.821)" fill="#319602"/>
      </g>
    </g>
    <g id="Grupo_146568" data-name="Grupo 146568" transform="translate(989.515 1938.912)">
      <line id="Línea_506" data-name="Línea 506" y1="21.466" x2="22.582" transform="translate(0.209 0.232)" fill="#ffea83"/>
      <rect id="Rectángulo_44358" data-name="Rectángulo 44358" width="31.158" height="0.623" transform="translate(0 21.478) rotate(-43.578)" fill="#319602"/>
    </g>
    <g id="Grupo_146569" data-name="Grupo 146569" transform="translate(972.057 1901.228)">
      <path id="Trazado_256913" data-name="Trazado 256913" d="M105.629,126.432" transform="translate(-68.7 -126.432)" fill="#ffea83"/>
      <path id="Trazado_256914" data-name="Trazado 256914" d="M73.242,145.211" transform="translate(-73.086 -123.889)" fill="#ffea83"/>
      <path id="Trazado_256915" data-name="Trazado 256915" d="M73.417,146.837,73.1,146.3l28.2-11.1.313.539Z" transform="translate(-73.104 -125.246)" fill="#319602"/>
    </g>
    <path id="Trazado_274207" data-name="Trazado 274207" d="M0,0H.623V19.112H0Z" transform="translate(1217.348 1916.103) rotate(-70.923)" fill="#319602"/>
    <path id="Trazado_256916" data-name="Trazado 256916" d="M299.943,173.835l-24.009-9.97.238-.575,24.009,9.97Z" transform="translate(926.418 1779.786)" fill="#319602"/>
    <path id="Trazado_274208" data-name="Trazado 274208" d="M0,0H.623V25.736H0Z" transform="translate(1180.914 1967.765) rotate(-63.937)" fill="#319602"/>
    <path id="Trazado_274209" data-name="Trazado 274209" d="M4.844-3.286H1.763v2.52H5.342V0H.825V-7.109H5.293v.767H1.763v2.29H4.844ZM9.443-1.4a.665.665,0,0,0-.276-.569,2.655,2.655,0,0,0-.962-.349,4.548,4.548,0,0,1-1.089-.352,1.549,1.549,0,0,1-.6-.488,1.168,1.168,0,0,1-.193-.674,1.37,1.37,0,0,1,.549-1.1,2.145,2.145,0,0,1,1.4-.449,2.208,2.208,0,0,1,1.458.464A1.473,1.473,0,0,1,10.3-3.73H9.39a.815.815,0,0,0-.315-.64,1.18,1.18,0,0,0-.793-.269,1.235,1.235,0,0,0-.771.215.676.676,0,0,0-.278.562.548.548,0,0,0,.259.493,3.184,3.184,0,0,0,.935.317,4.872,4.872,0,0,1,1.1.361,1.6,1.6,0,0,1,.623.505,1.243,1.243,0,0,1,.2.72A1.352,1.352,0,0,1,9.78-.33,2.376,2.376,0,0,1,8.311.1,2.66,2.66,0,0,1,7.188-.127a1.827,1.827,0,0,1-.764-.627,1.512,1.512,0,0,1-.276-.872h.9a.935.935,0,0,0,.364.72,1.411,1.411,0,0,0,.9.266,1.457,1.457,0,0,0,.823-.208A.638.638,0,0,0,9.443-1.4Zm3.306-5.161v1.279h.986v.7h-.986V-1.3a.733.733,0,0,0,.132.477.555.555,0,0,0,.449.159,2.187,2.187,0,0,0,.43-.059V0a2.634,2.634,0,0,1-.693.1,1.125,1.125,0,0,1-.913-.366,1.573,1.573,0,0,1-.308-1.04V-4.585h-.962v-.7h.962V-6.562Zm4.595,2.09a2.707,2.707,0,0,0-.444-.034,1.19,1.19,0,0,0-1.206.757V0h-.9V-5.283h.879l.015.61a1.407,1.407,0,0,1,1.26-.708.923.923,0,0,1,.4.068Zm.493,1.782a3.121,3.121,0,0,1,.305-1.4,2.277,2.277,0,0,1,.85-.957,2.313,2.313,0,0,1,1.243-.337,2.228,2.228,0,0,1,1.746.747,2.874,2.874,0,0,1,.667,1.987v.063a3.148,3.148,0,0,1-.3,1.384,2.243,2.243,0,0,1-.845.955A2.339,2.339,0,0,1,20.244.1,2.222,2.222,0,0,1,18.5-.649a2.86,2.86,0,0,1-.667-1.978Zm.908.107a2.26,2.26,0,0,0,.408,1.411,1.3,1.3,0,0,0,1.091.532,1.3,1.3,0,0,0,1.094-.54,2.472,2.472,0,0,0,.405-1.511A2.256,2.256,0,0,0,21.331-4.1a1.312,1.312,0,0,0-1.1-.54,1.3,1.3,0,0,0-1.079.532A2.453,2.453,0,0,0,18.745-2.583Zm5.884-2.7.024.586a1.951,1.951,0,0,1,1.567-.684,1.51,1.51,0,0,1,1.509.85,2,2,0,0,1,.686-.615,2.026,2.026,0,0,1,1-.234q1.738,0,1.768,1.841V0h-.9V-3.486a1.213,1.213,0,0,0-.259-.847,1.14,1.14,0,0,0-.869-.281,1.2,1.2,0,0,0-.835.3,1.218,1.218,0,0,0-.386.808V0h-.908V-3.462a1.008,1.008,0,0,0-1.128-1.152,1.209,1.209,0,0,0-1.216.757V0h-.9V-5.283ZM35.806,0a1.9,1.9,0,0,1-.127-.557,2.015,2.015,0,0,1-1.5.654,1.865,1.865,0,0,1-1.282-.442,1.43,1.43,0,0,1-.5-1.121,1.494,1.494,0,0,1,.627-1.282A2.958,2.958,0,0,1,34.785-3.2h.879v-.415a1.015,1.015,0,0,0-.283-.754,1.138,1.138,0,0,0-.835-.281,1.317,1.317,0,0,0-.811.244.719.719,0,0,0-.327.591H32.5a1.247,1.247,0,0,1,.281-.764,1.916,1.916,0,0,1,.762-.583A2.563,2.563,0,0,1,34.6-5.381a2.089,2.089,0,0,1,1.431.457,1.647,1.647,0,0,1,.537,1.257v2.432a2.973,2.973,0,0,0,.186,1.157V0Zm-1.5-.688a1.588,1.588,0,0,0,.806-.22,1.329,1.329,0,0,0,.552-.571V-2.563h-.708q-1.66,0-1.66.972a.822.822,0,0,0,.283.664A1.089,1.089,0,0,0,34.307-.688Z" transform="translate(946.708 1965.851)"/>
    <path id="Trazado_274210" data-name="Trazado 274210" d="M6.074-.933a2.166,2.166,0,0,1-1.008.774A4.073,4.073,0,0,1,3.56.1,2.921,2.921,0,0,1,2.017-.31,2.716,2.716,0,0,1,.974-1.47,4.005,4.005,0,0,1,.6-3.213v-.62a3.739,3.739,0,0,1,.75-2.49,2.612,2.612,0,0,1,2.107-.884,2.7,2.7,0,0,1,1.792.569,2.478,2.478,0,0,1,.83,1.614H5.137A1.55,1.55,0,0,0,3.457-6.44a1.66,1.66,0,0,0-1.428.662A3.233,3.233,0,0,0,1.538-3.86v.582a3.03,3.03,0,0,0,.547,1.9,1.773,1.773,0,0,0,1.479.706,3.268,3.268,0,0,0,.923-.117,1.427,1.427,0,0,0,.654-.395V-2.773H3.5V-3.54H6.074Zm3.975-3.54A2.707,2.707,0,0,0,9.6-4.507,1.19,1.19,0,0,0,8.4-3.75V0H7.5V-5.283h.879l.015.61a1.407,1.407,0,0,1,1.26-.708.923.923,0,0,1,.4.068ZM13.945,0a1.9,1.9,0,0,1-.127-.557,2.015,2.015,0,0,1-1.5.654,1.865,1.865,0,0,1-1.282-.442,1.43,1.43,0,0,1-.5-1.121,1.494,1.494,0,0,1,.627-1.282A2.958,2.958,0,0,1,12.925-3.2H13.8v-.415a1.015,1.015,0,0,0-.283-.754,1.138,1.138,0,0,0-.835-.281,1.317,1.317,0,0,0-.811.244.719.719,0,0,0-.327.591H10.64a1.247,1.247,0,0,1,.281-.764,1.916,1.916,0,0,1,.762-.583,2.563,2.563,0,0,1,1.057-.215,2.089,2.089,0,0,1,1.431.457,1.647,1.647,0,0,1,.537,1.257v2.432a2.973,2.973,0,0,0,.186,1.157V0Zm-1.5-.688a1.588,1.588,0,0,0,.806-.22,1.329,1.329,0,0,0,.552-.571V-2.563H13.1q-1.66,0-1.66.972a.822.822,0,0,0,.283.664A1.089,1.089,0,0,0,12.446-.688Zm4.531-4.595.029.664a1.925,1.925,0,0,1,1.582-.762q1.675,0,1.689,1.89V0h-.9V-3.5a1.216,1.216,0,0,0-.261-.845,1.047,1.047,0,0,0-.8-.273,1.3,1.3,0,0,0-.771.234,1.592,1.592,0,0,0-.518.615V0h-.9V-5.283ZM24.9,0a1.9,1.9,0,0,1-.127-.557,2.015,2.015,0,0,1-1.5.654A1.865,1.865,0,0,1,21.99-.344a1.43,1.43,0,0,1-.5-1.121,1.494,1.494,0,0,1,.627-1.282A2.958,2.958,0,0,1,23.882-3.2h.879v-.415a1.015,1.015,0,0,0-.283-.754,1.138,1.138,0,0,0-.835-.281,1.317,1.317,0,0,0-.811.244.719.719,0,0,0-.327.591H21.6a1.247,1.247,0,0,1,.281-.764,1.916,1.916,0,0,1,.762-.583A2.563,2.563,0,0,1,23.7-5.381a2.089,2.089,0,0,1,1.431.457,1.647,1.647,0,0,1,.537,1.257v2.432A2.973,2.973,0,0,0,25.85-.078V0ZM23.4-.688a1.588,1.588,0,0,0,.806-.22,1.329,1.329,0,0,0,.552-.571V-2.563h-.708q-1.66,0-1.66.972a.822.822,0,0,0,.283.664A1.089,1.089,0,0,0,23.4-.688Z" transform="translate(941.335 1922.226)"/>
    <path id="Trazado_274211" data-name="Trazado 274211" d="M5.737-6.343H3.452V0H2.52V-6.343H.239v-.767h5.5ZM7.632,0h-.9V-5.283h.9ZM6.655-6.685a.539.539,0,0,1,.134-.371.5.5,0,0,1,.4-.151.512.512,0,0,1,.4.151.534.534,0,0,1,.137.371.516.516,0,0,1-.137.366.521.521,0,0,1-.4.146.513.513,0,0,1-.4-.146A.521.521,0,0,1,6.655-6.685ZM10.059,0h-.9V-7.5h.9Zm4.707,0a1.9,1.9,0,0,1-.127-.557,2.015,2.015,0,0,1-1.5.654,1.865,1.865,0,0,1-1.282-.442,1.43,1.43,0,0,1-.5-1.121,1.494,1.494,0,0,1,.627-1.282A2.958,2.958,0,0,1,13.745-3.2h.879v-.415a1.015,1.015,0,0,0-.283-.754,1.138,1.138,0,0,0-.835-.281,1.317,1.317,0,0,0-.811.244.719.719,0,0,0-.327.591H11.46a1.247,1.247,0,0,1,.281-.764,1.916,1.916,0,0,1,.762-.583,2.563,2.563,0,0,1,1.057-.215,2.089,2.089,0,0,1,1.431.457,1.647,1.647,0,0,1,.537,1.257v2.432a2.973,2.973,0,0,0,.186,1.157V0Zm-1.5-.688a1.588,1.588,0,0,0,.806-.22,1.329,1.329,0,0,0,.552-.571V-2.563h-.708q-1.66,0-1.66.972a.822.822,0,0,0,.283.664A1.089,1.089,0,0,0,13.267-.688Zm5.8.049a1.3,1.3,0,0,0,.845-.293,1.031,1.031,0,0,0,.4-.732h.854A1.638,1.638,0,0,1,20.85-.8a2.058,2.058,0,0,1-.769.654A2.219,2.219,0,0,1,19.063.1a2.176,2.176,0,0,1-1.716-.72,2.869,2.869,0,0,1-.637-1.97v-.151a3.181,3.181,0,0,1,.283-1.372,2.157,2.157,0,0,1,.813-.933,2.309,2.309,0,0,1,1.252-.332,2.119,2.119,0,0,1,1.477.532,1.9,1.9,0,0,1,.627,1.382h-.854a1.245,1.245,0,0,0-.388-.842,1.208,1.208,0,0,0-.862-.33,1.264,1.264,0,0,0-1.067.5,2.328,2.328,0,0,0-.378,1.433v.171a2.281,2.281,0,0,0,.376,1.406A1.27,1.27,0,0,0,19.063-.64ZM21.938-2.69a3.121,3.121,0,0,1,.305-1.4,2.277,2.277,0,0,1,.85-.957,2.313,2.313,0,0,1,1.243-.337,2.228,2.228,0,0,1,1.746.747,2.874,2.874,0,0,1,.667,1.987v.063a3.148,3.148,0,0,1-.3,1.384,2.243,2.243,0,0,1-.845.955A2.339,2.339,0,0,1,24.346.1,2.222,2.222,0,0,1,22.6-.649a2.86,2.86,0,0,1-.667-1.978Zm.908.107a2.26,2.26,0,0,0,.408,1.411,1.3,1.3,0,0,0,1.091.532,1.3,1.3,0,0,0,1.094-.54,2.472,2.472,0,0,0,.405-1.511A2.256,2.256,0,0,0,25.432-4.1a1.312,1.312,0,0,0-1.1-.54,1.3,1.3,0,0,0-1.079.532A2.453,2.453,0,0,0,22.847-2.583ZM28.862,0h-.9V-5.283h.9Zm-.977-6.685a.539.539,0,0,1,.134-.371.5.5,0,0,1,.4-.151.512.512,0,0,1,.4.151.534.534,0,0,1,.137.371.516.516,0,0,1-.137.366.521.521,0,0,1-.4.146.513.513,0,0,1-.4-.146A.521.521,0,0,1,27.886-6.685Zm2.2,4a3.1,3.1,0,0,1,.576-1.956,1.822,1.822,0,0,1,1.509-.74,1.832,1.832,0,0,1,1.47.635V-7.5h.9V0h-.83l-.044-.566A1.84,1.84,0,0,1,32.163.1a1.8,1.8,0,0,1-1.5-.752,3.13,3.13,0,0,1-.579-1.963Zm.9.1a2.343,2.343,0,0,0,.371,1.406,1.2,1.2,0,0,0,1.025.508,1.318,1.318,0,0,0,1.255-.771V-3.867A1.328,1.328,0,0,0,32.4-4.614a1.205,1.205,0,0,0-1.035.513A2.58,2.58,0,0,0,30.991-2.583ZM38.14.1a2.308,2.308,0,0,1-1.748-.706A2.619,2.619,0,0,1,35.718-2.5v-.166a3.17,3.17,0,0,1,.3-1.4,2.343,2.343,0,0,1,.84-.967,2.112,2.112,0,0,1,1.169-.349,1.979,1.979,0,0,1,1.6.679A2.939,2.939,0,0,1,40.2-2.759v.376H36.621a1.878,1.878,0,0,0,.457,1.262,1.435,1.435,0,0,0,1.111.481A1.573,1.573,0,0,0,39-.835a2.037,2.037,0,0,0,.581-.518l.552.43A2.219,2.219,0,0,1,38.14.1Zm-.112-4.736a1.2,1.2,0,0,0-.918.4,1.934,1.934,0,0,0-.459,1.116H39.3v-.068a1.721,1.721,0,0,0-.371-1.067A1.134,1.134,0,0,0,38.027-4.639Z" transform="translate(936 1877.556)"/>
    <path id="Trazado_274212" data-name="Trazado 274212" d="M5.737-6.343H3.452V0H2.52V-6.343H.239v-.767h5.5ZM7.632,0h-.9V-5.283h.9ZM6.655-6.685a.539.539,0,0,1,.134-.371.5.5,0,0,1,.4-.151.512.512,0,0,1,.4.151.534.534,0,0,1,.137.371.516.516,0,0,1-.137.366.521.521,0,0,1-.4.146.513.513,0,0,1-.4-.146A.521.521,0,0,1,6.655-6.685ZM10.059,0h-.9V-7.5h.9Zm4.707,0a1.9,1.9,0,0,1-.127-.557,2.015,2.015,0,0,1-1.5.654,1.865,1.865,0,0,1-1.282-.442,1.43,1.43,0,0,1-.5-1.121,1.494,1.494,0,0,1,.627-1.282A2.958,2.958,0,0,1,13.745-3.2h.879v-.415a1.015,1.015,0,0,0-.283-.754,1.138,1.138,0,0,0-.835-.281,1.317,1.317,0,0,0-.811.244.719.719,0,0,0-.327.591H11.46a1.247,1.247,0,0,1,.281-.764,1.916,1.916,0,0,1,.762-.583,2.563,2.563,0,0,1,1.057-.215,2.089,2.089,0,0,1,1.431.457,1.647,1.647,0,0,1,.537,1.257v2.432a2.973,2.973,0,0,0,.186,1.157V0Zm-1.5-.688a1.588,1.588,0,0,0,.806-.22,1.329,1.329,0,0,0,.552-.571V-2.563h-.708q-1.66,0-1.66.972a.822.822,0,0,0,.283.664A1.089,1.089,0,0,0,13.267-.688Zm5.8.049a1.3,1.3,0,0,0,.845-.293,1.031,1.031,0,0,0,.4-.732h.854A1.638,1.638,0,0,1,20.85-.8a2.058,2.058,0,0,1-.769.654A2.219,2.219,0,0,1,19.063.1a2.176,2.176,0,0,1-1.716-.72,2.869,2.869,0,0,1-.637-1.97v-.151a3.181,3.181,0,0,1,.283-1.372,2.157,2.157,0,0,1,.813-.933,2.309,2.309,0,0,1,1.252-.332,2.119,2.119,0,0,1,1.477.532,1.9,1.9,0,0,1,.627,1.382h-.854a1.245,1.245,0,0,0-.388-.842,1.208,1.208,0,0,0-.862-.33,1.264,1.264,0,0,0-1.067.5,2.328,2.328,0,0,0-.378,1.433v.171a2.281,2.281,0,0,0,.376,1.406A1.27,1.27,0,0,0,19.063-.64ZM21.938-2.69a3.121,3.121,0,0,1,.305-1.4,2.277,2.277,0,0,1,.85-.957,2.313,2.313,0,0,1,1.243-.337,2.228,2.228,0,0,1,1.746.747,2.874,2.874,0,0,1,.667,1.987v.063a3.148,3.148,0,0,1-.3,1.384,2.243,2.243,0,0,1-.845.955A2.339,2.339,0,0,1,24.346.1,2.222,2.222,0,0,1,22.6-.649a2.86,2.86,0,0,1-.667-1.978Zm.908.107a2.26,2.26,0,0,0,.408,1.411,1.3,1.3,0,0,0,1.091.532,1.3,1.3,0,0,0,1.094-.54,2.472,2.472,0,0,0,.405-1.511A2.256,2.256,0,0,0,25.432-4.1a1.312,1.312,0,0,0-1.1-.54,1.3,1.3,0,0,0-1.079.532A2.453,2.453,0,0,0,22.847-2.583ZM28.862,0h-.9V-5.283h.9Zm-.977-6.685a.539.539,0,0,1,.134-.371.5.5,0,0,1,.4-.151.512.512,0,0,1,.4.151.534.534,0,0,1,.137.371.516.516,0,0,1-.137.366.521.521,0,0,1-.4.146.513.513,0,0,1-.4-.146A.521.521,0,0,1,27.886-6.685Zm2.2,4a3.1,3.1,0,0,1,.576-1.956,1.822,1.822,0,0,1,1.509-.74,1.832,1.832,0,0,1,1.47.635V-7.5h.9V0h-.83l-.044-.566A1.84,1.84,0,0,1,32.163.1a1.8,1.8,0,0,1-1.5-.752,3.13,3.13,0,0,1-.579-1.963Zm.9.1a2.343,2.343,0,0,0,.371,1.406,1.2,1.2,0,0,0,1.025.508,1.318,1.318,0,0,0,1.255-.771V-3.867A1.328,1.328,0,0,0,32.4-4.614a1.205,1.205,0,0,0-1.035.513A2.58,2.58,0,0,0,30.991-2.583ZM38.14.1a2.308,2.308,0,0,1-1.748-.706A2.619,2.619,0,0,1,35.718-2.5v-.166a3.17,3.17,0,0,1,.3-1.4,2.343,2.343,0,0,1,.84-.967,2.112,2.112,0,0,1,1.169-.349,1.979,1.979,0,0,1,1.6.679A2.939,2.939,0,0,1,40.2-2.759v.376H36.621a1.878,1.878,0,0,0,.457,1.262,1.435,1.435,0,0,0,1.111.481A1.573,1.573,0,0,0,39-.835a2.037,2.037,0,0,0,.581-.518l.552.43A2.219,2.219,0,0,1,38.14.1Zm-.112-4.736a1.2,1.2,0,0,0-.918.4,1.934,1.934,0,0,0-.459,1.116H39.3v-.068a1.721,1.721,0,0,0-.371-1.067A1.134,1.134,0,0,0,38.027-4.639ZM43.5-2.686a3.1,3.1,0,0,1,.576-1.956,1.822,1.822,0,0,1,1.509-.74,1.832,1.832,0,0,1,1.47.635V-7.5h.9V0h-.83l-.044-.566A1.84,1.84,0,0,1,45.576.1a1.8,1.8,0,0,1-1.5-.752A3.13,3.13,0,0,1,43.5-2.617Zm.9.1a2.343,2.343,0,0,0,.371,1.406A1.2,1.2,0,0,0,45.8-.669a1.318,1.318,0,0,0,1.255-.771V-3.867a1.328,1.328,0,0,0-1.245-.747,1.205,1.205,0,0,0-1.035.513A2.58,2.58,0,0,0,44.4-2.583ZM51.553.1A2.308,2.308,0,0,1,49.8-.608,2.619,2.619,0,0,1,49.131-2.5v-.166a3.17,3.17,0,0,1,.3-1.4,2.343,2.343,0,0,1,.84-.967,2.112,2.112,0,0,1,1.169-.349,1.979,1.979,0,0,1,1.6.679,2.939,2.939,0,0,1,.571,1.943v.376H50.034a1.878,1.878,0,0,0,.457,1.262A1.435,1.435,0,0,0,51.6-.64a1.573,1.573,0,0,0,.811-.2,2.037,2.037,0,0,0,.581-.518l.552.43A2.219,2.219,0,0,1,51.553.1ZM51.44-4.639a1.2,1.2,0,0,0-.918.4,1.934,1.934,0,0,0-.459,1.116H52.71v-.068a1.721,1.721,0,0,0-.371-1.067A1.134,1.134,0,0,0,51.44-4.639ZM58.115,0h-.9V-7.5h.9Zm4.707,0A1.9,1.9,0,0,1,62.7-.557a2.015,2.015,0,0,1-1.5.654A1.865,1.865,0,0,1,59.91-.344a1.43,1.43,0,0,1-.5-1.121,1.494,1.494,0,0,1,.627-1.282A2.958,2.958,0,0,1,61.8-3.2h.879v-.415a1.015,1.015,0,0,0-.283-.754,1.138,1.138,0,0,0-.835-.281,1.317,1.317,0,0,0-.811.244.719.719,0,0,0-.327.591h-.908a1.247,1.247,0,0,1,.281-.764,1.916,1.916,0,0,1,.762-.583,2.563,2.563,0,0,1,1.057-.215,2.089,2.089,0,0,1,1.431.457,1.647,1.647,0,0,1,.537,1.257v2.432A2.973,2.973,0,0,0,63.77-.078V0Zm-1.5-.688a1.588,1.588,0,0,0,.806-.22,1.329,1.329,0,0,0,.552-.571V-2.563h-.708q-1.66,0-1.66.972a.822.822,0,0,0,.283.664A1.089,1.089,0,0,0,61.323-.688ZM69.668.1A2.308,2.308,0,0,1,67.92-.608,2.619,2.619,0,0,1,67.246-2.5v-.166a3.17,3.17,0,0,1,.3-1.4,2.342,2.342,0,0,1,.84-.967,2.112,2.112,0,0,1,1.169-.349,1.979,1.979,0,0,1,1.6.679,2.939,2.939,0,0,1,.571,1.943v.376H68.149a1.878,1.878,0,0,0,.457,1.262,1.435,1.435,0,0,0,1.111.481,1.573,1.573,0,0,0,.811-.2,2.037,2.037,0,0,0,.581-.518l.552.43A2.219,2.219,0,0,1,69.668.1Zm-.112-4.736a1.2,1.2,0,0,0-.918.4,1.934,1.934,0,0,0-.459,1.116h2.646v-.068a1.721,1.721,0,0,0-.371-1.067A1.134,1.134,0,0,0,69.556-4.639ZM75.85-1.4a.665.665,0,0,0-.276-.569,2.655,2.655,0,0,0-.962-.349,4.548,4.548,0,0,1-1.089-.352,1.549,1.549,0,0,1-.6-.488,1.168,1.168,0,0,1-.193-.674,1.37,1.37,0,0,1,.549-1.1,2.145,2.145,0,0,1,1.4-.449,2.208,2.208,0,0,1,1.458.464A1.473,1.473,0,0,1,76.7-3.73H75.8a.815.815,0,0,0-.315-.64,1.18,1.18,0,0,0-.793-.269,1.235,1.235,0,0,0-.771.215.676.676,0,0,0-.278.562.548.548,0,0,0,.259.493,3.184,3.184,0,0,0,.935.317,4.872,4.872,0,0,1,1.1.361,1.6,1.6,0,0,1,.623.505,1.243,1.243,0,0,1,.2.72A1.352,1.352,0,0,1,76.187-.33,2.376,2.376,0,0,1,74.717.1a2.66,2.66,0,0,1-1.123-.225,1.827,1.827,0,0,1-.764-.627,1.512,1.512,0,0,1-.276-.872h.9a.935.935,0,0,0,.364.72,1.411,1.411,0,0,0,.9.266,1.457,1.457,0,0,0,.823-.208A.638.638,0,0,0,75.85-1.4Zm3.306-5.161v1.279h.986v.7h-.986V-1.3a.733.733,0,0,0,.132.477.555.555,0,0,0,.449.159,2.187,2.187,0,0,0,.43-.059V0a2.634,2.634,0,0,1-.693.1,1.125,1.125,0,0,1-.913-.366,1.573,1.573,0,0,1-.308-1.04V-4.585H77.29v-.7h.962V-6.562Zm4.595,2.09a2.707,2.707,0,0,0-.444-.034A1.19,1.19,0,0,0,82.1-3.75V0h-.9V-5.283h.879l.015.61a1.407,1.407,0,0,1,1.26-.708.923.923,0,0,1,.4.068Zm.493,1.782a3.121,3.121,0,0,1,.305-1.4,2.277,2.277,0,0,1,.85-.957,2.313,2.313,0,0,1,1.243-.337,2.228,2.228,0,0,1,1.746.747,2.874,2.874,0,0,1,.667,1.987v.063a3.148,3.148,0,0,1-.3,1.384,2.243,2.243,0,0,1-.845.955A2.339,2.339,0,0,1,86.65.1,2.222,2.222,0,0,1,84.91-.649a2.86,2.86,0,0,1-.667-1.978Zm.908.107a2.26,2.26,0,0,0,.408,1.411A1.3,1.3,0,0,0,86.65-.64a1.3,1.3,0,0,0,1.094-.54,2.472,2.472,0,0,0,.405-1.511A2.256,2.256,0,0,0,87.737-4.1a1.312,1.312,0,0,0-1.1-.54,1.3,1.3,0,0,0-1.079.532A2.453,2.453,0,0,0,85.151-2.583Zm5.884-2.7.024.586a1.951,1.951,0,0,1,1.567-.684,1.51,1.51,0,0,1,1.509.85,2,2,0,0,1,.686-.615,2.026,2.026,0,0,1,1-.234q1.738,0,1.768,1.841V0h-.9V-3.486a1.213,1.213,0,0,0-.259-.847,1.14,1.14,0,0,0-.869-.281,1.2,1.2,0,0,0-.835.3,1.218,1.218,0,0,0-.386.808V0h-.908V-3.462A1.008,1.008,0,0,0,92.3-4.614a1.209,1.209,0,0,0-1.216.757V0h-.9V-5.283ZM102.212,0a1.9,1.9,0,0,1-.127-.557,2.016,2.016,0,0,1-1.5.654A1.865,1.865,0,0,1,99.3-.344a1.43,1.43,0,0,1-.5-1.121,1.494,1.494,0,0,1,.627-1.282,2.958,2.958,0,0,1,1.765-.457h.879v-.415a1.015,1.015,0,0,0-.283-.754,1.138,1.138,0,0,0-.835-.281,1.317,1.317,0,0,0-.811.244.719.719,0,0,0-.327.591h-.908a1.247,1.247,0,0,1,.281-.764,1.916,1.916,0,0,1,.762-.583,2.563,2.563,0,0,1,1.057-.215,2.089,2.089,0,0,1,1.431.457,1.647,1.647,0,0,1,.537,1.257v2.432a2.973,2.973,0,0,0,.186,1.157V0Zm-1.5-.688a1.588,1.588,0,0,0,.806-.22,1.329,1.329,0,0,0,.552-.571V-2.563h-.708q-1.66,0-1.66.972a.822.822,0,0,0,.283.664A1.089,1.089,0,0,0,100.713-.688Z" transform="translate(1109.598 1839)"/>
    <path id="Trazado_274213" data-name="Trazado 274213" d="M-24.154-7.82-21.6-1.439l2.557-6.381H-17.7V0h-1.031V-3.045l.1-3.287L-21.205,0h-.79l-2.562-6.316.1,3.271V0h-1.031V-7.82ZM-13.626.107a2.539,2.539,0,0,1-1.923-.776,2.881,2.881,0,0,1-.741-2.076v-.183a3.487,3.487,0,0,1,.33-1.544,2.577,2.577,0,0,1,.924-1.063,2.323,2.323,0,0,1,1.286-.384,2.177,2.177,0,0,1,1.762.747,3.232,3.232,0,0,1,.628,2.138v.414H-15.3a2.066,2.066,0,0,0,.5,1.388A1.579,1.579,0,0,0-13.573-.7a1.731,1.731,0,0,0,.892-.215,2.24,2.24,0,0,0,.639-.569l.607.473A2.44,2.44,0,0,1-13.626.107ZM-13.75-5.1a1.325,1.325,0,0,0-1.01.438,2.128,2.128,0,0,0-.5,1.227h2.911v-.075a1.893,1.893,0,0,0-.408-1.174A1.248,1.248,0,0,0-13.75-5.1Zm4.474-.709.027.645a2.146,2.146,0,0,1,1.724-.752,1.662,1.662,0,0,1,1.66.935,2.2,2.2,0,0,1,.755-.677,2.229,2.229,0,0,1,1.1-.258q1.912,0,1.944,2.025V0h-.994V-3.835a1.334,1.334,0,0,0-.285-.932A1.254,1.254,0,0,0-4.3-5.076a1.318,1.318,0,0,0-.918.33,1.34,1.34,0,0,0-.424.889V0h-1V-3.808A1.109,1.109,0,0,0-7.885-5.076a1.329,1.329,0,0,0-1.337.833V0h-.994V-5.812ZM4.351-2.841A3.455,3.455,0,0,1,3.738-.7,1.956,1.956,0,0,1,2.095.107a2.026,2.026,0,0,1-1.7-.779L.344,0H-.569V-8.25H.424v3.078a2.014,2.014,0,0,1,1.66-.747,1.968,1.968,0,0,1,1.662.8,3.559,3.559,0,0,1,.6,2.191Zm-.994-.113a2.685,2.685,0,0,0-.392-1.568,1.3,1.3,0,0,0-1.128-.553,1.459,1.459,0,0,0-1.413.913v2.514a1.5,1.5,0,0,0,1.423.913,1.291,1.291,0,0,0,1.112-.553A2.855,2.855,0,0,0,3.357-2.954ZM8.411-4.92a2.978,2.978,0,0,0-.489-.038A1.309,1.309,0,0,0,6.6-4.125V0H5.6V-5.812h.967l.016.671a1.547,1.547,0,0,1,1.386-.779,1.015,1.015,0,0,1,.44.075ZM12.7,0a2.087,2.087,0,0,1-.14-.612A2.217,2.217,0,0,1,10.9.107a2.051,2.051,0,0,1-1.41-.486,1.573,1.573,0,0,1-.551-1.233,1.643,1.643,0,0,1,.69-1.41,3.254,3.254,0,0,1,1.942-.5h.967V-3.98a1.116,1.116,0,0,0-.312-.83,1.252,1.252,0,0,0-.918-.309,1.449,1.449,0,0,0-.892.269.791.791,0,0,0-.36.65h-1a1.371,1.371,0,0,1,.309-.841,2.108,2.108,0,0,1,.838-.642,2.819,2.819,0,0,1,1.163-.236,2.3,2.3,0,0,1,1.574.5,1.812,1.812,0,0,1,.591,1.383v2.675a3.27,3.27,0,0,0,.2,1.273V0ZM11.048-.757A1.746,1.746,0,0,0,11.935-1a1.462,1.462,0,0,0,.607-.628V-2.82h-.779q-1.826,0-1.826,1.069a.9.9,0,0,0,.312.73A1.2,1.2,0,0,0,11.048-.757Zm4.984-5.054.032.73a2.118,2.118,0,0,1,1.74-.838q1.842,0,1.858,2.079V0H18.67V-3.846a1.338,1.338,0,0,0-.287-.929,1.152,1.152,0,0,0-.878-.3,1.434,1.434,0,0,0-.849.258,1.751,1.751,0,0,0-.569.677V0h-.994V-5.812ZM24.75,0a2.087,2.087,0,0,1-.14-.612,2.217,2.217,0,0,1-1.654.72,2.051,2.051,0,0,1-1.41-.486A1.573,1.573,0,0,1,21-1.611a1.643,1.643,0,0,1,.69-1.41,3.254,3.254,0,0,1,1.942-.5h.967V-3.98a1.116,1.116,0,0,0-.312-.83,1.252,1.252,0,0,0-.918-.309,1.449,1.449,0,0,0-.892.269.791.791,0,0,0-.36.65h-1a1.371,1.371,0,0,1,.309-.841,2.108,2.108,0,0,1,.838-.642,2.819,2.819,0,0,1,1.163-.236,2.3,2.3,0,0,1,1.574.5,1.812,1.812,0,0,1,.591,1.383v2.675a3.27,3.27,0,0,0,.2,1.273V0ZM23.1-.757A1.746,1.746,0,0,0,23.987-1a1.462,1.462,0,0,0,.607-.628V-2.82h-.779q-1.826,0-1.826,1.069a.9.9,0,0,0,.312.73A1.2,1.2,0,0,0,23.1-.757ZM-15.074,13.107A2.539,2.539,0,0,1-17,12.331a2.881,2.881,0,0,1-.741-2.076v-.183a3.487,3.487,0,0,1,.33-1.544,2.577,2.577,0,0,1,.924-1.063A2.323,2.323,0,0,1-15.2,7.081a2.177,2.177,0,0,1,1.762.747,3.232,3.232,0,0,1,.628,2.138v.414h-3.937a2.066,2.066,0,0,0,.5,1.388,1.579,1.579,0,0,0,1.222.529,1.731,1.731,0,0,0,.892-.215,2.24,2.24,0,0,0,.639-.569l.607.473A2.44,2.44,0,0,1-15.074,13.107ZM-15.2,7.9a1.325,1.325,0,0,0-1.01.438,2.128,2.128,0,0,0-.5,1.227H-13.8V9.487a1.893,1.893,0,0,0-.408-1.174A1.248,1.248,0,0,0-15.2,7.9ZM-9.708,9.31l1.289-2.122h1.16l-1.9,2.874L-7.2,13H-8.349l-1.343-2.175L-11.035,13H-12.19l1.96-2.938-1.9-2.874h1.149Zm4.85-3.529V7.188h1.085v.768H-4.858v3.609a.807.807,0,0,0,.145.524.61.61,0,0,0,.494.175,2.406,2.406,0,0,0,.473-.064V13a2.9,2.9,0,0,1-.763.107,1.237,1.237,0,0,1-1-.4,1.731,1.731,0,0,1-.338-1.144v-3.6H-6.91V7.188h1.058V5.781ZM-.2,13.107a2.539,2.539,0,0,1-1.923-.776,2.881,2.881,0,0,1-.741-2.076v-.183a3.487,3.487,0,0,1,.33-1.544,2.577,2.577,0,0,1,.924-1.063A2.323,2.323,0,0,1-.325,7.081a2.177,2.177,0,0,1,1.762.747,3.232,3.232,0,0,1,.628,2.138v.414H-1.872a2.066,2.066,0,0,0,.5,1.388A1.579,1.579,0,0,0-.148,12.3a1.731,1.731,0,0,0,.892-.215,2.24,2.24,0,0,0,.639-.569l.607.473A2.44,2.44,0,0,1-.2,13.107ZM-.325,7.9a1.325,1.325,0,0,0-1.01.438,2.128,2.128,0,0,0-.5,1.227H1.072V9.487A1.893,1.893,0,0,0,.663,8.314,1.248,1.248,0,0,0-.325,7.9Zm6.349.183a2.978,2.978,0,0,0-.489-.038,1.309,1.309,0,0,0-1.327.833V13H3.215V7.188h.967L4.2,7.86a1.547,1.547,0,0,1,1.386-.779,1.015,1.015,0,0,1,.44.075Zm1.853-.892.032.73a2.118,2.118,0,0,1,1.74-.838q1.842,0,1.858,2.079V13h-.994V9.154a1.338,1.338,0,0,0-.287-.929,1.152,1.152,0,0,0-.878-.3,1.434,1.434,0,0,0-.849.258,1.751,1.751,0,0,0-.569.677V13H6.937V7.188ZM16.594,13a2.087,2.087,0,0,1-.14-.612,2.217,2.217,0,0,1-1.654.72,2.051,2.051,0,0,1-1.41-.486,1.573,1.573,0,0,1-.551-1.233,1.643,1.643,0,0,1,.69-1.41,3.254,3.254,0,0,1,1.942-.5h.967V9.02a1.116,1.116,0,0,0-.312-.83,1.252,1.252,0,0,0-.918-.309,1.449,1.449,0,0,0-.892.269.791.791,0,0,0-.36.65h-1a1.371,1.371,0,0,1,.309-.841,2.108,2.108,0,0,1,.838-.642,2.819,2.819,0,0,1,1.163-.236,2.3,2.3,0,0,1,1.574.5,1.812,1.812,0,0,1,.591,1.383v2.675a3.27,3.27,0,0,0,.2,1.273V13Zm-1.649-.757A1.746,1.746,0,0,0,15.831,12a1.462,1.462,0,0,0,.607-.628V10.18h-.779q-1.826,0-1.826,1.069a.9.9,0,0,0,.312.73A1.2,1.2,0,0,0,14.945,12.243Z" transform="translate(1257.862 1916.842)"/>
    <path id="Trazado_274214" data-name="Trazado 274214" d="M-24.154-7.82-21.6-1.439l2.557-6.381H-17.7V0h-1.031V-3.045l.1-3.287L-21.205,0h-.79l-2.562-6.316.1,3.271V0h-1.031V-7.82ZM-13.626.107a2.539,2.539,0,0,1-1.923-.776,2.881,2.881,0,0,1-.741-2.076v-.183a3.487,3.487,0,0,1,.33-1.544,2.577,2.577,0,0,1,.924-1.063,2.323,2.323,0,0,1,1.286-.384,2.177,2.177,0,0,1,1.762.747,3.232,3.232,0,0,1,.628,2.138v.414H-15.3a2.066,2.066,0,0,0,.5,1.388A1.579,1.579,0,0,0-13.573-.7a1.731,1.731,0,0,0,.892-.215,2.24,2.24,0,0,0,.639-.569l.607.473A2.44,2.44,0,0,1-13.626.107ZM-13.75-5.1a1.325,1.325,0,0,0-1.01.438,2.128,2.128,0,0,0-.5,1.227h2.911v-.075a1.893,1.893,0,0,0-.408-1.174A1.248,1.248,0,0,0-13.75-5.1Zm4.474-.709.027.645a2.146,2.146,0,0,1,1.724-.752,1.662,1.662,0,0,1,1.66.935,2.2,2.2,0,0,1,.755-.677,2.229,2.229,0,0,1,1.1-.258q1.912,0,1.944,2.025V0h-.994V-3.835a1.334,1.334,0,0,0-.285-.932A1.254,1.254,0,0,0-4.3-5.076a1.318,1.318,0,0,0-.918.33,1.34,1.34,0,0,0-.424.889V0h-1V-3.808A1.109,1.109,0,0,0-7.885-5.076a1.329,1.329,0,0,0-1.337.833V0h-.994V-5.812ZM4.351-2.841A3.455,3.455,0,0,1,3.738-.7,1.956,1.956,0,0,1,2.095.107a2.026,2.026,0,0,1-1.7-.779L.344,0H-.569V-8.25H.424v3.078a2.014,2.014,0,0,1,1.66-.747,1.968,1.968,0,0,1,1.662.8,3.559,3.559,0,0,1,.6,2.191Zm-.994-.113a2.685,2.685,0,0,0-.392-1.568,1.3,1.3,0,0,0-1.128-.553,1.459,1.459,0,0,0-1.413.913v2.514a1.5,1.5,0,0,0,1.423.913,1.291,1.291,0,0,0,1.112-.553A2.855,2.855,0,0,0,3.357-2.954ZM8.411-4.92a2.978,2.978,0,0,0-.489-.038A1.309,1.309,0,0,0,6.6-4.125V0H5.6V-5.812h.967l.016.671a1.547,1.547,0,0,1,1.386-.779,1.015,1.015,0,0,1,.44.075ZM12.7,0a2.087,2.087,0,0,1-.14-.612A2.217,2.217,0,0,1,10.9.107a2.051,2.051,0,0,1-1.41-.486,1.573,1.573,0,0,1-.551-1.233,1.643,1.643,0,0,1,.69-1.41,3.254,3.254,0,0,1,1.942-.5h.967V-3.98a1.116,1.116,0,0,0-.312-.83,1.252,1.252,0,0,0-.918-.309,1.449,1.449,0,0,0-.892.269.791.791,0,0,0-.36.65h-1a1.371,1.371,0,0,1,.309-.841,2.108,2.108,0,0,1,.838-.642,2.819,2.819,0,0,1,1.163-.236,2.3,2.3,0,0,1,1.574.5,1.812,1.812,0,0,1,.591,1.383v2.675a3.27,3.27,0,0,0,.2,1.273V0ZM11.048-.757A1.746,1.746,0,0,0,11.935-1a1.462,1.462,0,0,0,.607-.628V-2.82h-.779q-1.826,0-1.826,1.069a.9.9,0,0,0,.312.73A1.2,1.2,0,0,0,11.048-.757Zm4.984-5.054.032.73a2.118,2.118,0,0,1,1.74-.838q1.842,0,1.858,2.079V0H18.67V-3.846a1.338,1.338,0,0,0-.287-.929,1.152,1.152,0,0,0-.878-.3,1.434,1.434,0,0,0-.849.258,1.751,1.751,0,0,0-.569.677V0h-.994V-5.812ZM24.75,0a2.087,2.087,0,0,1-.14-.612,2.217,2.217,0,0,1-1.654.72,2.051,2.051,0,0,1-1.41-.486A1.573,1.573,0,0,1,21-1.611a1.643,1.643,0,0,1,.69-1.41,3.254,3.254,0,0,1,1.942-.5h.967V-3.98a1.116,1.116,0,0,0-.312-.83,1.252,1.252,0,0,0-.918-.309,1.449,1.449,0,0,0-.892.269.791.791,0,0,0-.36.65h-1a1.371,1.371,0,0,1,.309-.841,2.108,2.108,0,0,1,.838-.642,2.819,2.819,0,0,1,1.163-.236,2.3,2.3,0,0,1,1.574.5,1.812,1.812,0,0,1,.591,1.383v2.675a3.27,3.27,0,0,0,.2,1.273V0ZM23.1-.757A1.746,1.746,0,0,0,23.987-1a1.462,1.462,0,0,0,.607-.628V-2.82h-.779q-1.826,0-1.826,1.069a.9.9,0,0,0,.312.73A1.2,1.2,0,0,0,23.1-.757ZM-15.136,13h-.994V7.188h.994ZM-16.21,5.647a.593.593,0,0,1,.148-.408.555.555,0,0,1,.438-.167.563.563,0,0,1,.44.167.587.587,0,0,1,.15.408.568.568,0,0,1-.15.4.573.573,0,0,1-.44.161.565.565,0,0,1-.438-.161A.573.573,0,0,1-16.21,5.647Zm3.6,1.542.032.73a2.118,2.118,0,0,1,1.74-.838q1.842,0,1.858,2.079V13h-.994V9.154a1.338,1.338,0,0,0-.287-.929,1.152,1.152,0,0,0-.878-.3,1.434,1.434,0,0,0-.849.258,1.751,1.751,0,0,0-.569.677V13h-.994V7.188Zm6.478-1.407V7.188h1.085v.768H-6.128v3.609a.807.807,0,0,0,.145.524.61.61,0,0,0,.494.175,2.406,2.406,0,0,0,.473-.064V13a2.9,2.9,0,0,1-.763.107,1.237,1.237,0,0,1-1-.4,1.731,1.731,0,0,1-.338-1.144v-3.6H-8.18V7.188h1.058V5.781Zm4.657,7.326a2.539,2.539,0,0,1-1.923-.776,2.881,2.881,0,0,1-.741-2.076v-.183a3.487,3.487,0,0,1,.33-1.544,2.577,2.577,0,0,1,.924-1.063A2.323,2.323,0,0,1-1.6,7.081a2.177,2.177,0,0,1,1.762.747A3.232,3.232,0,0,1,.795,9.965v.414H-3.142a2.066,2.066,0,0,0,.5,1.388,1.579,1.579,0,0,0,1.222.529,1.731,1.731,0,0,0,.892-.215,2.24,2.24,0,0,0,.639-.569l.607.473A2.44,2.44,0,0,1-1.472,13.107ZM-1.6,7.9a1.325,1.325,0,0,0-1.01.438,2.128,2.128,0,0,0-.5,1.227H-.2V9.487A1.893,1.893,0,0,0-.607,8.314,1.248,1.248,0,0,0-1.6,7.9Zm6.349.183a2.978,2.978,0,0,0-.489-.038,1.309,1.309,0,0,0-1.327.833V13H1.944V7.188h.967l.016.671a1.547,1.547,0,0,1,1.386-.779,1.015,1.015,0,0,1,.44.075Zm1.853-.892.032.73a2.118,2.118,0,0,1,1.74-.838q1.842,0,1.858,2.079V13H9.244V9.154a1.338,1.338,0,0,0-.287-.929,1.152,1.152,0,0,0-.878-.3,1.434,1.434,0,0,0-.849.258,1.751,1.751,0,0,0-.569.677V13H5.667V7.188ZM15.324,13a2.087,2.087,0,0,1-.14-.612,2.217,2.217,0,0,1-1.654.72,2.051,2.051,0,0,1-1.41-.486,1.573,1.573,0,0,1-.551-1.233,1.643,1.643,0,0,1,.69-1.41,3.254,3.254,0,0,1,1.942-.5h.967V9.02a1.116,1.116,0,0,0-.312-.83,1.252,1.252,0,0,0-.918-.309,1.449,1.449,0,0,0-.892.269.791.791,0,0,0-.36.65h-1A1.371,1.371,0,0,1,12,7.959a2.108,2.108,0,0,1,.838-.642A2.819,2.819,0,0,1,14,7.081a2.3,2.3,0,0,1,1.574.5,1.812,1.812,0,0,1,.591,1.383v2.675a3.27,3.27,0,0,0,.2,1.273V13Zm-1.649-.757A1.746,1.746,0,0,0,14.561,12a1.462,1.462,0,0,0,.607-.628V10.18h-.779q-1.826,0-1.826,1.069a.9.9,0,0,0,.312.73A1.2,1.2,0,0,0,13.675,12.243Z" transform="translate(1255.93 1954.913)"/>
    <path id="Trazado_274215" data-name="Trazado 274215" d="M-14.062-3.615h-3.389V-.843h3.937V0h-4.968V-7.82h4.915v.843h-3.883v2.519h3.389ZM-9-1.542a.731.731,0,0,0-.3-.626,2.921,2.921,0,0,0-1.058-.384,5,5,0,0,1-1.2-.387,1.7,1.7,0,0,1-.655-.537,1.285,1.285,0,0,1-.212-.741,1.508,1.508,0,0,1,.6-1.208,2.36,2.36,0,0,1,1.544-.494,2.428,2.428,0,0,1,1.6.51A1.621,1.621,0,0,1-8.062-4.1h-1a.9.9,0,0,0-.346-.7,1.3,1.3,0,0,0-.873-.3,1.358,1.358,0,0,0-.849.236.744.744,0,0,0-.306.618.6.6,0,0,0,.285.542,3.5,3.5,0,0,0,1.029.349,5.359,5.359,0,0,1,1.206.4,1.759,1.759,0,0,1,.685.556,1.367,1.367,0,0,1,.223.792A1.487,1.487,0,0,1-8.631-.363a2.613,2.613,0,0,1-1.617.47A2.926,2.926,0,0,1-11.483-.14a2.009,2.009,0,0,1-.841-.69,1.664,1.664,0,0,1-.3-.959h.994a1.029,1.029,0,0,0,.4.792,1.552,1.552,0,0,0,.986.293,1.6,1.6,0,0,0,.905-.228A.7.7,0,0,0-9-1.542Zm7.2-1.3A3.48,3.48,0,0,1-2.412-.7,1.945,1.945,0,0,1-4.055.107,2.131,2.131,0,0,1-5.72-.564v2.8h-.994V-5.812h.908l.048.645a2.047,2.047,0,0,1,1.687-.752,1.982,1.982,0,0,1,1.657.79,3.518,3.518,0,0,1,.61,2.2ZM-2.8-2.954a2.568,2.568,0,0,0-.419-1.552,1.35,1.35,0,0,0-1.149-.569,1.461,1.461,0,0,0-1.354.8V-1.5A1.464,1.464,0,0,0-4.356-.7,1.343,1.343,0,0,0-3.22-1.27,2.8,2.8,0,0,0-2.8-2.954ZM3.045,0a2.087,2.087,0,0,1-.14-.612,2.217,2.217,0,0,1-1.654.72A2.051,2.051,0,0,1-.158-.379,1.573,1.573,0,0,1-.709-1.611a1.643,1.643,0,0,1,.69-1.41,3.254,3.254,0,0,1,1.942-.5H2.89V-3.98a1.116,1.116,0,0,0-.312-.83,1.252,1.252,0,0,0-.918-.309,1.449,1.449,0,0,0-.892.269.791.791,0,0,0-.36.65h-1a1.371,1.371,0,0,1,.309-.841,2.108,2.108,0,0,1,.838-.642,2.819,2.819,0,0,1,1.163-.236,2.3,2.3,0,0,1,1.574.5,1.812,1.812,0,0,1,.591,1.383v2.675a3.27,3.27,0,0,0,.2,1.273V0ZM1.4-.757A1.746,1.746,0,0,0,2.283-1a1.462,1.462,0,0,0,.607-.628V-2.82H2.111Q.285-2.82.285-1.751a.9.9,0,0,0,.312.73A1.2,1.2,0,0,0,1.4-.757ZM7.772-.7A1.431,1.431,0,0,0,8.7-1.026a1.134,1.134,0,0,0,.44-.806h.94a1.8,1.8,0,0,1-.344.951,2.264,2.264,0,0,1-.846.72,2.441,2.441,0,0,1-1.12.269A2.394,2.394,0,0,1,5.884-.685a3.155,3.155,0,0,1-.7-2.167v-.167a3.5,3.5,0,0,1,.312-1.509,2.373,2.373,0,0,1,.894-1.026,2.54,2.54,0,0,1,1.378-.365,2.331,2.331,0,0,1,1.625.585,2.092,2.092,0,0,1,.69,1.52h-.94a1.369,1.369,0,0,0-.427-.927A1.328,1.328,0,0,0,7.767-5.1a1.391,1.391,0,0,0-1.174.545,2.56,2.56,0,0,0-.416,1.576v.188A2.509,2.509,0,0,0,6.59-1.246,1.4,1.4,0,0,0,7.772-.7Zm4.506.7h-.994V-5.812h.994ZM11.2-7.353a.593.593,0,0,1,.148-.408.555.555,0,0,1,.438-.167.563.563,0,0,1,.44.167.587.587,0,0,1,.15.408.568.568,0,0,1-.15.4.573.573,0,0,1-.44.161.565.565,0,0,1-.438-.161A.573.573,0,0,1,11.2-7.353Zm2.4,4.394A3.433,3.433,0,0,1,13.941-4.5a2.5,2.5,0,0,1,.935-1.053,2.544,2.544,0,0,1,1.367-.371,2.451,2.451,0,0,1,1.92.822A3.162,3.162,0,0,1,18.9-2.911v.07a3.462,3.462,0,0,1-.325,1.523,2.467,2.467,0,0,1-.929,1.05,2.573,2.573,0,0,1-1.388.376,2.445,2.445,0,0,1-1.915-.822A3.146,3.146,0,0,1,13.6-2.89Zm1,.118a2.486,2.486,0,0,0,.448,1.552,1.435,1.435,0,0,0,1.2.585,1.427,1.427,0,0,0,1.2-.594A2.719,2.719,0,0,0,17.9-2.959a2.482,2.482,0,0,0-.454-1.55A1.443,1.443,0,0,0,16.242-5.1a1.427,1.427,0,0,0-1.187.585A2.7,2.7,0,0,0,14.6-2.841ZM-35.5,13h-1.031V5.18H-35.5Zm2.669-5.812.032.73a2.118,2.118,0,0,1,1.74-.838q1.842,0,1.858,2.079V13h-.994V9.154a1.338,1.338,0,0,0-.287-.929,1.152,1.152,0,0,0-.878-.3,1.434,1.434,0,0,0-.849.258,1.751,1.751,0,0,0-.569.677V13h-.994V7.188Zm6.478-1.407V7.188h1.085v.768h-1.085v3.609a.807.807,0,0,0,.145.524.61.61,0,0,0,.494.175,2.406,2.406,0,0,0,.473-.064V13a2.9,2.9,0,0,1-.763.107,1.237,1.237,0,0,1-1-.4,1.731,1.731,0,0,1-.338-1.144v-3.6h-1.058V7.188h1.058V5.781Zm4.657,7.326a2.539,2.539,0,0,1-1.923-.776,2.881,2.881,0,0,1-.741-2.076v-.183a3.487,3.487,0,0,1,.33-1.544,2.577,2.577,0,0,1,.924-1.063,2.323,2.323,0,0,1,1.286-.384,2.177,2.177,0,0,1,1.762.747,3.232,3.232,0,0,1,.628,2.138v.414h-3.937a2.066,2.066,0,0,0,.5,1.388,1.579,1.579,0,0,0,1.222.529,1.731,1.731,0,0,0,.892-.215,2.24,2.24,0,0,0,.639-.569l.607.473A2.44,2.44,0,0,1-21.7,13.107ZM-21.82,7.9a1.325,1.325,0,0,0-1.01.438,2.128,2.128,0,0,0-.5,1.227h2.911V9.487a1.893,1.893,0,0,0-.408-1.174A1.248,1.248,0,0,0-21.82,7.9Zm6.349.183a2.978,2.978,0,0,0-.489-.038,1.309,1.309,0,0,0-1.327.833V13h-.994V7.188h.967l.016.671a1.547,1.547,0,0,1,1.386-.779,1.015,1.015,0,0,1,.44.075Zm1.848-.892.027.645a2.146,2.146,0,0,1,1.724-.752,1.662,1.662,0,0,1,1.66.935,2.2,2.2,0,0,1,.755-.677,2.229,2.229,0,0,1,1.1-.258q1.912,0,1.944,2.025V13h-.994V9.165a1.334,1.334,0,0,0-.285-.932,1.254,1.254,0,0,0-.956-.309,1.318,1.318,0,0,0-.918.33,1.34,1.34,0,0,0-.424.889V13h-1V9.192a1.109,1.109,0,0,0-1.241-1.268,1.329,1.329,0,0,0-1.337.833V13h-.994V7.188Zm11.118,5.919a2.539,2.539,0,0,1-1.923-.776,2.881,2.881,0,0,1-.741-2.076v-.183a3.487,3.487,0,0,1,.33-1.544,2.577,2.577,0,0,1,.924-1.063,2.323,2.323,0,0,1,1.286-.384,2.177,2.177,0,0,1,1.762.747A3.232,3.232,0,0,1-.239,9.965v.414H-4.176a2.066,2.066,0,0,0,.5,1.388,1.579,1.579,0,0,0,1.222.529,1.731,1.731,0,0,0,.892-.215,2.24,2.24,0,0,0,.639-.569l.607.473A2.44,2.44,0,0,1-2.506,13.107ZM-2.629,7.9a1.325,1.325,0,0,0-1.01.438,2.128,2.128,0,0,0-.5,1.227h2.911V9.487a1.893,1.893,0,0,0-.408-1.174A1.248,1.248,0,0,0-2.629,7.9Zm4.474-.709.027.645A2.146,2.146,0,0,1,3.6,7.081a1.662,1.662,0,0,1,1.66.935,2.2,2.2,0,0,1,.755-.677,2.229,2.229,0,0,1,1.1-.258q1.912,0,1.944,2.025V13H8.059V9.165a1.334,1.334,0,0,0-.285-.932,1.254,1.254,0,0,0-.956-.309,1.318,1.318,0,0,0-.918.33,1.34,1.34,0,0,0-.424.889V13h-1V9.192A1.109,1.109,0,0,0,3.236,7.924,1.329,1.329,0,0,0,1.9,8.757V13H.905V7.188Zm13.626,2.97a3.455,3.455,0,0,1-.612,2.14,1.956,1.956,0,0,1-1.644.808,2.026,2.026,0,0,1-1.7-.779L11.465,13h-.913V4.75h.994V7.828a2.014,2.014,0,0,1,1.66-.747,1.968,1.968,0,0,1,1.662.8,3.559,3.559,0,0,1,.6,2.191Zm-.994-.113a2.685,2.685,0,0,0-.392-1.568,1.3,1.3,0,0,0-1.128-.553,1.459,1.459,0,0,0-1.413.913v2.514a1.5,1.5,0,0,0,1.423.913,1.291,1.291,0,0,0,1.112-.553A2.855,2.855,0,0,0,14.478,10.046ZM19.532,8.08a2.978,2.978,0,0,0-.489-.038,1.309,1.309,0,0,0-1.327.833V13h-.994V7.188h.967l.016.671a1.547,1.547,0,0,1,1.386-.779,1.015,1.015,0,0,1,.44.075ZM23.818,13a2.087,2.087,0,0,1-.14-.612,2.217,2.217,0,0,1-1.654.72,2.051,2.051,0,0,1-1.41-.486,1.573,1.573,0,0,1-.551-1.233,1.643,1.643,0,0,1,.69-1.41,3.254,3.254,0,0,1,1.942-.5h.967V9.02a1.116,1.116,0,0,0-.312-.83,1.252,1.252,0,0,0-.918-.309,1.449,1.449,0,0,0-.892.269.791.791,0,0,0-.36.65h-1a1.371,1.371,0,0,1,.309-.841,2.108,2.108,0,0,1,.838-.642,2.819,2.819,0,0,1,1.163-.236,2.3,2.3,0,0,1,1.574.5,1.812,1.812,0,0,1,.591,1.383v2.675a3.27,3.27,0,0,0,.2,1.273V13Zm-1.649-.757A1.746,1.746,0,0,0,23.055,12a1.462,1.462,0,0,0,.607-.628V10.18h-.779q-1.826,0-1.826,1.069a.9.9,0,0,0,.312.73A1.2,1.2,0,0,0,22.169,12.243Zm4.984-5.054.032.73a2.118,2.118,0,0,1,1.74-.838q1.842,0,1.858,2.079V13h-.994V9.154a1.338,1.338,0,0,0-.287-.929,1.152,1.152,0,0,0-.878-.3,1.434,1.434,0,0,0-.849.258,1.751,1.751,0,0,0-.569.677V13h-.994V7.188ZM35.871,13a2.087,2.087,0,0,1-.14-.612,2.217,2.217,0,0,1-1.654.72,2.051,2.051,0,0,1-1.41-.486,1.573,1.573,0,0,1-.551-1.233,1.643,1.643,0,0,1,.69-1.41,3.254,3.254,0,0,1,1.942-.5h.967V9.02a1.116,1.116,0,0,0-.312-.83,1.252,1.252,0,0,0-.918-.309,1.449,1.449,0,0,0-.892.269.791.791,0,0,0-.36.65h-1a1.371,1.371,0,0,1,.309-.841,2.108,2.108,0,0,1,.838-.642,2.819,2.819,0,0,1,1.163-.236,2.3,2.3,0,0,1,1.574.5,1.812,1.812,0,0,1,.591,1.383v2.675a3.27,3.27,0,0,0,.2,1.273V13Zm-1.649-.757A1.746,1.746,0,0,0,35.108,12a1.462,1.462,0,0,0,.607-.628V10.18h-.779q-1.826,0-1.826,1.069a.9.9,0,0,0,.312.73A1.2,1.2,0,0,0,34.222,12.243Z" transform="translate(1225.876 1979.719)"/>
    <path id="Trazado_256917" data-name="Trazado 256917" d="M179.656,114.46l4.756,2.518s6.443,3.72,11.772,3.4l10.1-.617s-9.931,8.058-13.679,9.558-10.509-.045-12.008-.795-2.249,4.31-2.249,4.31a47.827,47.827,0,0,0,8.479,2.8C191.7,136.757,199.293,137,206.345,137c6.79,0,16.92,1.552,18.606,2.432s9.24,3.571,9.24,3.571l.1-3.54s-1.585-.026-6.832-2.274-13.681-2.624-13.681-2.624l-21.737-1.311s7.683-2.437,10.493-4.873,9.371-7.871,9.371-7.871,3.919-1.863,6.918-1.489,16.728,2.026,16.728,2.026v-3.356a48.418,48.418,0,0,0-12.966-1.244c-13.976.246-20.04.287-27.145.287-8.289,0-16.6-6.667-16.6-6.667" transform="translate(913.204 1772.579)" fill="#279100" stroke="#98b924" stroke-miterlimit="10" stroke-width="0.5"/>
    <g id="Grupo_146589" data-name="Grupo 146589" transform="translate(1147.332 1879.924)">
      <g id="Grupo_146577" data-name="Grupo 146577" transform="translate(0 29.347)">
        <g id="Grupo_146571" data-name="Grupo 146571" transform="translate(0 15.76)">
          <g id="Grupo_146570" data-name="Grupo 146570">
            <path id="Trazado_256918" data-name="Trazado 256918" d="M273.687,159.23c.351,6.78-9.662,12.561-22.37,12.916s-23.305-4.86-23.661-11.64,9.657-12.568,22.366-12.921S273.327,152.445,273.687,159.23Z" transform="translate(-227.453 -147.374)" fill="#defa62"/>
            <path id="Trazado_256919" data-name="Trazado 256919" d="M259.73,171.281a41.179,41.179,0,0,1-8.384,1.083c-12.8.353-23.5-4.953-23.861-11.825a8.233,8.233,0,0,1,2.45-6c3.837-4.158,11.543-6.887,20.1-7.127,12.794-.359,23.5,4.947,23.864,11.828h0a8.231,8.231,0,0,1-2.452,5.992C268.93,167.966,264.738,170.082,259.73,171.281Zm-18-22.406c-4.924,1.179-9.039,3.252-11.509,5.928a7.855,7.855,0,0,0-2.347,5.716c.349,6.665,10.874,11.8,23.461,11.456,8.462-.235,16.062-2.92,19.832-7a7.847,7.847,0,0,0,2.349-5.708h0c-.353-6.674-10.879-11.815-23.464-11.461A40.786,40.786,0,0,0,241.729,148.875Zm31.981,10.378h0Z" transform="translate(-227.476 -147.397)" fill="#98b924"/>
          </g>
          <path id="Trazado_256920" data-name="Trazado 256920" d="M249.657,167.447c12.7-.353,22.716-6.137,22.365-12.92-.013-.154-.049-.3-.07-.459a7.671,7.671,0,0,1,1.725,4.282c.351,6.78-9.662,12.561-22.37,12.916-12.413.343-22.784-4.623-23.588-11.178C231.24,164.643,239.8,167.72,249.657,167.447Z" transform="translate(-227.443 -146.494)" fill="#c0d553" opacity="0.7" style="mix-blend-mode: multiply;isolation: isolate"/>
        </g>
        <g id="Grupo_146574" data-name="Grupo 146574" transform="translate(0.004 7.91)">
          <g id="Grupo_146573" data-name="Grupo 146573">
            <g id="Grupo_146572" data-name="Grupo 146572" transform="translate(0.039 0.037)">
              <path id="Trazado_256921" data-name="Trazado 256921" d="M273.682,152.309c.357,6.787-9.66,12.568-22.361,12.924-12.719.351-23.305-4.863-23.661-11.645s9.648-12.567,22.362-12.918S273.324,145.531,273.682,152.309Z" transform="translate(-227.495 -140.497)" fill="#279100"/>
              <path id="Trazado_256922" data-name="Trazado 256922" d="M250.142,165.425c-12.237,0-22.271-5.171-22.618-11.809a8.182,8.182,0,0,1,2.432-5.964c3.831-4.153,11.526-6.881,20.081-7.117,12.772-.372,23.458,4.929,23.821,11.786h0a8.191,8.191,0,0,1-2.44,5.969c-3.83,4.151-11.521,6.879-20.073,7.119C250.942,165.419,250.54,165.425,250.142,165.425Zm1.122-24.6c-.4,0-.81,0-1.218.017-8.476.234-16.085,2.923-19.861,7.017a7.877,7.877,0,0,0-2.35,5.737c.35,6.686,10.9,11.83,23.5,11.5,8.47-.237,16.077-2.927,19.853-7.019a7.89,7.89,0,0,0,2.356-5.742h0C273.2,145.864,263.321,140.828,251.263,140.828Z" transform="translate(-227.514 -140.516)" fill="#227500"/>
            </g>
            <path id="Trazado_256923" data-name="Trazado 256923" d="M259.728,164.369a41.045,41.045,0,0,1-8.378,1.082c-12.8.352-23.5-4.954-23.861-11.828a8.216,8.216,0,0,1,2.443-5.993c3.838-4.161,11.543-6.894,20.108-7.13,12.792-.359,23.5,4.945,23.858,11.822h0a8.225,8.225,0,0,1-2.449,6C268.928,161.052,264.736,163.171,259.728,164.369Zm-18-22.41c-4.927,1.18-9.041,3.255-11.511,5.934a7.836,7.836,0,0,0-2.34,5.709c.35,6.666,10.875,11.807,23.462,11.461,8.461-.235,16.056-2.923,19.825-7.005a7.854,7.854,0,0,0,2.347-5.715h0c-.352-6.668-10.877-11.807-23.461-11.455A40.867,40.867,0,0,0,241.728,141.959Zm31.978,10.373h0Z" transform="translate(-227.48 -140.483)" fill="#98b924"/>
          </g>
          <path id="Trazado_256924" data-name="Trazado 256924" d="M250.143,160.9c12.7-.349,22.721-6.138,22.362-12.918-.007-.073-.025-.143-.032-.218a7.376,7.376,0,0,1,1.2,3.581c.357,6.787-9.66,12.568-22.361,12.924-12.578.347-23.058-4.754-23.629-11.426C230.84,157.783,239.788,161.191,250.143,160.9Z" transform="translate(-227.452 -139.497)" fill="#c0d553" opacity="0.7" style="mix-blend-mode: multiply;isolation: isolate"/>
        </g>
        <g id="Grupo_146576" data-name="Grupo 146576" transform="translate(0.001)">
          <g id="Grupo_146575" data-name="Grupo 146575">
            <path id="Trazado_256925" data-name="Trazado 256925" d="M273.687,145.344c.346,6.783-9.661,12.562-22.377,12.919s-23.3-4.858-23.653-11.644,9.651-12.562,22.36-12.915S273.326,138.56,273.687,145.344Z" transform="translate(-227.453 -133.493)" fill="#defa62"/>
            <path id="Trazado_256926" data-name="Trazado 256926" d="M259.728,157.4a41.235,41.235,0,0,1-8.39,1.083c-12.789.362-23.488-4.944-23.853-11.828a8.215,8.215,0,0,1,2.445-5.992c3.835-4.159,11.538-6.891,20.1-7.128,12.8-.357,23.5,4.948,23.87,11.823h0a8.232,8.232,0,0,1-2.456,6C268.925,154.084,264.734,156.2,259.728,157.4Zm-18-22.4c-4.927,1.179-9.04,3.253-11.51,5.931a7.836,7.836,0,0,0-2.341,5.708c.352,6.675,10.873,11.816,23.453,11.46,8.463-.237,16.064-2.92,19.834-7a7.857,7.857,0,0,0,2.354-5.713c-.354-6.667-10.884-11.806-23.47-11.456A40.753,40.753,0,0,0,241.725,134.993Zm31.984,10.374h0Z" transform="translate(-227.477 -133.516)" fill="#98b924"/>
          </g>
          <path id="Trazado_256927" data-name="Trazado 256927" d="M250.243,154.437c12.711-.349,22.718-6.13,22.37-12.919-.014-.215-.061-.426-.094-.634a7.246,7.246,0,0,1,1.156,3.485c.346,6.783-9.661,12.562-22.377,12.919-12.306.344-22.588-4.539-23.562-11C230.837,151.279,239.819,154.732,250.243,154.437Z" transform="translate(-227.441 -132.518)" fill="#c0d553" opacity="0.7" style="mix-blend-mode: multiply;isolation: isolate"/>
        </g>
      </g>
      <g id="Grupo_146588" data-name="Grupo 146588">
        <g id="Grupo_146580" data-name="Grupo 146580" transform="translate(0 23.101)">
          <g id="Grupo_146579" data-name="Grupo 146579">
            <g id="Grupo_146578" data-name="Grupo 146578" transform="translate(0.039 0.038)">
              <path id="Trazado_256928" data-name="Trazado 256928" d="M273.687,139.848c.351,6.78-9.662,12.561-22.37,12.916s-23.305-4.86-23.661-11.64,9.657-12.568,22.366-12.921S273.327,133.063,273.687,139.848Z" transform="translate(-227.491 -128.03)" fill="#279100"/>
              <path id="Trazado_256929" data-name="Trazado 256929" d="M250.134,152.955c-12.235,0-22.267-5.17-22.615-11.806a8.192,8.192,0,0,1,2.44-5.97c3.831-4.15,11.524-6.876,20.077-7.113,12.787-.363,23.46,4.931,23.824,11.791h0a8.191,8.191,0,0,1-2.441,5.963c-3.832,4.15-11.527,6.877-20.081,7.118Q250.734,152.955,250.134,152.955Zm1.135-24.6q-.608,0-1.224.017c-8.474.236-16.082,2.923-19.858,7.013a7.894,7.894,0,0,0-2.357,5.743c.351,6.685,10.893,11.831,23.5,11.494,8.472-.237,16.083-2.926,19.861-7.017a7.89,7.89,0,0,0,2.358-5.736C273.207,133.4,263.325,128.36,251.27,128.36Z" transform="translate(-227.51 -128.048)" fill="#227500"/>
            </g>
            <path id="Trazado_256930" data-name="Trazado 256930" d="M259.73,151.9a41.257,41.257,0,0,1-8.384,1.083c-12.8.352-23.5-4.953-23.861-11.825a8.235,8.235,0,0,1,2.45-6c3.837-4.158,11.543-6.886,20.1-7.126,12.794-.359,23.5,4.946,23.864,11.828h0a8.231,8.231,0,0,1-2.452,5.992C268.93,148.584,264.738,150.7,259.73,151.9Zm-18-22.406c-4.924,1.179-9.039,3.252-11.509,5.928a7.854,7.854,0,0,0-2.347,5.715c.349,6.666,10.874,11.806,23.461,11.459,8.462-.236,16.062-2.921,19.832-7.005a7.847,7.847,0,0,0,2.349-5.708h0c-.353-6.674-10.879-11.815-23.464-11.461A40.787,40.787,0,0,0,241.729,129.493ZM273.71,139.87h0Z" transform="translate(-227.476 -128.015)" fill="#98b924"/>
          </g>
          <path id="Trazado_256931" data-name="Trazado 256931" d="M249.657,148.063c12.7-.352,22.716-6.137,22.365-12.919-.013-.154-.049-.3-.07-.459a7.671,7.671,0,0,1,1.725,4.282c.351,6.78-9.662,12.561-22.37,12.916-12.413.342-22.784-4.623-23.588-11.178C231.24,145.261,239.8,148.338,249.657,148.063Z" transform="translate(-227.443 -127.112)" fill="#c0d553" opacity="0.7" style="mix-blend-mode: multiply;isolation: isolate"/>
        </g>
        <g id="Grupo_146582" data-name="Grupo 146582" transform="translate(0.004 15.251)">
          <g id="Grupo_146581" data-name="Grupo 146581">
            <path id="Trazado_256932" data-name="Trazado 256932" d="M273.682,132.927c.357,6.787-9.66,12.568-22.361,12.924-12.719.35-23.305-4.863-23.661-11.645s9.648-12.567,22.362-12.918S273.324,126.149,273.682,132.927Z" transform="translate(-227.456 -121.078)" fill="#defa62"/>
            <path id="Trazado_256933" data-name="Trazado 256933" d="M259.728,144.987a41.124,41.124,0,0,1-8.378,1.082c-12.8.352-23.5-4.954-23.861-11.828a8.22,8.22,0,0,1,2.443-5.994c3.838-4.16,11.543-6.893,20.108-7.129,12.792-.359,23.5,4.945,23.858,11.822h0a8.226,8.226,0,0,1-2.449,6C268.928,141.67,264.736,143.789,259.728,144.987Zm-18-22.41c-4.927,1.18-9.041,3.255-11.511,5.934a7.836,7.836,0,0,0-2.34,5.709c.35,6.666,10.875,11.807,23.462,11.461,8.461-.235,16.056-2.923,19.825-7.005a7.854,7.854,0,0,0,2.347-5.715h0c-.352-6.668-10.877-11.807-23.461-11.455A40.868,40.868,0,0,0,241.728,122.577Zm31.978,10.373h0Z" transform="translate(-227.48 -121.101)" fill="#98b924"/>
          </g>
          <path id="Trazado_256934" data-name="Trazado 256934" d="M250.143,141.519c12.7-.349,22.721-6.138,22.362-12.918-.007-.073-.025-.144-.032-.218a7.376,7.376,0,0,1,1.2,3.581c.357,6.787-9.66,12.568-22.361,12.924-12.578.347-23.058-4.754-23.629-11.426C230.84,138.4,239.788,141.809,250.143,141.519Z" transform="translate(-227.452 -120.115)" fill="#c0d553" opacity="0.7" style="mix-blend-mode: multiply;isolation: isolate"/>
        </g>
        <g id="Grupo_146585" data-name="Grupo 146585" transform="translate(0.001 7.341)">
          <g id="Grupo_146584" data-name="Grupo 146584">
            <g id="Grupo_146583" data-name="Grupo 146583" transform="translate(0.039 0.038)">
              <path id="Trazado_256935" data-name="Trazado 256935" d="M273.687,125.961c.346,6.784-9.661,12.563-22.377,12.92s-23.3-4.858-23.653-11.644,9.651-12.562,22.36-12.916S273.326,119.178,273.687,125.961Z" transform="translate(-227.492 -114.149)" fill="#279100"/>
              <path id="Trazado_256936" data-name="Trazado 256936" d="M250.1,139.073c-12.218,0-22.231-5.168-22.582-11.809a8.181,8.181,0,0,1,2.434-5.964c3.829-4.151,11.521-6.877,20.076-7.116,12.777-.35,23.466,4.933,23.83,11.788h0a8.2,8.2,0,0,1-2.447,5.969c-3.832,4.149-11.527,6.875-20.081,7.114C250.921,139.066,250.509,139.073,250.1,139.073Zm1.149-24.594c-.4,0-.8,0-1.213.017-8.474.235-16.082,2.923-19.856,7.015a7.873,7.873,0,0,0-2.351,5.736c.353,6.7,10.9,11.838,23.493,11.5,8.474-.237,16.083-2.925,19.862-7.015a7.9,7.9,0,0,0,2.364-5.741h0C273.206,119.516,263.315,114.479,251.251,114.479Z" transform="translate(-227.511 -114.168)" fill="#227500"/>
            </g>
            <path id="Trazado_256937" data-name="Trazado 256937" d="M259.728,138.014a41.155,41.155,0,0,1-8.39,1.084c-12.789.361-23.488-4.945-23.853-11.828a8.215,8.215,0,0,1,2.445-5.992c3.835-4.159,11.538-6.891,20.1-7.128,12.8-.357,23.5,4.947,23.87,11.823h0a8.232,8.232,0,0,1-2.456,6C268.925,134.7,264.734,136.817,259.728,138.014Zm-18-22.4c-4.927,1.179-9.04,3.253-11.51,5.93a7.84,7.84,0,0,0-2.341,5.709c.352,6.675,10.873,11.816,23.453,11.46,8.463-.238,16.064-2.92,19.834-7a7.857,7.857,0,0,0,2.354-5.713c-.354-6.667-10.884-11.806-23.47-11.456A40.834,40.834,0,0,0,241.725,115.611Zm31.984,10.373h0Z" transform="translate(-227.477 -114.134)" fill="#98b924"/>
          </g>
          <path id="Trazado_256938" data-name="Trazado 256938" d="M250.243,135.055c12.711-.35,22.718-6.13,22.37-12.919-.014-.215-.061-.426-.094-.634a7.245,7.245,0,0,1,1.156,3.483c.346,6.784-9.661,12.563-22.377,12.92-12.306.344-22.588-4.539-23.562-11C230.837,131.9,239.819,135.349,250.243,135.055Z" transform="translate(-227.441 -113.136)" fill="#c0d553" opacity="0.7" style="mix-blend-mode: multiply;isolation: isolate"/>
        </g>
        <g id="Grupo_146587" data-name="Grupo 146587" transform="translate(1.039)">
          <g id="Grupo_146586" data-name="Grupo 146586">
            <path id="Trazado_256939" data-name="Trazado 256939" d="M272.524,118.97c.335,6.471-9.224,12-21.356,12.329s-22.254-4.637-22.6-11.11,9.221-12,21.359-12.334S272.18,112.492,272.524,118.97Z" transform="translate(-228.368 -107.646)" fill="#defa62"/>
            <path id="Trazado_256940" data-name="Trazado 256940" d="M259.212,130.484a39.213,39.213,0,0,1-8.015,1.033c-12.223.341-22.448-4.726-22.8-11.294a7.869,7.869,0,0,1,2.345-5.735c3.666-3.972,11.026-6.577,19.2-6.8,12.218-.341,22.443,4.728,22.792,11.3h0a7.871,7.871,0,0,1-2.347,5.732C267.985,127.323,263.986,129.342,259.212,130.484Zm-17.2-21.387c-4.7,1.124-8.622,3.1-10.978,5.654a7.5,7.5,0,0,0-2.242,5.451c.337,6.359,10.384,11.261,22.4,10.926,8.07-.22,15.321-2.778,18.924-6.677A7.494,7.494,0,0,0,272.354,119c-.338-6.362-10.384-11.266-22.395-10.931A38.945,38.945,0,0,0,242.008,109.1Zm30.539,9.9h0Z" transform="translate(-228.391 -107.669)" fill="#98b924"/>
          </g>
          <path id="Trazado_256941" data-name="Trazado 256941" d="M228.571,120.19c.343,6.473,10.465,11.448,22.6,11.11s21.691-5.859,21.356-12.329-10.462-11.453-22.594-11.115S228.233,113.71,228.571,120.19Zm5.453-2.245c-.32-4.424,7.007-8.1,16.369-8.226s17.215,3.361,17.536,7.783-7.011,8.1-16.376,8.22S234.34,122.36,234.024,117.945Z" transform="translate(-228.368 -107.646)" fill="#c0d553" opacity="0.7" style="mix-blend-mode: multiply;isolation: isolate"/>
        </g>
      </g>
    </g>
    <path id="Trazado_274216" data-name="Trazado 274216" d="M0,0V33.31" transform="translate(1000.409 1895.537)" fill="none" stroke="#319602" stroke-width="0.5"/>
    <path id="Trazado_256942" data-name="Trazado 256942" d="M124.941,114.272s-1.934-2.94.167-5.369,3.99-3.892,10.606-4.179c5.163-.224,6.661-.418,8.914.707s2.322,2.415,2.322,2.415l3.295-4.168s-8.711-1.6-15.821-.765-8.177,1.77-10.69,3.6-3.942,5.806-3.942,5.806l-1.2,1.816" transform="translate(905.111 1771.578)" fill="#defa62" stroke="#98b924" stroke-miterlimit="10" stroke-width="0.5"/>
    <g id="Grupo_146609" data-name="Grupo 146609" transform="translate(1049.347 1870.405)">
      <g id="Grupo_146597" data-name="Grupo 146597" transform="translate(0 29.346)">
        <g id="Grupo_146591" data-name="Grupo 146591" transform="translate(0 15.761)">
          <g id="Grupo_146590" data-name="Grupo 146590">
            <path id="Trazado_256943" data-name="Trazado 256943" d="M187.387,150.846c.351,6.78-9.661,12.561-22.37,12.918s-23.305-4.86-23.661-11.641,9.658-12.567,22.366-12.92S187.027,144.06,187.387,150.846Z" transform="translate(-141.154 -138.991)" fill="#defa62"/>
            <path id="Trazado_256944" data-name="Trazado 256944" d="M173.429,162.9a41.18,41.18,0,0,1-8.384,1.082c-12.8.353-23.5-4.952-23.86-11.824a8.226,8.226,0,0,1,2.45-6c3.835-4.158,11.541-6.886,20.1-7.126,12.794-.36,23.5,4.946,23.864,11.828h0a8.231,8.231,0,0,1-2.451,5.992C182.63,159.583,178.438,161.7,173.429,162.9Zm-18-22.406c-4.924,1.179-9.038,3.252-11.509,5.928a7.853,7.853,0,0,0-2.347,5.715c.35,6.666,10.874,11.806,23.461,11.457,8.462-.236,16.063-2.92,19.833-7a7.846,7.846,0,0,0,2.348-5.708h0c-.353-6.674-10.88-11.815-23.464-11.461A40.8,40.8,0,0,0,155.429,140.492Zm31.981,10.377h0Z" transform="translate(-141.177 -139.014)" fill="#98b924"/>
          </g>
          <path id="Trazado_256945" data-name="Trazado 256945" d="M163.357,159.063c12.7-.353,22.716-6.137,22.365-12.919-.012-.154-.049-.305-.069-.46a7.67,7.67,0,0,1,1.724,4.282c.351,6.78-9.661,12.561-22.37,12.918-12.413.342-22.784-4.625-23.588-11.179C144.941,156.26,153.5,159.336,163.357,159.063Z" transform="translate(-141.144 -138.111)" fill="#c0d553" opacity="0.7" style="mix-blend-mode: multiply;isolation: isolate"/>
        </g>
        <g id="Grupo_146594" data-name="Grupo 146594" transform="translate(0.003 7.91)">
          <g id="Grupo_146593" data-name="Grupo 146593">
            <g id="Grupo_146592" data-name="Grupo 146592" transform="translate(0.039 0.037)">
              <path id="Trazado_256946" data-name="Trazado 256946" d="M187.383,143.926c.355,6.787-9.66,12.568-22.361,12.924-12.72.35-23.307-4.864-23.662-11.645s9.648-12.567,22.362-12.919S187.024,137.147,187.383,143.926Z" transform="translate(-141.195 -132.113)" fill="#279100"/>
              <path id="Trazado_256947" data-name="Trazado 256947" d="M163.843,157.042c-12.239,0-22.271-5.171-22.62-11.809a8.18,8.18,0,0,1,2.432-5.964c3.831-4.153,11.526-6.882,20.081-7.118,12.772-.372,23.458,4.93,23.821,11.786h0a8.2,8.2,0,0,1-2.44,5.969c-3.83,4.151-11.521,6.878-20.073,7.119C164.642,157.036,164.24,157.042,163.843,157.042Zm1.121-24.6q-.6,0-1.218.017c-8.476.234-16.085,2.924-19.861,7.018a7.876,7.876,0,0,0-2.35,5.736c.35,6.688,10.9,11.83,23.5,11.5,8.47-.237,16.077-2.927,19.853-7.019a7.9,7.9,0,0,0,2.357-5.743h0C186.9,137.481,177.021,132.444,164.963,132.444Z" transform="translate(-141.214 -132.132)" fill="#227500"/>
            </g>
            <path id="Trazado_256948" data-name="Trazado 256948" d="M173.428,155.986a41.192,41.192,0,0,1-8.377,1.082c-12.8.352-23.5-4.955-23.862-11.829a8.22,8.22,0,0,1,2.443-5.993c3.838-4.161,11.543-6.893,20.108-7.13,12.793-.358,23.5,4.945,23.858,11.822h0a8.229,8.229,0,0,1-2.449,6C182.628,152.669,178.436,154.787,173.428,155.986Zm-18-22.41c-4.927,1.179-9.041,3.255-11.51,5.934a7.833,7.833,0,0,0-2.341,5.709c.35,6.666,10.875,11.807,23.462,11.461,8.461-.236,16.056-2.923,19.825-7.005a7.854,7.854,0,0,0,2.347-5.715h0c-.352-6.668-10.877-11.807-23.461-11.455A40.79,40.79,0,0,0,155.428,133.576Zm31.978,10.373h0Z" transform="translate(-141.18 -132.099)" fill="#98b924"/>
          </g>
          <path id="Trazado_256949" data-name="Trazado 256949" d="M163.844,152.518c12.7-.349,22.72-6.138,22.361-12.918-.007-.073-.025-.144-.032-.218a7.385,7.385,0,0,1,1.2,3.581c.355,6.787-9.66,12.568-22.361,12.924-12.578.347-23.059-4.754-23.629-11.426C144.54,149.4,153.488,152.808,163.844,152.518Z" transform="translate(-141.151 -131.113)" fill="#c0d553" opacity="0.7" style="mix-blend-mode: multiply;isolation: isolate"/>
        </g>
        <g id="Grupo_146596" data-name="Grupo 146596">
          <g id="Grupo_146595" data-name="Grupo 146595">
            <path id="Trazado_256950" data-name="Trazado 256950" d="M187.387,136.96c.346,6.784-9.661,12.563-22.376,12.919s-23.3-4.857-23.654-11.642,9.651-12.563,22.36-12.916S187.026,130.177,187.387,136.96Z" transform="translate(-141.154 -125.109)" fill="#defa62"/>
            <path id="Trazado_256951" data-name="Trazado 256951" d="M173.429,149.013a41.333,41.333,0,0,1-8.391,1.084c-12.788.361-23.488-4.945-23.853-11.828a8.218,8.218,0,0,1,2.445-5.992c3.835-4.159,11.539-6.891,20.1-7.129,12.8-.357,23.5,4.948,23.87,11.824h0a8.241,8.241,0,0,1-2.456,6C182.625,145.7,178.434,147.816,173.429,149.013Zm-18-22.4c-4.927,1.18-9.04,3.254-11.51,5.931a7.84,7.84,0,0,0-2.341,5.709c.352,6.674,10.874,11.815,23.454,11.459,8.462-.237,16.063-2.919,19.833-7a7.857,7.857,0,0,0,2.354-5.713c-.354-6.667-10.883-11.807-23.47-11.456A40.835,40.835,0,0,0,155.425,126.609Zm31.984,10.374h0Z" transform="translate(-141.177 -125.132)" fill="#98b924"/>
          </g>
          <path id="Trazado_256952" data-name="Trazado 256952" d="M163.944,146.054c12.71-.35,22.717-6.131,22.37-12.919-.015-.215-.061-.426-.1-.634a7.245,7.245,0,0,1,1.156,3.483c.346,6.784-9.661,12.563-22.376,12.919-12.307.344-22.589-4.538-23.563-11C144.537,142.894,153.519,146.348,163.944,146.054Z" transform="translate(-141.142 -124.134)" fill="#c0d553" opacity="0.7" style="mix-blend-mode: multiply;isolation: isolate"/>
        </g>
      </g>
      <g id="Grupo_146608" data-name="Grupo 146608">
        <g id="Grupo_146600" data-name="Grupo 146600" transform="translate(0 23.101)">
          <g id="Grupo_146599" data-name="Grupo 146599">
            <g id="Grupo_146598" data-name="Grupo 146598" transform="translate(0.038 0.038)">
              <path id="Trazado_256953" data-name="Trazado 256953" d="M187.387,131.464c.351,6.78-9.661,12.561-22.37,12.918s-23.305-4.86-23.661-11.641,9.658-12.568,22.366-12.921S187.027,124.679,187.387,131.464Z" transform="translate(-141.191 -119.647)" fill="#279100"/>
              <path id="Trazado_256954" data-name="Trazado 256954" d="M163.834,144.572c-12.235,0-22.267-5.17-22.615-11.806a8.192,8.192,0,0,1,2.44-5.97c3.831-4.151,11.524-6.877,20.077-7.113,12.787-.364,23.46,4.93,23.824,11.791h0a8.185,8.185,0,0,1-2.441,5.963c-3.832,4.151-11.527,6.878-20.08,7.118Q164.434,144.572,163.834,144.572Zm1.135-24.6q-.608,0-1.224.017c-8.472.235-16.082,2.923-19.858,7.013a7.892,7.892,0,0,0-2.357,5.743c.351,6.685,10.894,11.831,23.5,11.494,8.474-.237,16.083-2.927,19.861-7.017a7.891,7.891,0,0,0,2.358-5.737C186.907,125.015,177.027,119.977,164.97,119.977Z" transform="translate(-141.21 -119.665)" fill="#227500"/>
            </g>
            <path id="Trazado_256955" data-name="Trazado 256955" d="M173.429,143.515a41.1,41.1,0,0,1-8.384,1.083c-12.8.353-23.5-4.952-23.86-11.824a8.226,8.226,0,0,1,2.45-6c3.835-4.158,11.541-6.886,20.1-7.126,12.794-.36,23.5,4.946,23.864,11.828h0a8.229,8.229,0,0,1-2.451,5.99C182.63,140.2,178.438,142.318,173.429,143.515Zm-18-22.406c-4.924,1.179-9.038,3.253-11.509,5.929a7.853,7.853,0,0,0-2.347,5.715c.35,6.666,10.874,11.8,23.461,11.457,8.462-.236,16.063-2.92,19.833-7a7.848,7.848,0,0,0,2.348-5.709h0c-.353-6.673-10.88-11.814-23.464-11.46A40.878,40.878,0,0,0,155.429,121.109Zm31.981,10.378h0Z" transform="translate(-141.177 -119.632)" fill="#98b924"/>
          </g>
          <path id="Trazado_256956" data-name="Trazado 256956" d="M163.357,139.681c12.7-.353,22.716-6.137,22.365-12.919-.012-.154-.049-.305-.069-.46a7.67,7.67,0,0,1,1.724,4.282c.351,6.78-9.661,12.561-22.37,12.918-12.413.342-22.784-4.625-23.588-11.179C144.941,136.878,153.5,139.954,163.357,139.681Z" transform="translate(-141.144 -118.729)" fill="#c0d553" opacity="0.7" style="mix-blend-mode: multiply;isolation: isolate"/>
        </g>
        <g id="Grupo_146602" data-name="Grupo 146602" transform="translate(0.003 15.25)">
          <g id="Grupo_146601" data-name="Grupo 146601">
            <path id="Trazado_256957" data-name="Trazado 256957" d="M187.383,124.543c.355,6.789-9.66,12.569-22.361,12.926-12.72.35-23.307-4.864-23.662-11.646s9.648-12.566,22.362-12.918S187.024,117.765,187.383,124.543Z" transform="translate(-141.156 -112.694)" fill="#defa62"/>
            <path id="Trazado_256958" data-name="Trazado 256958" d="M173.428,136.6a41.193,41.193,0,0,1-8.377,1.082c-12.8.352-23.5-4.955-23.862-11.829a8.218,8.218,0,0,1,2.443-5.993c3.838-4.161,11.543-6.893,20.108-7.13,12.793-.358,23.5,4.945,23.858,11.822h0a8.229,8.229,0,0,1-2.449,6C182.628,133.287,178.436,135.4,173.428,136.6Zm-18-22.41c-4.927,1.179-9.041,3.254-11.51,5.934a7.83,7.83,0,0,0-2.341,5.708c.35,6.667,10.875,11.808,23.462,11.462,8.461-.236,16.056-2.923,19.825-7.007a7.852,7.852,0,0,0,2.347-5.713h0c-.352-6.669-10.877-11.807-23.461-11.455A40.788,40.788,0,0,0,155.428,114.194Zm31.978,10.373h0Z" transform="translate(-141.18 -112.717)" fill="#98b924"/>
          </g>
          <path id="Trazado_256959" data-name="Trazado 256959" d="M163.844,133.136c12.7-.349,22.72-6.138,22.361-12.919-.007-.072-.025-.143-.032-.217a7.385,7.385,0,0,1,1.2,3.58c.355,6.789-9.66,12.569-22.361,12.926-12.578.347-23.059-4.755-23.629-11.427C144.54,130.018,153.488,133.425,163.844,133.136Z" transform="translate(-141.151 -111.731)" fill="#c0d553" opacity="0.7" style="mix-blend-mode: multiply;isolation: isolate"/>
        </g>
        <g id="Grupo_146605" data-name="Grupo 146605" transform="translate(0 7.34)">
          <g id="Grupo_146604" data-name="Grupo 146604">
            <g id="Grupo_146603" data-name="Grupo 146603" transform="translate(0.039 0.039)">
              <path id="Trazado_256960" data-name="Trazado 256960" d="M187.387,117.578c.346,6.784-9.661,12.563-22.376,12.919s-23.3-4.857-23.654-11.643,9.651-12.563,22.36-12.916S187.026,110.8,187.387,117.578Z" transform="translate(-141.192 -105.766)" fill="#279100"/>
              <path id="Trazado_256961" data-name="Trazado 256961" d="M163.8,130.689c-12.217,0-22.231-5.167-22.582-11.808a8.179,8.179,0,0,1,2.434-5.964c3.829-4.151,11.521-6.878,20.076-7.116,12.777-.35,23.466,4.932,23.83,11.787h0a8.2,8.2,0,0,1-2.446,5.969c-3.833,4.148-11.528,6.875-20.082,7.114C164.621,130.683,164.209,130.689,163.8,130.689Zm1.15-24.594c-.4,0-.806.006-1.214.017-8.474.235-16.082,2.924-19.856,7.016a7.88,7.88,0,0,0-2.351,5.736c.353,6.7,10.9,11.837,23.494,11.5,8.472-.237,16.083-2.926,19.861-7.015a7.9,7.9,0,0,0,2.364-5.742h0C186.906,111.133,177.015,106.1,164.952,106.1Z" transform="translate(-141.211 -105.785)" fill="#227500"/>
            </g>
            <path id="Trazado_256962" data-name="Trazado 256962" d="M173.429,129.631a41.257,41.257,0,0,1-8.391,1.083c-12.788.362-23.488-4.944-23.853-11.828a8.221,8.221,0,0,1,2.445-5.992c3.835-4.159,11.539-6.89,20.1-7.128,12.8-.355,23.5,4.948,23.87,11.824h0a8.243,8.243,0,0,1-2.456,6C182.625,126.318,178.434,128.433,173.429,129.631Zm-18-22.4c-4.927,1.18-9.04,3.254-11.51,5.931a7.837,7.837,0,0,0-2.341,5.708c.352,6.675,10.874,11.816,23.454,11.46,8.462-.237,16.063-2.919,19.833-7a7.859,7.859,0,0,0,2.354-5.713c-.354-6.667-10.883-11.807-23.47-11.456A40.834,40.834,0,0,0,155.425,107.227ZM187.41,117.6h0Z" transform="translate(-141.177 -105.75)" fill="#98b924"/>
          </g>
          <path id="Trazado_256963" data-name="Trazado 256963" d="M163.944,126.672c12.71-.35,22.717-6.131,22.37-12.919-.015-.215-.061-.426-.1-.634a7.245,7.245,0,0,1,1.156,3.483c.346,6.784-9.661,12.563-22.376,12.919-12.307.344-22.589-4.539-23.563-11C144.537,123.512,153.519,126.966,163.944,126.672Z" transform="translate(-141.142 -104.752)" fill="#c0d553" opacity="0.7" style="mix-blend-mode: multiply;isolation: isolate"/>
        </g>
        <g id="Grupo_146607" data-name="Grupo 146607" transform="translate(1.039)">
          <g id="Grupo_146606" data-name="Grupo 146606">
            <path id="Trazado_256964" data-name="Trazado 256964" d="M186.225,110.587c.334,6.471-9.225,12-21.357,12.329s-22.254-4.637-22.6-11.11,9.222-12,21.359-12.334S185.88,104.108,186.225,110.587Z" transform="translate(-142.068 -99.263)" fill="#defa62"/>
            <path id="Trazado_256965" data-name="Trazado 256965" d="M172.912,122.1a39.292,39.292,0,0,1-8.015,1.033c-12.222.341-22.448-4.726-22.8-11.294a7.872,7.872,0,0,1,2.345-5.735c3.666-3.972,11.026-6.577,19.2-6.8,12.219-.341,22.444,4.728,22.792,11.3h0a7.868,7.868,0,0,1-2.347,5.732C181.685,118.94,177.686,120.959,172.912,122.1Zm-17.2-21.388c-4.7,1.124-8.622,3.1-10.978,5.655a7.5,7.5,0,0,0-2.241,5.451c.336,6.359,10.384,11.261,22.4,10.925,8.072-.219,15.322-2.777,18.924-6.676a7.5,7.5,0,0,0,2.245-5.448c-.338-6.362-10.384-11.266-22.394-10.931A38.968,38.968,0,0,0,155.708,100.713Zm30.54,9.9h0Z" transform="translate(-142.091 -99.286)" fill="#98b924"/>
          </g>
          <path id="Trazado_256966" data-name="Trazado 256966" d="M142.271,111.807c.343,6.473,10.465,11.448,22.6,11.11s21.691-5.859,21.357-12.329S175.762,99.135,163.63,99.473,141.933,105.327,142.271,111.807Zm5.453-2.245c-.32-4.424,7.007-8.1,16.369-8.226s17.215,3.36,17.536,7.783-7.011,8.1-16.376,8.219S148.04,113.977,147.724,109.562Z" transform="translate(-142.068 -99.263)" fill="#c0d553" opacity="0.7" style="mix-blend-mode: multiply;isolation: isolate"/>
        </g>
      </g>
    </g>
    <g id="Grupo_146620" data-name="Grupo 146620" transform="translate(1002.301 1885.52)">
      <g id="Grupo_146612" data-name="Grupo 146612" transform="translate(0 23.101)">
        <g id="Grupo_146611" data-name="Grupo 146611">
          <g id="Grupo_146610" data-name="Grupo 146610" transform="translate(0.038 0.038)">
            <path id="Trazado_256967" data-name="Trazado 256967" d="M145.953,144.776c.35,6.78-9.662,12.562-22.371,12.918s-23.3-4.86-23.661-11.641,9.658-12.567,22.366-12.92S145.593,137.99,145.953,144.776Z" transform="translate(-99.756 -132.958)" fill="#279100"/>
            <path id="Trazado_256968" data-name="Trazado 256968" d="M122.4,157.884c-12.235,0-22.265-5.168-22.614-11.806a8.2,8.2,0,0,1,2.441-5.97c3.83-4.151,11.523-6.877,20.077-7.113,12.777-.368,23.46,4.93,23.824,11.791h0a8.2,8.2,0,0,1-2.441,5.964c-3.833,4.15-11.527,6.877-20.081,7.117C123.2,157.879,122.8,157.884,122.4,157.884Zm1.137-24.6c-.406,0-.813.006-1.224.017-8.472.235-16.082,2.923-19.857,7.013a7.9,7.9,0,0,0-2.358,5.743c.351,6.686,10.9,11.85,23.5,11.494,8.472-.237,16.082-2.926,19.859-7.018a7.888,7.888,0,0,0,2.359-5.736C145.472,138.327,135.592,133.289,123.535,133.289Z" transform="translate(-99.775 -132.977)" fill="#227500"/>
          </g>
          <path id="Trazado_256969" data-name="Trazado 256969" d="M132,156.829a41.2,41.2,0,0,1-8.385,1.082c-12.8.353-23.5-4.952-23.86-11.824a8.226,8.226,0,0,1,2.45-6c3.837-4.158,11.543-6.886,20.1-7.126,12.795-.36,23.5,4.946,23.864,11.828h0a8.231,8.231,0,0,1-2.451,5.992C141.195,153.513,137,155.63,132,156.829Zm-18-22.406c-4.925,1.179-9.039,3.252-11.509,5.928a7.849,7.849,0,0,0-2.348,5.715c.35,6.666,10.875,11.806,23.461,11.457,8.463-.236,16.063-2.92,19.833-7a7.852,7.852,0,0,0,2.349-5.708h0c-.354-6.674-10.881-11.815-23.466-11.461A40.776,40.776,0,0,0,113.995,134.422ZM145.976,144.8h0Z" transform="translate(-99.742 -132.944)" fill="#98b924"/>
        </g>
        <path id="Trazado_256970" data-name="Trazado 256970" d="M121.922,152.992c12.7-.352,22.717-6.137,22.365-12.919-.012-.154-.048-.305-.069-.459a7.673,7.673,0,0,1,1.725,4.28c.35,6.78-9.662,12.562-22.371,12.918-12.412.342-22.784-4.625-23.587-11.179C103.506,150.19,112.065,153.266,121.922,152.992Z" transform="translate(-99.709 -132.04)" fill="#c0d553" opacity="0.7" style="mix-blend-mode: multiply;isolation: isolate"/>
      </g>
      <g id="Grupo_146614" data-name="Grupo 146614" transform="translate(0.004 15.25)">
        <g id="Grupo_146613" data-name="Grupo 146613">
          <path id="Trazado_256971" data-name="Trazado 256971" d="M145.948,137.855c.355,6.789-9.66,12.569-22.361,12.926-12.719.35-23.305-4.864-23.662-11.645s9.649-12.567,22.363-12.919S145.589,131.077,145.948,137.855Z" transform="translate(-99.722 -126.006)" fill="#defa62"/>
          <path id="Trazado_256972" data-name="Trazado 256972" d="M131.993,149.916A41.192,41.192,0,0,1,123.616,151c-12.8.352-23.5-4.955-23.861-11.829a8.209,8.209,0,0,1,2.443-5.993c3.837-4.161,11.541-6.893,20.107-7.13,12.793-.358,23.5,4.945,23.86,11.822h0a8.238,8.238,0,0,1-2.449,6C141.194,146.6,137,148.718,131.993,149.916Zm-18-22.41c-4.927,1.179-9.041,3.255-11.511,5.934a7.837,7.837,0,0,0-2.341,5.709c.35,6.666,10.875,11.807,23.462,11.461,8.461-.236,16.057-2.923,19.825-7.005a7.862,7.862,0,0,0,2.348-5.715h0c-.352-6.668-10.876-11.807-23.46-11.455A40.778,40.778,0,0,0,113.994,127.506Zm31.977,10.373h0Z" transform="translate(-99.745 -126.029)" fill="#98b924"/>
        </g>
        <path id="Trazado_256973" data-name="Trazado 256973" d="M122.409,146.448c12.7-.349,22.72-6.138,22.361-12.919-.006-.072-.025-.143-.032-.217a7.373,7.373,0,0,1,1.2,3.58c.355,6.789-9.66,12.569-22.361,12.926-12.578.346-23.058-4.754-23.629-11.426C103.106,143.33,112.054,146.738,122.409,146.448Z" transform="translate(-99.717 -125.043)" fill="#c0d553" opacity="0.7" style="mix-blend-mode: multiply;isolation: isolate"/>
      </g>
      <g id="Grupo_146617" data-name="Grupo 146617" transform="translate(0.001 7.34)">
        <g id="Grupo_146616" data-name="Grupo 146616">
          <g id="Grupo_146615" data-name="Grupo 146615" transform="translate(0.038 0.038)">
            <path id="Trazado_256974" data-name="Trazado 256974" d="M145.952,130.89c.347,6.784-9.661,12.563-22.376,12.92s-23.3-4.858-23.654-11.644,9.651-12.563,22.36-12.916S145.591,124.107,145.952,130.89Z" transform="translate(-99.757 -119.077)" fill="#279100"/>
            <path id="Trazado_256975" data-name="Trazado 256975" d="M122.367,144c-12.217,0-22.231-5.167-22.582-11.809a8.173,8.173,0,0,1,2.435-5.962c3.829-4.152,11.521-6.879,20.076-7.117,12.772-.362,23.466,4.932,23.829,11.788h0a8.2,8.2,0,0,1-2.446,5.969c-3.833,4.149-11.527,6.875-20.082,7.114C123.186,144,122.775,144,122.367,144Zm1.151-24.594c-.4,0-.806.006-1.214.017-8.474.235-16.082,2.924-19.856,7.017a7.873,7.873,0,0,0-2.353,5.735c.354,6.7,10.876,11.842,23.494,11.5,8.474-.237,16.084-2.926,19.862-7.015a7.9,7.9,0,0,0,2.363-5.741h0C145.472,124.445,135.581,119.407,123.519,119.407Z" transform="translate(-99.776 -119.096)" fill="#227500"/>
          </g>
          <path id="Trazado_256976" data-name="Trazado 256976" d="M131.994,142.943a41.316,41.316,0,0,1-8.39,1.084c-12.789.361-23.489-4.945-23.853-11.829a8.211,8.211,0,0,1,2.443-5.99c3.835-4.159,11.539-6.891,20.1-7.129,12.795-.355,23.5,4.948,23.869,11.824h0a8.243,8.243,0,0,1-2.456,6C141.191,139.63,137,141.745,131.994,142.943Zm-18-22.4c-4.925,1.18-9.04,3.254-11.51,5.931a7.84,7.84,0,0,0-2.341,5.709c.352,6.674,10.874,11.815,23.454,11.459,8.462-.237,16.063-2.919,19.834-7a7.868,7.868,0,0,0,2.354-5.713c-.355-6.667-10.884-11.807-23.471-11.456A40.856,40.856,0,0,0,113.99,120.539Zm31.985,10.374h0Z" transform="translate(-99.743 -119.062)" fill="#98b924"/>
        </g>
        <path id="Trazado_256977" data-name="Trazado 256977" d="M122.509,139.984c12.711-.35,22.718-6.131,22.37-12.919-.014-.215-.061-.426-.1-.634a7.221,7.221,0,0,1,1.156,3.483c.347,6.784-9.661,12.563-22.376,12.92-12.307.343-22.588-4.54-23.562-11C103.1,136.824,112.084,140.278,122.509,139.984Z" transform="translate(-99.707 -118.064)" fill="#c0d553" opacity="0.7" style="mix-blend-mode: multiply;isolation: isolate"/>
      </g>
      <g id="Grupo_146619" data-name="Grupo 146619" transform="translate(1.039)">
        <g id="Grupo_146618" data-name="Grupo 146618">
          <path id="Trazado_256978" data-name="Trazado 256978" d="M144.79,123.9c.334,6.471-9.225,12-21.357,12.329s-22.254-4.637-22.6-11.11,9.222-12,21.36-12.334S144.446,117.42,144.79,123.9Z" transform="translate(-100.634 -112.575)" fill="#defa62"/>
          <path id="Trazado_256979" data-name="Trazado 256979" d="M131.477,135.413a39.212,39.212,0,0,1-8.015,1.033c-12.222.341-22.448-4.726-22.8-11.294a7.872,7.872,0,0,1,2.343-5.735c3.666-3.972,11.027-6.577,19.2-6.8,12.219-.341,22.444,4.728,22.793,11.3h0a7.869,7.869,0,0,1-2.346,5.732C140.25,132.252,136.251,134.271,131.477,135.413Zm-17.2-21.388c-4.7,1.124-8.622,3.1-10.979,5.655a7.5,7.5,0,0,0-2.241,5.451c.337,6.359,10.384,11.261,22.4,10.925,8.07-.219,15.321-2.777,18.923-6.676a7.5,7.5,0,0,0,2.246-5.448c-.338-6.362-10.384-11.266-22.395-10.931A38.945,38.945,0,0,0,114.274,114.025Zm30.539,9.9h0Z" transform="translate(-100.657 -112.598)" fill="#98b924"/>
        </g>
        <path id="Trazado_256980" data-name="Trazado 256980" d="M100.836,125.119c.343,6.473,10.466,11.448,22.6,11.11s21.691-5.859,21.357-12.329-10.462-11.453-22.594-11.115S100.5,118.639,100.836,125.119Zm5.453-2.245c-.32-4.424,7.008-8.1,16.37-8.226s17.214,3.36,17.535,7.783-7.011,8.1-16.376,8.219S106.606,127.289,106.289,122.874Z" transform="translate(-100.634 -112.575)" fill="#c0d553" opacity="0.7" style="mix-blend-mode: multiply;isolation: isolate"/>
      </g>
    </g>
    <g id="Grupo_146621" data-name="Grupo 146621" transform="translate(983.387 1877.791)">
      <line id="Línea_508" data-name="Línea 508" x2="35.961" y2="15.697" transform="translate(0.124 0.285)" fill="#ffea83"/>
      <rect id="Rectángulo_44361" data-name="Rectángulo 44361" width="0.622" height="39.237" transform="translate(0 0.57) rotate(-66.419)" fill="#319602"/>
    </g>
    <g id="Grupo_146622" data-name="Grupo 146622" transform="translate(1139.587 1843.731)">
      <line id="Línea_509" data-name="Línea 509" y1="46.527" x2="20.309" transform="translate(0.369 0.161)" fill="#ffea83"/>
      <rect id="Rectángulo_44362" data-name="Rectángulo 44362" width="50.766" height="0.805" transform="translate(0 46.527) rotate(-66.419)" fill="#319602"/>
    </g>
  </g>
</svg>
